<svg xmlns="http://www.w3.org/2000/svg" xmlns:xlink="http://www.w3.org/1999/xlink" width="495.416" height="466.358" viewBox="0 0 495.416 466.358">
  <defs>
    <linearGradient id="linear-gradient" x1="-34.753" y1="32.072" x2="-34.746" y2="32.072" gradientUnits="objectBoundingBox">
      <stop offset="0" stop-color="#c3c2c4"/>
      <stop offset="1" stop-color="#f2ad0d"/>
    </linearGradient>
    <clipPath id="clip-path">
      <path id="path24" d="M965.828-635.953H632.642V-969.14H965.828Z"/>
    </clipPath>
    <clipPath id="clip-path-2">
      <path id="path40" d="M904.256-992.167a21.069,21.069,0,0,1-4.148,29.505A21.07,21.07,0,0,1,870.6-966.81a21.069,21.069,0,0,1,4.148-29.505A21.068,21.068,0,0,1,904.256-992.167Z" fill="url(#linear-gradient)"/>
    </clipPath>
    <clipPath id="clip-path-3">
      <path id="path56" d="M941.755-971.266a22.38,22.38,0,0,1-4.405,31.341,22.379,22.379,0,0,1-31.341-4.405,22.378,22.378,0,0,1,4.405-31.341A22.378,22.378,0,0,1,941.755-971.266Z" fill="url(#linear-gradient)"/>
    </clipPath>
    <clipPath id="clip-path-4">
      <path id="path72" d="M908.066-954.282a22.381,22.381,0,0,1-4.407,31.341,22.379,22.379,0,0,1-31.341-4.405,22.381,22.381,0,0,1,4.405-31.343A22.381,22.381,0,0,1,908.066-954.282Z" fill="url(#linear-gradient)"/>
    </clipPath>
    <clipPath id="clip-path-5">
      <path id="path88" d="M949.6-934.167a22.378,22.378,0,0,1-4.405,31.341,22.38,22.38,0,0,1-31.341-4.407,22.379,22.379,0,0,1,4.405-31.341A22.378,22.378,0,0,1,949.6-934.167Z" fill="url(#linear-gradient)"/>
    </clipPath>
    <clipPath id="clip-path-6">
      <path id="path104" d="M968.318-963.151a22.38,22.38,0,0,1-4.405,31.343,22.379,22.379,0,0,1-31.341-4.407,22.378,22.378,0,0,1,4.405-31.341A22.379,22.379,0,0,1,968.318-963.151Z" fill="url(#linear-gradient)"/>
    </clipPath>
    <clipPath id="clip-path-7">
      <path id="path120" d="M955.3-906.046A22.381,22.381,0,0,1,950.9-874.7a22.38,22.38,0,0,1-31.341-4.407,22.379,22.379,0,0,1,4.405-31.341A22.381,22.381,0,0,1,955.3-906.046Z" fill="url(#linear-gradient)"/>
    </clipPath>
    <clipPath id="clip-path-8">
      <path id="path136" d="M990.6-923.343a16.217,16.217,0,0,1-3.192,22.712,16.218,16.218,0,0,1-22.712-3.193,16.217,16.217,0,0,1,3.193-22.711,16.215,16.215,0,0,1,22.711,3.192Z" fill="url(#linear-gradient)"/>
    </clipPath>
    <clipPath id="clip-path-9">
      <path id="path152" d="M986.246-937.61a10.748,10.748,0,0,1-12.139,9.147,10.746,10.746,0,0,1-9.144-12.137,10.745,10.745,0,0,1,12.136-9.147A10.748,10.748,0,0,1,986.246-937.61Z" fill="url(#linear-gradient)"/>
    </clipPath>
    <clipPath id="clip-path-10">
      <path id="path168" d="M998.424-952.38a5.854,5.854,0,0,1-1.152,8.2,5.856,5.856,0,0,1-8.2-1.152,5.856,5.856,0,0,1,1.152-8.2A5.854,5.854,0,0,1,998.424-952.38Z" fill="url(#linear-gradient)"/>
    </clipPath>
    <clipPath id="clip-path-11">
      <path id="path184" d="M1014.727-964.664a5.855,5.855,0,0,1-1.152,8.2,5.857,5.857,0,0,1-8.2-1.152,5.855,5.855,0,0,1,1.152-8.2A5.855,5.855,0,0,1,1014.727-964.664Z" fill="url(#linear-gradient)"/>
    </clipPath>
    <clipPath id="clip-path-12">
      <path id="path200" d="M970.622-1001.058a4.315,4.315,0,0,1-.851,6.043,4.313,4.313,0,0,1-6.04-.849,4.314,4.314,0,0,1,.849-6.041,4.316,4.316,0,0,1,6.041.848Z" fill="url(#linear-gradient)"/>
    </clipPath>
    <clipPath id="clip-path-13">
      <path id="path216" d="M966.108-1004.764a2.325,2.325,0,0,1-.457,3.256,2.325,2.325,0,0,1-3.256-.457,2.325,2.325,0,0,1,.459-3.256A2.323,2.323,0,0,1,966.108-1004.764Z" fill="url(#linear-gradient)"/>
    </clipPath>
    <clipPath id="clip-path-14">
      <path id="path232" d="M1044.561-974.954a1.644,1.644,0,0,1-.324,2.3,1.644,1.644,0,0,1-2.3-.324,1.644,1.644,0,0,1,.324-2.3A1.644,1.644,0,0,1,1044.561-974.954Z" fill="url(#linear-gradient)"/>
    </clipPath>
    <clipPath id="clip-path-15">
      <path id="path248" d="M984.146-1025.884a2.325,2.325,0,0,1-.456,3.256,2.326,2.326,0,0,1-3.257-.457,2.324,2.324,0,0,1,.457-3.256A2.324,2.324,0,0,1,984.146-1025.884Z" fill="url(#linear-gradient)"/>
    </clipPath>
    <clipPath id="clip-path-16">
      <path id="path264" d="M953.72-1013.014a2.325,2.325,0,0,1-.459,3.256,2.325,2.325,0,0,1-3.256-.457,2.325,2.325,0,0,1,.459-3.256A2.325,2.325,0,0,1,953.72-1013.014Z" fill="url(#linear-gradient)"/>
    </clipPath>
    <clipPath id="clip-path-17">
      <path id="path280" d="M960.3-923.83a2.325,2.325,0,0,1-.457,3.256,2.326,2.326,0,0,1-3.257-.457,2.326,2.326,0,0,1,.457-3.256A2.327,2.327,0,0,1,960.3-923.83Z" fill="url(#linear-gradient)"/>
    </clipPath>
    <clipPath id="clip-path-18">
      <path id="path296" d="M948.924-1015.515a4.313,4.313,0,0,1-.849,6.041,4.312,4.312,0,0,1-6.041-.849,4.315,4.315,0,0,1,.849-6.041A4.315,4.315,0,0,1,948.924-1015.515Z" fill="url(#linear-gradient)"/>
    </clipPath>
    <clipPath id="clip-path-19">
      <path id="path312" d="M972.31-1022.367a4.314,4.314,0,0,1-.848,6.041,4.316,4.316,0,0,1-6.043-.849,4.313,4.313,0,0,1,.851-6.041A4.31,4.31,0,0,1,972.31-1022.367Z" fill="url(#linear-gradient)"/>
    </clipPath>
    <clipPath id="clip-path-20">
      <path id="path328" d="M975.632-988.263a3.39,3.39,0,0,1-.668,4.747,3.39,3.39,0,0,1-4.747-.667,3.389,3.389,0,0,1,.667-4.747A3.391,3.391,0,0,1,975.632-988.263Z" fill="url(#linear-gradient)"/>
    </clipPath>
    <clipPath id="clip-path-21">
      <path id="path344" d="M1014.612-980.564a3.389,3.389,0,0,1-.667,4.747,3.391,3.391,0,0,1-4.748-.667,3.39,3.39,0,0,1,.668-4.747A3.389,3.389,0,0,1,1014.612-980.564Z" fill="url(#linear-gradient)"/>
    </clipPath>
    <clipPath id="clip-path-22">
      <path id="path360" d="M985.982-983.356a2.814,2.814,0,0,1-.553,3.94,2.813,2.813,0,0,1-3.939-.555,2.813,2.813,0,0,1,.553-3.939,2.813,2.813,0,0,1,3.939.553Z" fill="url(#linear-gradient)"/>
    </clipPath>
    <clipPath id="clip-path-23">
      <path id="path376" d="M1032.049-964.079a3.388,3.388,0,0,1-.668,4.747,3.387,3.387,0,0,1-4.745-.668,3.388,3.388,0,0,1,.667-4.747,3.391,3.391,0,0,1,4.747.668Z" fill="url(#linear-gradient)"/>
    </clipPath>
    <clipPath id="clip-path-24">
      <path id="path392" d="M959.9-913.906a3.389,3.389,0,0,1-.667,4.747,3.391,3.391,0,0,1-4.748-.667,3.39,3.39,0,0,1,.668-4.747A3.389,3.389,0,0,1,959.9-913.906Z" fill="url(#linear-gradient)"/>
    </clipPath>
    <clipPath id="clip-path-25">
      <path id="path408" d="M984.448-961.2a9.552,9.552,0,0,1-1.881,13.377,9.55,9.55,0,0,1-13.376-1.88,9.552,9.552,0,0,1,1.88-13.377,9.551,9.551,0,0,1,13.377,1.88Z" fill="url(#linear-gradient)"/>
    </clipPath>
    <clipPath id="clip-path-26">
      <path id="path424" d="M921.291-987.614a9.552,9.552,0,0,1-1.881,13.377,9.552,9.552,0,0,1-13.377-1.88,9.552,9.552,0,0,1,1.881-13.377A9.554,9.554,0,0,1,921.291-987.614Z" fill="url(#linear-gradient)"/>
    </clipPath>
    <clipPath id="clip-path-27">
      <path id="path440" d="M960.7-1034.7a9.552,9.552,0,0,1-1.881,13.377,9.552,9.552,0,0,1-13.376-1.88,9.554,9.554,0,0,1,1.88-13.379A9.554,9.554,0,0,1,960.7-1034.7Z" fill="url(#linear-gradient)"/>
    </clipPath>
    <clipPath id="clip-path-28">
      <path id="path456" d="M965.859-985.87a9.552,9.552,0,0,1-1.88,13.377,9.552,9.552,0,0,1-13.377-1.881,9.552,9.552,0,0,1,1.881-13.377,9.551,9.551,0,0,1,13.376,1.881Z" fill="url(#linear-gradient)"/>
    </clipPath>
    <clipPath id="clip-path-29">
      <path id="path472" d="M958.276-977.215a9.552,9.552,0,0,1-1.88,13.377,9.551,9.551,0,0,1-13.377-1.881,9.551,9.551,0,0,1,1.881-13.376,9.549,9.549,0,0,1,13.376,1.88Z" fill="url(#linear-gradient)"/>
    </clipPath>
    <clipPath id="clip-path-30">
      <path id="path488" d="M941.324-986.686a9.551,9.551,0,0,1-1.88,13.376,9.552,9.552,0,0,1-13.377-1.88,9.553,9.553,0,0,1,1.881-13.377,9.551,9.551,0,0,1,13.376,1.881Z" fill="url(#linear-gradient)"/>
    </clipPath>
    <clipPath id="clip-path-31">
      <path id="path504" d="M945.824-1004.75a9.553,9.553,0,0,1-1.88,13.377,9.553,9.553,0,0,1-13.377-1.88,9.554,9.554,0,0,1,1.88-13.379A9.554,9.554,0,0,1,945.824-1004.75Z" fill="url(#linear-gradient)"/>
    </clipPath>
    <clipPath id="clip-path-32">
      <path id="path520" d="M955.8-1002.292a6.491,6.491,0,0,1-1.277,9.088,6.491,6.491,0,0,1-9.088-1.277,6.491,6.491,0,0,1,1.277-9.088A6.491,6.491,0,0,1,955.8-1002.292Z" fill="url(#linear-gradient)"/>
    </clipPath>
    <clipPath id="clip-path-33">
      <path id="path536" d="M979.032-977.122a6.486,6.486,0,0,1-1.277,9.087,6.487,6.487,0,0,1-9.087-1.277,6.488,6.488,0,0,1,1.277-9.087A6.487,6.487,0,0,1,979.032-977.122Z" fill="url(#linear-gradient)"/>
    </clipPath>
    <clipPath id="clip-path-34">
      <path id="path552" d="M1008.988-948.15a6.49,6.49,0,0,1-1.277,9.088,6.488,6.488,0,0,1-9.087-1.279,6.488,6.488,0,0,1,1.277-9.087,6.488,6.488,0,0,1,9.087,1.277Z" fill="url(#linear-gradient)"/>
    </clipPath>
    <clipPath id="clip-path-35">
      <path id="path568" d="M1001.77-968.512a6.488,6.488,0,0,1-1.277,9.087,6.487,6.487,0,0,1-9.087-1.277,6.487,6.487,0,0,1,1.277-9.087A6.487,6.487,0,0,1,1001.77-968.512Z" fill="url(#linear-gradient)"/>
    </clipPath>
    <clipPath id="clip-path-36">
      <path id="path584" d="M924.7-1001.063a9.551,9.551,0,0,1-1.881,13.376,9.549,9.549,0,0,1-13.376-1.88,9.55,9.55,0,0,1,1.88-13.376,9.551,9.551,0,0,1,13.377,1.88Z" fill="url(#linear-gradient)"/>
    </clipPath>
    <clipPath id="clip-path-37">
      <path id="path600" d="M932.211-1016.7a9.554,9.554,0,0,1-1.88,13.379,9.552,9.552,0,0,1-13.377-1.881,9.552,9.552,0,0,1,1.88-13.377A9.555,9.555,0,0,1,932.211-1016.7Z" fill="url(#linear-gradient)"/>
    </clipPath>
    <clipPath id="clip-path-38">
      <path id="path616" d="M691.3-624.368a21.069,21.069,0,0,1,.379-29.793,21.067,21.067,0,0,1,29.792.379,21.067,21.067,0,0,1-.379,29.792,21.068,21.068,0,0,1-29.792-.377Z" fill="url(#linear-gradient)"/>
    </clipPath>
    <clipPath id="clip-path-39">
      <path id="path632" d="M651.456-640.353a22.38,22.38,0,0,1,.4-31.648,22.38,22.38,0,0,1,31.647.4,22.38,22.38,0,0,1-.4,31.648A22.38,22.38,0,0,1,651.456-640.353Z" fill="url(#linear-gradient)"/>
    </clipPath>
    <clipPath id="clip-path-40">
      <path id="path648" d="M682.724-661.466a22.379,22.379,0,0,1,.4-31.647,22.377,22.377,0,0,1,31.647.4,22.379,22.379,0,0,1-.4,31.647A22.379,22.379,0,0,1,682.724-661.466Z" fill="url(#linear-gradient)"/>
    </clipPath>
    <clipPath id="clip-path-41">
      <path id="path664" d="M638.974-676.16a22.38,22.38,0,0,1,.4-31.647,22.381,22.381,0,0,1,31.648.4,22.383,22.383,0,0,1-.4,31.648,22.38,22.38,0,0,1-31.648-.4Z" fill="url(#linear-gradient)"/>
    </clipPath>
    <clipPath id="clip-path-42">
      <path id="path680" d="M624.08-645.04a22.382,22.382,0,0,1,.4-31.648,22.382,22.382,0,0,1,31.649.4,22.38,22.38,0,0,1-.4,31.647A22.38,22.38,0,0,1,624.08-645.04Z" fill="url(#linear-gradient)"/>
    </clipPath>
    <clipPath id="clip-path-43">
      <path id="path696" d="M629.757-703.333a22.382,22.382,0,0,1,.4-31.648,22.38,22.38,0,0,1,31.647.4,22.381,22.381,0,0,1-.4,31.648A22.383,22.383,0,0,1,629.757-703.333Z" fill="url(#linear-gradient)"/>
    </clipPath>
    <clipPath id="clip-path-44">
      <path id="path712" d="M596.938-681.706a16.215,16.215,0,0,1,.292-22.932,16.216,16.216,0,0,1,22.932.291,16.216,16.216,0,0,1-.291,22.932A16.217,16.217,0,0,1,596.938-681.706Z" fill="url(#linear-gradient)"/>
    </clipPath>
    <clipPath id="clip-path-45">
      <path id="path728" d="M603.063-668.106a10.745,10.745,0,0,1,10.881-10.608,10.745,10.745,0,0,1,10.609,10.881,10.748,10.748,0,0,1-10.881,10.609,10.747,10.747,0,0,1-10.609-10.883Z" fill="url(#linear-gradient)"/>
    </clipPath>
    <clipPath id="clip-path-46">
      <path id="path744" d="M592.852-651.91a5.852,5.852,0,0,1,.1-8.279,5.855,5.855,0,0,1,8.28.105,5.856,5.856,0,0,1-.105,8.279A5.856,5.856,0,0,1,592.852-651.91Z" fill="url(#linear-gradient)"/>
    </clipPath>
    <clipPath id="clip-path-47">
      <path id="path760" d="M578.236-637.662a5.853,5.853,0,0,1,.105-8.279,5.855,5.855,0,0,1,8.279.107,5.856,5.856,0,0,1-.105,8.279A5.855,5.855,0,0,1,578.236-637.662Z" fill="url(#linear-gradient)"/>
    </clipPath>
    <clipPath id="clip-path-48">
      <path id="path776" d="M626.594-607.146a4.315,4.315,0,0,1,.079-6.1,4.312,4.312,0,0,1,6.1.079,4.312,4.312,0,0,1-.077,6.1A4.314,4.314,0,0,1,626.594-607.146Z" fill="url(#linear-gradient)"/>
    </clipPath>
    <clipPath id="clip-path-49">
      <path id="path792" d="M631.54-604.041a2.326,2.326,0,0,1,.041-3.288,2.325,2.325,0,0,1,3.288.043,2.324,2.324,0,0,1-.041,3.287,2.324,2.324,0,0,1-3.288-.041Z" fill="url(#linear-gradient)"/>
    </clipPath>
    <clipPath id="clip-path-50">
      <path id="path808" d="M549.944-623.677a1.643,1.643,0,0,1,.029-2.324,1.645,1.645,0,0,1,2.327.029,1.645,1.645,0,0,1-.031,2.324,1.643,1.643,0,0,1-2.325-.029Z" fill="url(#linear-gradient)"/>
    </clipPath>
    <clipPath id="clip-path-51">
      <path id="path824" d="M616.323-580.807a2.324,2.324,0,0,1,.041-3.288,2.325,2.325,0,0,1,3.288.041,2.326,2.326,0,0,1-.041,3.288A2.325,2.325,0,0,1,616.323-580.807Z" fill="url(#linear-gradient)"/>
    </clipPath>
    <clipPath id="clip-path-52">
      <path id="path840" d="M644.873-597.427a2.326,2.326,0,0,1,.041-3.288,2.327,2.327,0,0,1,3.289.041,2.326,2.326,0,0,1-.041,3.288A2.325,2.325,0,0,1,644.873-597.427Z" fill="url(#linear-gradient)"/>
    </clipPath>
    <clipPath id="clip-path-53">
      <path id="path856" d="M627.05-685.06a2.326,2.326,0,0,1,.041-3.288,2.325,2.325,0,0,1,3.288.043,2.322,2.322,0,0,1-.041,3.287,2.324,2.324,0,0,1-3.288-.041Z" fill="url(#linear-gradient)"/>
    </clipPath>
    <clipPath id="clip-path-54">
      <path id="path872" d="M649.948-595.553a4.313,4.313,0,0,1,.077-6.1,4.313,4.313,0,0,1,6.1.077,4.313,4.313,0,0,1-.077,6.1A4.314,4.314,0,0,1,649.948-595.553Z" fill="url(#linear-gradient)"/>
    </clipPath>
    <clipPath id="clip-path-55">
      <path id="path888" d="M627.617-585.795a4.315,4.315,0,0,1,.077-6.1,4.316,4.316,0,0,1,6.1.077,4.314,4.314,0,0,1-.079,6.1A4.312,4.312,0,0,1,627.617-585.795Z" fill="url(#linear-gradient)"/>
    </clipPath>
    <clipPath id="clip-path-56">
      <path id="path904" d="M620.005-619.2a3.389,3.389,0,0,1,.06-4.793,3.389,3.389,0,0,1,4.793.061,3.392,3.392,0,0,1-.06,4.793A3.39,3.39,0,0,1,620.005-619.2Z" fill="url(#linear-gradient)"/>
    </clipPath>
    <clipPath id="clip-path-57">
      <path id="path920" d="M580.363-621.9a3.39,3.39,0,0,1,.06-4.793,3.39,3.39,0,0,1,4.793.06,3.389,3.389,0,0,1-.06,4.793A3.39,3.39,0,0,1,580.363-621.9Z" fill="url(#linear-gradient)"/>
    </clipPath>
    <clipPath id="clip-path-58">
      <path id="path936" d="M609.116-622.761a2.812,2.812,0,0,1,.051-3.976,2.812,2.812,0,0,1,3.976.049,2.811,2.811,0,0,1-.051,3.977,2.81,2.81,0,0,1-3.976-.051Z" fill="url(#linear-gradient)"/>
    </clipPath>
    <clipPath id="clip-path-59">
      <path id="path952" d="M560.979-636.049a3.389,3.389,0,0,1,.06-4.792,3.39,3.39,0,0,1,4.793.06,3.39,3.39,0,0,1-.06,4.793,3.389,3.389,0,0,1-4.793-.061Z" fill="url(#linear-gradient)"/>
    </clipPath>
    <clipPath id="clip-path-60">
      <path id="path968" d="M626.195-694.954a3.389,3.389,0,0,1,.061-4.793,3.39,3.39,0,0,1,4.793.06,3.39,3.39,0,0,1-.061,4.793A3.389,3.389,0,0,1,626.195-694.954Z" fill="url(#linear-gradient)"/>
    </clipPath>
    <clipPath id="clip-path-61">
      <path id="path984" d="M607.832-644.93A9.553,9.553,0,0,1,608-658.438a9.553,9.553,0,0,1,13.508.172,9.552,9.552,0,0,1-.172,13.507A9.553,9.553,0,0,1,607.832-644.93Z" fill="url(#linear-gradient)"/>
    </clipPath>
    <clipPath id="clip-path-62">
      <path id="path1000" d="M673.826-626.729A9.551,9.551,0,0,1,674-640.237a9.554,9.554,0,0,1,13.508.172,9.553,9.553,0,0,1-.171,13.508A9.553,9.553,0,0,1,673.826-626.729Z" fill="url(#linear-gradient)"/>
    </clipPath>
    <clipPath id="clip-path-63">
      <path id="path1016" d="M640.693-575.031a9.551,9.551,0,0,1,.171-13.507,9.551,9.551,0,0,1,13.508.171,9.553,9.553,0,0,1-.172,13.508A9.551,9.551,0,0,1,640.693-575.031Z" fill="url(#linear-gradient)"/>
    </clipPath>
    <clipPath id="clip-path-64">
      <path id="path1032" d="M629.394-622.815a9.553,9.553,0,0,1,.172-13.508,9.554,9.554,0,0,1,13.508.172,9.554,9.554,0,0,1-.172,13.508A9.553,9.553,0,0,1,629.394-622.815Z" fill="url(#linear-gradient)"/>
    </clipPath>
    <clipPath id="clip-path-65">
      <path id="path1048" d="M635.82-632.36a9.553,9.553,0,0,1,.172-13.508,9.553,9.553,0,0,1,13.508.172,9.551,9.551,0,0,1-.172,13.507A9.551,9.551,0,0,1,635.82-632.36Z" fill="url(#linear-gradient)"/>
    </clipPath>
    <clipPath id="clip-path-66">
      <path id="path1064" d="M653.836-625.112a9.552,9.552,0,0,1,.171-13.508,9.553,9.553,0,0,1,13.508.172,9.551,9.551,0,0,1-.171,13.507A9.551,9.551,0,0,1,653.836-625.112Z" fill="url(#linear-gradient)"/>
    </clipPath>
    <clipPath id="clip-path-67">
      <path id="path1080" d="M651.66-606.624a9.551,9.551,0,0,1,.171-13.508,9.553,9.553,0,0,1,13.508.172,9.553,9.553,0,0,1-.172,13.508A9.552,9.552,0,0,1,651.66-606.624Z" fill="url(#linear-gradient)"/>
    </clipPath>
    <clipPath id="clip-path-68">
      <path id="path1096" d="M641.452-607.8a6.489,6.489,0,0,1,.117-9.176,6.49,6.49,0,0,1,9.176.116,6.49,6.49,0,0,1-.117,9.176A6.49,6.49,0,0,1,641.452-607.8Z" fill="url(#linear-gradient)"/>
    </clipPath>
    <clipPath id="clip-path-69">
      <path id="path1112" d="M615.22-629.824a6.489,6.489,0,0,1,.116-9.176,6.49,6.49,0,0,1,9.176.116,6.487,6.487,0,0,1-.116,9.176A6.49,6.49,0,0,1,615.22-629.824Z" fill="url(#linear-gradient)"/>
    </clipPath>
    <clipPath id="clip-path-70">
      <path id="path1128" d="M581.837-654.77a6.486,6.486,0,0,1,.116-9.175,6.488,6.488,0,0,1,9.176.116,6.49,6.49,0,0,1-.116,9.176A6.489,6.489,0,0,1,581.837-654.77Z" fill="url(#linear-gradient)"/>
    </clipPath>
    <clipPath id="clip-path-71">
      <path id="path1144" d="M591.576-635.485a6.49,6.49,0,0,1,.116-9.176,6.49,6.49,0,0,1,9.176.116,6.49,6.49,0,0,1-.117,9.177,6.487,6.487,0,0,1-9.175-.117Z" fill="url(#linear-gradient)"/>
    </clipPath>
    <clipPath id="clip-path-72">
      <path id="path1160" d="M672.142-612.954a9.553,9.553,0,0,1,.172-13.508,9.551,9.551,0,0,1,13.507.172,9.55,9.55,0,0,1-.171,13.507A9.553,9.553,0,0,1,672.142-612.954Z" fill="url(#linear-gradient)"/>
    </clipPath>
    <clipPath id="clip-path-73">
      <path id="path1176" d="M666.677-596.492A9.551,9.551,0,0,1,666.848-610a9.553,9.553,0,0,1,13.508.172,9.553,9.553,0,0,1-.171,13.508A9.554,9.554,0,0,1,666.677-596.492Z" fill="url(#linear-gradient)"/>
    </clipPath>
  </defs>
  <g id="g10" transform="translate(-549.477 1038.504)">
    <g id="g20">
      <g id="g22" clip-path="url(#clip-path)">
        <path id="path34" d="M965.828-635.953H632.642V-969.14H965.828v333.187"/>
      </g>
    </g>
    <g id="g36">
      <g id="g38" clip-path="url(#clip-path-2)">
        <path id="path50" d="M904.256-992.167a21.069,21.069,0,0,1-4.148,29.505A21.07,21.07,0,0,1,870.6-966.81a21.069,21.069,0,0,1,4.148-29.505,21.068,21.068,0,0,1,29.505,4.148" fill="url(#linear-gradient)"/>
      </g>
    </g>
    <g id="g52">
      <g id="g54" clip-path="url(#clip-path-3)">
        <path id="path66" d="M941.755-971.266a22.38,22.38,0,0,1-4.405,31.341,22.379,22.379,0,0,1-31.341-4.405,22.378,22.378,0,0,1,4.405-31.341,22.378,22.378,0,0,1,31.341,4.405" fill="url(#linear-gradient)"/>
      </g>
    </g>
    <g id="g68">
      <g id="g70" clip-path="url(#clip-path-4)">
        <path id="path82" d="M908.066-954.282a22.381,22.381,0,0,1-4.407,31.341,22.379,22.379,0,0,1-31.341-4.405,22.381,22.381,0,0,1,4.405-31.343,22.381,22.381,0,0,1,31.343,4.407" fill="url(#linear-gradient)"/>
      </g>
    </g>
    <g id="g84">
      <g id="g86" clip-path="url(#clip-path-5)">
        <path id="path98" d="M949.6-934.167a22.378,22.378,0,0,1-4.405,31.341,22.38,22.38,0,0,1-31.341-4.407,22.379,22.379,0,0,1,4.405-31.341,22.378,22.378,0,0,1,31.341,4.407" fill="url(#linear-gradient)"/>
      </g>
    </g>
    <g id="g100">
      <g id="g102" clip-path="url(#clip-path-6)">
        <path id="path114" d="M968.318-963.151a22.38,22.38,0,0,1-4.405,31.343,22.379,22.379,0,0,1-31.341-4.407,22.378,22.378,0,0,1,4.405-31.341,22.379,22.379,0,0,1,31.341,4.405" fill="url(#linear-gradient)"/>
      </g>
    </g>
    <g id="g116">
      <g id="g118" clip-path="url(#clip-path-7)">
        <path id="path130" d="M955.3-906.046A22.381,22.381,0,0,1,950.9-874.7a22.38,22.38,0,0,1-31.341-4.407,22.379,22.379,0,0,1,4.405-31.341,22.381,22.381,0,0,1,31.341,4.405" fill="url(#linear-gradient)"/>
      </g>
    </g>
    <g id="g132">
      <g id="g134" clip-path="url(#clip-path-8)">
        <path id="path146" d="M990.6-923.343a16.217,16.217,0,0,1-3.192,22.712,16.218,16.218,0,0,1-22.712-3.193,16.217,16.217,0,0,1,3.193-22.711,16.215,16.215,0,0,1,22.711,3.192" fill="url(#linear-gradient)"/>
      </g>
    </g>
    <g id="g148">
      <g id="g150" clip-path="url(#clip-path-9)">
        <path id="path162" d="M986.246-937.61a10.748,10.748,0,0,1-12.139,9.147,10.746,10.746,0,0,1-9.144-12.137,10.745,10.745,0,0,1,12.136-9.147,10.748,10.748,0,0,1,9.147,12.137" fill="url(#linear-gradient)"/>
      </g>
    </g>
    <g id="g164">
      <g id="g166" clip-path="url(#clip-path-10)">
        <path id="path178" d="M998.424-952.38a5.854,5.854,0,0,1-1.152,8.2,5.856,5.856,0,0,1-8.2-1.152,5.856,5.856,0,0,1,1.152-8.2,5.854,5.854,0,0,1,8.2,1.153" fill="url(#linear-gradient)"/>
      </g>
    </g>
    <g id="g180">
      <g id="g182" clip-path="url(#clip-path-11)">
        <path id="path194" d="M1014.727-964.664a5.855,5.855,0,0,1-1.152,8.2,5.857,5.857,0,0,1-8.2-1.152,5.855,5.855,0,0,1,1.152-8.2,5.855,5.855,0,0,1,8.2,1.152" fill="url(#linear-gradient)"/>
      </g>
    </g>
    <g id="g196">
      <g id="g198" clip-path="url(#clip-path-12)">
        <path id="path210" d="M970.622-1001.058a4.315,4.315,0,0,1-.851,6.043,4.313,4.313,0,0,1-6.04-.849,4.314,4.314,0,0,1,.849-6.041,4.316,4.316,0,0,1,6.041.848" fill="url(#linear-gradient)"/>
      </g>
    </g>
    <g id="g212">
      <g id="g214" clip-path="url(#clip-path-13)">
        <path id="path226" d="M966.108-1004.764a2.325,2.325,0,0,1-.457,3.256,2.325,2.325,0,0,1-3.256-.457,2.325,2.325,0,0,1,.459-3.256,2.323,2.323,0,0,1,3.255.457" fill="url(#linear-gradient)"/>
      </g>
    </g>
    <g id="g228">
      <g id="g230" clip-path="url(#clip-path-14)">
        <path id="path242" d="M1044.561-974.954a1.644,1.644,0,0,1-.324,2.3,1.644,1.644,0,0,1-2.3-.324,1.644,1.644,0,0,1,.324-2.3,1.644,1.644,0,0,1,2.3.324" fill="url(#linear-gradient)"/>
      </g>
    </g>
    <g id="g244">
      <g id="g246" clip-path="url(#clip-path-15)">
        <path id="path258" d="M984.146-1025.884a2.325,2.325,0,0,1-.456,3.256,2.326,2.326,0,0,1-3.257-.457,2.324,2.324,0,0,1,.457-3.256,2.324,2.324,0,0,1,3.256.457" fill="url(#linear-gradient)"/>
      </g>
    </g>
    <g id="g260">
      <g id="g262" clip-path="url(#clip-path-16)">
        <path id="path274" d="M953.72-1013.014a2.325,2.325,0,0,1-.459,3.256,2.325,2.325,0,0,1-3.256-.457,2.325,2.325,0,0,1,.459-3.256,2.325,2.325,0,0,1,3.256.457" fill="url(#linear-gradient)"/>
      </g>
    </g>
    <g id="g276">
      <g id="g278" clip-path="url(#clip-path-17)">
        <path id="path290" d="M960.3-923.83a2.325,2.325,0,0,1-.457,3.256,2.326,2.326,0,0,1-3.257-.457,2.326,2.326,0,0,1,.457-3.256,2.327,2.327,0,0,1,3.257.457" fill="url(#linear-gradient)"/>
      </g>
    </g>
    <g id="g292">
      <g id="g294" clip-path="url(#clip-path-18)">
        <path id="path306" d="M948.924-1015.515a4.313,4.313,0,0,1-.849,6.041,4.312,4.312,0,0,1-6.041-.849,4.315,4.315,0,0,1,.849-6.041,4.315,4.315,0,0,1,6.041.849" fill="url(#linear-gradient)"/>
      </g>
    </g>
    <g id="g308">
      <g id="g310" clip-path="url(#clip-path-19)">
        <path id="path322" d="M972.31-1022.367a4.314,4.314,0,0,1-.848,6.041,4.316,4.316,0,0,1-6.043-.849,4.313,4.313,0,0,1,.851-6.041,4.31,4.31,0,0,1,6.04.849" fill="url(#linear-gradient)"/>
      </g>
    </g>
    <g id="g324">
      <g id="g326" clip-path="url(#clip-path-20)">
        <path id="path338" d="M975.632-988.263a3.39,3.39,0,0,1-.668,4.747,3.39,3.39,0,0,1-4.747-.667,3.389,3.389,0,0,1,.667-4.747,3.391,3.391,0,0,1,4.748.667" fill="url(#linear-gradient)"/>
      </g>
    </g>
    <g id="g340">
      <g id="g342" clip-path="url(#clip-path-21)">
        <path id="path354" d="M1014.612-980.564a3.389,3.389,0,0,1-.667,4.747,3.391,3.391,0,0,1-4.748-.667,3.39,3.39,0,0,1,.668-4.747,3.389,3.389,0,0,1,4.747.667" fill="url(#linear-gradient)"/>
      </g>
    </g>
    <g id="g356">
      <g id="g358" clip-path="url(#clip-path-22)">
        <path id="path370" d="M985.982-983.356a2.814,2.814,0,0,1-.553,3.94,2.813,2.813,0,0,1-3.939-.555,2.813,2.813,0,0,1,.553-3.939,2.813,2.813,0,0,1,3.939.553" fill="url(#linear-gradient)"/>
      </g>
    </g>
    <g id="g372">
      <g id="g374" clip-path="url(#clip-path-23)">
        <path id="path386" d="M1032.049-964.079a3.388,3.388,0,0,1-.668,4.747,3.387,3.387,0,0,1-4.745-.668,3.388,3.388,0,0,1,.667-4.747,3.391,3.391,0,0,1,4.747.668" fill="url(#linear-gradient)"/>
      </g>
    </g>
    <g id="g388">
      <g id="g390" clip-path="url(#clip-path-24)">
        <path id="path402" d="M959.9-913.906a3.389,3.389,0,0,1-.667,4.747,3.391,3.391,0,0,1-4.748-.667,3.39,3.39,0,0,1,.668-4.747,3.389,3.389,0,0,1,4.747.667" fill="url(#linear-gradient)"/>
      </g>
    </g>
    <g id="g404">
      <g id="g406" clip-path="url(#clip-path-25)">
        <path id="path418" d="M984.448-961.2a9.552,9.552,0,0,1-1.881,13.377,9.55,9.55,0,0,1-13.376-1.88,9.552,9.552,0,0,1,1.88-13.377,9.551,9.551,0,0,1,13.377,1.88" fill="url(#linear-gradient)"/>
      </g>
    </g>
    <g id="g420">
      <g id="g422" clip-path="url(#clip-path-26)">
        <path id="path434" d="M921.291-987.614a9.552,9.552,0,0,1-1.881,13.377,9.552,9.552,0,0,1-13.377-1.88,9.552,9.552,0,0,1,1.881-13.377,9.554,9.554,0,0,1,13.377,1.88" fill="url(#linear-gradient)"/>
      </g>
    </g>
    <g id="g436">
      <g id="g438" clip-path="url(#clip-path-27)">
        <path id="path450" d="M960.7-1034.7a9.552,9.552,0,0,1-1.881,13.377,9.552,9.552,0,0,1-13.376-1.88,9.554,9.554,0,0,1,1.88-13.379A9.554,9.554,0,0,1,960.7-1034.7" fill="url(#linear-gradient)"/>
      </g>
    </g>
    <g id="g452">
      <g id="g454" clip-path="url(#clip-path-28)">
        <path id="path466" d="M965.859-985.87a9.552,9.552,0,0,1-1.88,13.377,9.552,9.552,0,0,1-13.377-1.881,9.552,9.552,0,0,1,1.881-13.377,9.551,9.551,0,0,1,13.376,1.881" fill="url(#linear-gradient)"/>
      </g>
    </g>
    <g id="g468">
      <g id="g470" clip-path="url(#clip-path-29)">
        <path id="path482" d="M958.276-977.215a9.552,9.552,0,0,1-1.88,13.377,9.551,9.551,0,0,1-13.377-1.881,9.551,9.551,0,0,1,1.881-13.376,9.549,9.549,0,0,1,13.376,1.88" fill="url(#linear-gradient)"/>
      </g>
    </g>
    <g id="g484">
      <g id="g486" clip-path="url(#clip-path-30)">
        <path id="path498" d="M941.324-986.686a9.551,9.551,0,0,1-1.88,13.376,9.552,9.552,0,0,1-13.377-1.88,9.553,9.553,0,0,1,1.881-13.377,9.551,9.551,0,0,1,13.376,1.881" fill="url(#linear-gradient)"/>
      </g>
    </g>
    <g id="g500">
      <g id="g502" clip-path="url(#clip-path-31)">
        <path id="path514" d="M945.824-1004.75a9.553,9.553,0,0,1-1.88,13.377,9.553,9.553,0,0,1-13.377-1.88,9.554,9.554,0,0,1,1.88-13.379,9.554,9.554,0,0,1,13.377,1.881" fill="url(#linear-gradient)"/>
      </g>
    </g>
    <g id="g516">
      <g id="g518" clip-path="url(#clip-path-32)">
        <path id="path530" d="M955.8-1002.292a6.491,6.491,0,0,1-1.277,9.088,6.491,6.491,0,0,1-9.088-1.277,6.491,6.491,0,0,1,1.277-9.088,6.491,6.491,0,0,1,9.088,1.277" fill="url(#linear-gradient)"/>
      </g>
    </g>
    <g id="g532">
      <g id="g534" clip-path="url(#clip-path-33)">
        <path id="path546" d="M979.032-977.122a6.486,6.486,0,0,1-1.277,9.087,6.487,6.487,0,0,1-9.087-1.277,6.488,6.488,0,0,1,1.277-9.087,6.487,6.487,0,0,1,9.087,1.277" fill="url(#linear-gradient)"/>
      </g>
    </g>
    <g id="g548">
      <g id="g550" clip-path="url(#clip-path-34)">
        <path id="path562" d="M1008.988-948.15a6.49,6.49,0,0,1-1.277,9.088,6.488,6.488,0,0,1-9.087-1.279,6.488,6.488,0,0,1,1.277-9.087,6.488,6.488,0,0,1,9.087,1.277" fill="url(#linear-gradient)"/>
      </g>
    </g>
    <g id="g564">
      <g id="g566" clip-path="url(#clip-path-35)">
        <path id="path578" d="M1001.77-968.512a6.488,6.488,0,0,1-1.277,9.087,6.487,6.487,0,0,1-9.087-1.277,6.487,6.487,0,0,1,1.277-9.087,6.487,6.487,0,0,1,9.087,1.277" fill="url(#linear-gradient)"/>
      </g>
    </g>
    <g id="g580">
      <g id="g582" clip-path="url(#clip-path-36)">
        <path id="path594" d="M924.7-1001.063a9.551,9.551,0,0,1-1.881,13.376,9.549,9.549,0,0,1-13.376-1.88,9.55,9.55,0,0,1,1.88-13.376,9.551,9.551,0,0,1,13.377,1.88" fill="url(#linear-gradient)"/>
      </g>
    </g>
    <g id="g596">
      <g id="g598" clip-path="url(#clip-path-37)">
        <path id="path610" d="M932.211-1016.7a9.554,9.554,0,0,1-1.88,13.379,9.552,9.552,0,0,1-13.377-1.881,9.552,9.552,0,0,1,1.88-13.377,9.555,9.555,0,0,1,13.377,1.88" fill="url(#linear-gradient)"/>
      </g>
    </g>
    <g id="g612">
      <g id="g614" clip-path="url(#clip-path-38)">
        <path id="path626" d="M691.3-624.368a21.069,21.069,0,0,1,.379-29.793,21.067,21.067,0,0,1,29.792.379,21.067,21.067,0,0,1-.379,29.792,21.068,21.068,0,0,1-29.792-.377" fill="url(#linear-gradient)"/>
      </g>
    </g>
    <g id="g628">
      <g id="g630" clip-path="url(#clip-path-39)">
        <path id="path642" d="M651.456-640.353a22.38,22.38,0,0,1,.4-31.648,22.38,22.38,0,0,1,31.647.4,22.38,22.38,0,0,1-.4,31.648,22.38,22.38,0,0,1-31.647-.4" fill="url(#linear-gradient)"/>
      </g>
    </g>
    <g id="g644">
      <g id="g646" clip-path="url(#clip-path-40)">
        <path id="path658" d="M682.724-661.466a22.379,22.379,0,0,1,.4-31.647,22.377,22.377,0,0,1,31.647.4,22.379,22.379,0,0,1-.4,31.647,22.379,22.379,0,0,1-31.647-.4" fill="url(#linear-gradient)"/>
      </g>
    </g>
    <g id="g660">
      <g id="g662" clip-path="url(#clip-path-41)">
        <path id="path674" d="M638.974-676.16a22.38,22.38,0,0,1,.4-31.647,22.381,22.381,0,0,1,31.648.4,22.383,22.383,0,0,1-.4,31.648,22.38,22.38,0,0,1-31.648-.4" fill="url(#linear-gradient)"/>
      </g>
    </g>
    <g id="g676">
      <g id="g678" clip-path="url(#clip-path-42)">
        <path id="path690" d="M624.08-645.04a22.382,22.382,0,0,1,.4-31.648,22.382,22.382,0,0,1,31.649.4,22.38,22.38,0,0,1-.4,31.647,22.38,22.38,0,0,1-31.647-.4" fill="url(#linear-gradient)"/>
      </g>
    </g>
    <g id="g692">
      <g id="g694" clip-path="url(#clip-path-43)">
        <path id="path706" d="M629.757-703.333a22.382,22.382,0,0,1,.4-31.648,22.38,22.38,0,0,1,31.647.4,22.381,22.381,0,0,1-.4,31.648,22.383,22.383,0,0,1-31.649-.4" fill="url(#linear-gradient)"/>
      </g>
    </g>
    <g id="g708">
      <g id="g710" clip-path="url(#clip-path-44)">
        <path id="path722" d="M596.938-681.706a16.215,16.215,0,0,1,.292-22.932,16.216,16.216,0,0,1,22.932.291,16.216,16.216,0,0,1-.291,22.932,16.217,16.217,0,0,1-22.933-.291" fill="url(#linear-gradient)"/>
      </g>
    </g>
    <g id="g724">
      <g id="g726" clip-path="url(#clip-path-45)">
        <path id="path738" d="M603.063-668.106a10.745,10.745,0,0,1,10.881-10.608,10.745,10.745,0,0,1,10.609,10.881,10.748,10.748,0,0,1-10.881,10.609,10.747,10.747,0,0,1-10.609-10.883" fill="url(#linear-gradient)"/>
      </g>
    </g>
    <g id="g740">
      <g id="g742" clip-path="url(#clip-path-46)">
        <path id="path754" d="M592.852-651.91a5.852,5.852,0,0,1,.1-8.279,5.855,5.855,0,0,1,8.28.105,5.856,5.856,0,0,1-.105,8.279,5.856,5.856,0,0,1-8.279-.105" fill="url(#linear-gradient)"/>
      </g>
    </g>
    <g id="g756">
      <g id="g758" clip-path="url(#clip-path-47)">
        <path id="path770" d="M578.236-637.662a5.853,5.853,0,0,1,.105-8.279,5.855,5.855,0,0,1,8.279.107,5.856,5.856,0,0,1-.105,8.279,5.855,5.855,0,0,1-8.279-.107" fill="url(#linear-gradient)"/>
      </g>
    </g>
    <g id="g772">
      <g id="g774" clip-path="url(#clip-path-48)">
        <path id="path786" d="M626.594-607.146a4.315,4.315,0,0,1,.079-6.1,4.312,4.312,0,0,1,6.1.079,4.312,4.312,0,0,1-.077,6.1,4.314,4.314,0,0,1-6.1-.077" fill="url(#linear-gradient)"/>
      </g>
    </g>
    <g id="g788">
      <g id="g790" clip-path="url(#clip-path-49)">
        <path id="path802" d="M631.54-604.041a2.326,2.326,0,0,1,.041-3.288,2.325,2.325,0,0,1,3.288.043,2.324,2.324,0,0,1-.041,3.287,2.324,2.324,0,0,1-3.288-.041" fill="url(#linear-gradient)"/>
      </g>
    </g>
    <g id="g804">
      <g id="g806" clip-path="url(#clip-path-50)">
        <path id="path818" d="M549.944-623.677a1.643,1.643,0,0,1,.029-2.324,1.645,1.645,0,0,1,2.327.029,1.645,1.645,0,0,1-.031,2.324,1.643,1.643,0,0,1-2.325-.029" fill="url(#linear-gradient)"/>
      </g>
    </g>
    <g id="g820">
      <g id="g822" clip-path="url(#clip-path-51)">
        <path id="path834" d="M616.323-580.807a2.324,2.324,0,0,1,.041-3.288,2.325,2.325,0,0,1,3.288.041,2.326,2.326,0,0,1-.041,3.288,2.325,2.325,0,0,1-3.288-.041" fill="url(#linear-gradient)"/>
      </g>
    </g>
    <g id="g836">
      <g id="g838" clip-path="url(#clip-path-52)">
        <path id="path850" d="M644.873-597.427a2.326,2.326,0,0,1,.041-3.288,2.327,2.327,0,0,1,3.289.041,2.326,2.326,0,0,1-.041,3.288,2.325,2.325,0,0,1-3.289-.041" fill="url(#linear-gradient)"/>
      </g>
    </g>
    <g id="g852">
      <g id="g854" clip-path="url(#clip-path-53)">
        <path id="path866" d="M627.05-685.06a2.326,2.326,0,0,1,.041-3.288,2.325,2.325,0,0,1,3.288.043,2.322,2.322,0,0,1-.041,3.287,2.324,2.324,0,0,1-3.288-.041" fill="url(#linear-gradient)"/>
      </g>
    </g>
    <g id="g868">
      <g id="g870" clip-path="url(#clip-path-54)">
        <path id="path882" d="M649.948-595.553a4.313,4.313,0,0,1,.077-6.1,4.313,4.313,0,0,1,6.1.077,4.313,4.313,0,0,1-.077,6.1,4.314,4.314,0,0,1-6.1-.077" fill="url(#linear-gradient)"/>
      </g>
    </g>
    <g id="g884">
      <g id="g886" clip-path="url(#clip-path-55)">
        <path id="path898" d="M627.617-585.795a4.315,4.315,0,0,1,.077-6.1,4.316,4.316,0,0,1,6.1.077,4.314,4.314,0,0,1-.079,6.1,4.312,4.312,0,0,1-6.1-.077" fill="url(#linear-gradient)"/>
      </g>
    </g>
    <g id="g900">
      <g id="g902" clip-path="url(#clip-path-56)">
        <path id="path914" d="M620.005-619.2a3.389,3.389,0,0,1,.06-4.793,3.389,3.389,0,0,1,4.793.061,3.392,3.392,0,0,1-.06,4.793,3.39,3.39,0,0,1-4.793-.061" fill="url(#linear-gradient)"/>
      </g>
    </g>
    <g id="g916">
      <g id="g918" clip-path="url(#clip-path-57)">
        <path id="path930" d="M580.363-621.9a3.39,3.39,0,0,1,.06-4.793,3.39,3.39,0,0,1,4.793.06,3.389,3.389,0,0,1-.06,4.793,3.39,3.39,0,0,1-4.793-.06" fill="url(#linear-gradient)"/>
      </g>
    </g>
    <g id="g932">
      <g id="g934" clip-path="url(#clip-path-58)">
        <path id="path946" d="M609.116-622.761a2.812,2.812,0,0,1,.051-3.976,2.812,2.812,0,0,1,3.976.049,2.811,2.811,0,0,1-.051,3.977,2.81,2.81,0,0,1-3.976-.051" fill="url(#linear-gradient)"/>
      </g>
    </g>
    <g id="g948">
      <g id="g950" clip-path="url(#clip-path-59)">
        <path id="path962" d="M560.979-636.049a3.389,3.389,0,0,1,.06-4.792,3.39,3.39,0,0,1,4.793.06,3.39,3.39,0,0,1-.06,4.793,3.389,3.389,0,0,1-4.793-.061" fill="url(#linear-gradient)"/>
      </g>
    </g>
    <g id="g964">
      <g id="g966" clip-path="url(#clip-path-60)">
        <path id="path978" d="M626.195-694.954a3.389,3.389,0,0,1,.061-4.793,3.39,3.39,0,0,1,4.793.06,3.39,3.39,0,0,1-.061,4.793,3.389,3.389,0,0,1-4.793-.06" fill="url(#linear-gradient)"/>
      </g>
    </g>
    <g id="g980">
      <g id="g982" clip-path="url(#clip-path-61)">
        <path id="path994" d="M607.832-644.93A9.553,9.553,0,0,1,608-658.438a9.553,9.553,0,0,1,13.508.172,9.552,9.552,0,0,1-.172,13.507,9.553,9.553,0,0,1-13.508-.171" fill="url(#linear-gradient)"/>
      </g>
    </g>
    <g id="g996">
      <g id="g998" clip-path="url(#clip-path-62)">
        <path id="path1010" d="M673.826-626.729A9.551,9.551,0,0,1,674-640.237a9.554,9.554,0,0,1,13.508.172,9.553,9.553,0,0,1-.171,13.508,9.553,9.553,0,0,1-13.508-.172" fill="url(#linear-gradient)"/>
      </g>
    </g>
    <g id="g1012">
      <g id="g1014" clip-path="url(#clip-path-63)">
        <path id="path1026" d="M640.693-575.031a9.551,9.551,0,0,1,.171-13.507,9.551,9.551,0,0,1,13.508.171,9.553,9.553,0,0,1-.172,13.508,9.551,9.551,0,0,1-13.507-.172" fill="url(#linear-gradient)"/>
      </g>
    </g>
    <g id="g1028">
      <g id="g1030" clip-path="url(#clip-path-64)">
        <path id="path1042" d="M629.394-622.815a9.553,9.553,0,0,1,.172-13.508,9.554,9.554,0,0,1,13.508.172,9.554,9.554,0,0,1-.172,13.508,9.553,9.553,0,0,1-13.508-.172" fill="url(#linear-gradient)"/>
      </g>
    </g>
    <g id="g1044">
      <g id="g1046" clip-path="url(#clip-path-65)">
        <path id="path1058" d="M635.82-632.36a9.553,9.553,0,0,1,.172-13.508,9.553,9.553,0,0,1,13.508.172,9.551,9.551,0,0,1-.172,13.507,9.551,9.551,0,0,1-13.508-.171" fill="url(#linear-gradient)"/>
      </g>
    </g>
    <g id="g1060">
      <g id="g1062" clip-path="url(#clip-path-66)">
        <path id="path1074" d="M653.836-625.112a9.552,9.552,0,0,1,.171-13.508,9.553,9.553,0,0,1,13.508.172,9.551,9.551,0,0,1-.171,13.507,9.551,9.551,0,0,1-13.508-.171" fill="url(#linear-gradient)"/>
      </g>
    </g>
    <g id="g1076">
      <g id="g1078" clip-path="url(#clip-path-67)">
        <path id="path1090" d="M651.66-606.624a9.551,9.551,0,0,1,.171-13.508,9.553,9.553,0,0,1,13.508.172,9.553,9.553,0,0,1-.172,13.508,9.552,9.552,0,0,1-13.507-.172" fill="url(#linear-gradient)"/>
      </g>
    </g>
    <g id="g1092">
      <g id="g1094" clip-path="url(#clip-path-68)">
        <path id="path1106" d="M641.452-607.8a6.489,6.489,0,0,1,.117-9.176,6.49,6.49,0,0,1,9.176.116,6.49,6.49,0,0,1-.117,9.176,6.49,6.49,0,0,1-9.176-.116" fill="url(#linear-gradient)"/>
      </g>
    </g>
    <g id="g1108">
      <g id="g1110" clip-path="url(#clip-path-69)">
        <path id="path1122" d="M615.22-629.824a6.489,6.489,0,0,1,.116-9.176,6.49,6.49,0,0,1,9.176.116,6.487,6.487,0,0,1-.116,9.176,6.49,6.49,0,0,1-9.176-.116" fill="url(#linear-gradient)"/>
      </g>
    </g>
    <g id="g1124">
      <g id="g1126" clip-path="url(#clip-path-70)">
        <path id="path1138" d="M581.837-654.77a6.486,6.486,0,0,1,.116-9.175,6.488,6.488,0,0,1,9.176.116,6.49,6.49,0,0,1-.116,9.176,6.489,6.489,0,0,1-9.176-.117" fill="url(#linear-gradient)"/>
      </g>
    </g>
    <g id="g1140">
      <g id="g1142" clip-path="url(#clip-path-71)">
        <path id="path1154" d="M591.576-635.485a6.49,6.49,0,0,1,.116-9.176,6.49,6.49,0,0,1,9.176.116,6.49,6.49,0,0,1-.117,9.177,6.487,6.487,0,0,1-9.175-.117" fill="url(#linear-gradient)"/>
      </g>
    </g>
    <g id="g1156">
      <g id="g1158" clip-path="url(#clip-path-72)">
        <path id="path1170" d="M672.142-612.954a9.553,9.553,0,0,1,.172-13.508,9.551,9.551,0,0,1,13.507.172,9.55,9.55,0,0,1-.171,13.507,9.553,9.553,0,0,1-13.508-.171" fill="url(#linear-gradient)"/>
      </g>
    </g>
    <g id="g1172">
      <g id="g1174" clip-path="url(#clip-path-73)">
        <path id="path1186" d="M666.677-596.492A9.551,9.551,0,0,1,666.848-610a9.553,9.553,0,0,1,13.508.172,9.553,9.553,0,0,1-.171,13.508,9.554,9.554,0,0,1-13.508-.172" fill="url(#linear-gradient)"/>
      </g>
    </g>
  </g>
</svg>
