<svg xmlns="http://www.w3.org/2000/svg" width="180.667" height="192.497" viewBox="0 0 180.667 192.497">
  <g id="Groupe_1" data-name="Groupe 1" transform="translate(-413.47 570.249)">
    <path id="path14" d="M552.479-438.024H501.035a4.345,4.345,0,0,1-4.345-4.344h0a4.345,4.345,0,0,1,4.345-4.344h51.444a4.344,4.344,0,0,1,4.344,4.344h0a4.344,4.344,0,0,1-4.344,4.344" fill="#131112"/>
    <path id="path16" d="M560.36-387.578v4.376H516.068v-4.376H560.36" fill="#131112"/>
    <path id="path18" d="M520.181-384.08a4.167,4.167,0,0,1-3.431,4.795,4.169,4.169,0,0,1-4.8-3.431,4.17,4.17,0,0,1,3.432-4.8,4.169,4.169,0,0,1,4.795,3.432" fill="#131112"/>
    <path id="path20" d="M540.193-385.787h-4.376v-55.091h4.376v55.091" fill="#131112"/>
    <path id="path22" d="M564.473-384.08a4.168,4.168,0,0,1-3.431,4.795,4.168,4.168,0,0,1-4.8-3.431,4.17,4.17,0,0,1,3.431-4.8,4.17,4.17,0,0,1,4.8,3.432" fill="#131112"/>
    <path id="path24" d="M565.959-438.024h-48.6a5.034,5.034,0,0,1-4.76-6.48l23.211-80.009a4.975,4.975,0,0,1,4.76-3.62h48.605a5.035,5.035,0,0,1,4.76,6.48L570.72-441.644a4.976,4.976,0,0,1-4.761,3.62" fill="#1e1f26"/>
    <path id="path26" d="M559.272-438.024H516.936a5.034,5.034,0,0,1-4.761-6.48l23.212-80.009a4.974,4.974,0,0,1,4.76-3.62h42.336a5.034,5.034,0,0,1,4.759,6.48l-23.211,80.009a4.974,4.974,0,0,1-4.759,3.62" fill="#bbbbb9"/>
    <path id="path28" d="M565.947-438.024H514.5a4.345,4.345,0,0,1-4.345-4.344h0a4.345,4.345,0,0,1,4.345-4.344h51.444a4.345,4.345,0,0,1,4.344,4.344h0a4.345,4.345,0,0,1-4.344,4.344" fill="#1e1f26"/>
    <path id="path30" d="M524.319-505.931l-10.527,30.323,2.469,5.945,14.2-2.685,4.023-32.464-10.167-1.119" fill="#f8a38c"/>
    <path id="path32" d="M530.68-520.707s-8.325,4.716-10.161,20.271l10.985,6.553-.824-26.824" fill="#d82435"/>
    <path id="path34" d="M544.919-526.692l-14.239,5.985-11.208,49.939,37.515,14.787,19.989-56.957s-3.253-11.892-22.024-14.912l-10.033,1.159" fill="#d82435"/>
    <path id="path36" d="M582.823-468.042c-.025-.657-.424-4.607-.593-5.241l-6.181-39.579a8.316,8.316,0,0,0-12.144-5.471,8.317,8.317,0,0,0-3.8,10.083l7.351,33.992,15.369,6.216" fill="#f3a68d"/>
    <path id="path38" d="M574.4-476.519l-41.843-3.263-2.1,7.433,40.3,13.625a9.154,9.154,0,0,0,12.063-9.319h0a9.151,9.151,0,0,0-8.42-8.477" fill="#f3a68d"/>
    <path id="path40" d="M571.851-519.527s5.361,2.319,7.645,16.143l-18.851,5.791s-12.323-13.8.848-23.021l10.357,1.088" fill="#d82435"/>
    <path id="path42" d="M519.417-471.917c1.532,4.107,9.293,4.291,13.4,2.76s8.337-3.913,6.805-8.019-8.4-6.552-12.868-5.537c-5.453,1.239-8.868,6.689-7.337,10.8" fill="#f8a38c"/>
    <path id="path44" d="M542.2-466.328l-29.872-3.84.433-3.369,29.872,3.839a1.7,1.7,0,0,1,1.468,1.9h0a1.7,1.7,0,0,1-1.9,1.469" fill="#d3cfcf"/>
    <path id="path46" d="M516.261-469.663l-39.584-5.087a5.117,5.117,0,0,1-4.413-4.345l-4.155-28.723a3.879,3.879,0,0,1,4.333-4.4l36.355,4.673a3.377,3.377,0,0,1,2.919,2.913l4.545,34.971" fill="#d3cfcf"/>
    <path id="path48" d="M494.295-489.371a3.775,3.775,0,0,1-4.225,3.264,3.776,3.776,0,0,1-3.264-4.227,3.775,3.775,0,0,1,4.227-3.263,3.774,3.774,0,0,1,3.263,4.225" fill="#fff"/>
    <path id="path50" d="M468.955-393.8l-10.272,4.256-6.493.476a6.742,6.742,0,0,0-6.1,5.3l-.3,1.368,35.221,4.4.711-14.175L468.955-393.8" fill="#323944"/>
    <path id="path52" d="M481.127-377.752l-35.5-4.433.292-2.329a.717.717,0,0,1,.8-.624l34.784,4.344-.379,3.043" fill="#131112"/>
    <path id="path54" d="M481.728-392.174l3.435-15.436-12.752-1.733L468.955-393.8l12.773,1.628" fill="#eea78d"/>
    <path id="path56" d="M556.987-455.982s-1,8.52-16.315,9.692H503.855l-17.376,48.448-18.255-2.936,18.255-71.14,41.836,4.635,28.672,11.3" fill="#201d27"/>
    <path id="path58" d="M488.436-395.886l-22.06-4.124,1.584-8.476,22.06,4.124-1.584,8.476" fill="#25232f"/>
    <path id="path60" d="M470.011-408.1l18.721,3.5" fill="none" stroke="#18151a" stroke-miterlimit="10" stroke-width="0.988"/>
    <path id="path62" d="M439.451-421.639l-11-1.627-5.816-2.928a6.745,6.745,0,0,0-7.957,1.417l-.955,1.023,27.956,21.869,7.892-11.8-10.12-7.959" fill="#323944"/>
    <path id="path64" d="M441.647-401.618l-28.177-22.04,1.448-1.849a.717.717,0,0,1,1.007-.123l27.611,21.6-1.888,2.415" fill="#131112"/>
    <path id="path66" d="M449.571-413.68l9.591-12.187-10.049-8.039-9.661,12.267,10.12,7.959" fill="#eea78d"/>
    <path id="path68" d="M519.472-470.768,491.1-479.255c-1.195-.357-2.368-.78-3.533-1.221-2.463-.929-8.616-2.253-13.42,5.1C468-465.967,443.4-430.514,443.4-430.514l14.992,11.067,32.76-41.743a14.711,14.711,0,0,1,11.836-6.027l25.331-.067-8.843-3.485" fill="#201d27"/>
    <path id="path70" d="M457.2-414.592l-17.837-13.62,5.233-6.853,17.837,13.619-5.233,6.855" fill="#25232f"/>
    <path id="path72" d="M445.722-434.208l15.035,11.479" fill="none" stroke="#18151a" stroke-miterlimit="10" stroke-width="0.988"/>
    <path id="path74" d="M480.792-447.028l10.325-14.04a14.939,14.939,0,0,1,12.035-6.088h16.32" fill="none" stroke="#18151a" stroke-miterlimit="10" stroke-width="0.988"/>
    <path id="path76" d="M555.963-538.768c.521-.951,13.98-18.524,1.236-24.051,0,0-1.029-8.257-10.277-7.363s-6.716,3.607-12.607,2.264-11.435,1.695-10.988,6.617,4.2,7.011,10.988,5.817a39.831,39.831,0,0,1,12.159-.3l5.668,1.652,3.821,15.361" fill="#1e1f26"/>
    <path id="path78" d="M557.1-525.287l-.719-19.893-13.792,4.864,1.093,15.949c.256,3.705,2.3,6.577,6.009,6.323l1.16-.075a6.723,6.723,0,0,0,6.248-7.168" fill="#e8a38a"/>
    <path id="path80" d="M555.209-542.427s2.595,16.617-11.556,17.572l-.641-7.867,12.2-9.705" fill="#d27772"/>
    <path id="path82" d="M527.033-544.431a4.321,4.321,0,0,0,4.519,4.113,4.321,4.321,0,0,0,4.113-4.519,4.321,4.321,0,0,0-4.519-4.112,4.319,4.319,0,0,0-4.113,4.517" fill="#d27772"/>
    <path id="path84" d="M543.489-528.589l.476-.023a12.808,12.808,0,0,0,12.195-13.395l-.677-14.444a3.317,3.317,0,0,0-3.468-3.157l-16.839.791a5.921,5.921,0,0,0-5.637,6.192l.556,11.841a12.808,12.808,0,0,0,13.395,12.195" fill="#e8a38a"/>
    <path id="path86" d="M552.964-546.347a4.32,4.32,0,0,0,4.517,4.112,4.319,4.319,0,0,0,4.113-4.517,4.321,4.321,0,0,0-4.519-4.113,4.32,4.32,0,0,0-4.112,4.519" fill="#e8a38a"/>
    <path id="path88" d="M550.889-557.893l.847,16.125a4.267,4.267,0,0,1-1.725,3.759c-.765.531-1.353,1.229-2.717,1.029-3.836-.561-2.068-3.409-9.852-2.98-7.129.392-6.58,4.348-6.58,4.348s1.381,7.533,11.16,7.895,14.641-5.828,13.52-14.069l-.969-17.023-3.683.916" fill="#1e1f26"/>
    <path id="path90" d="M549.532-556.76s-.907,6.445,4.251,6.336-.445-6.868-.445-6.868l-3.805.532" fill="#1e1f26"/>
    <path id="path92" d="M541.159-546.771a1.046,1.046,0,0,0,1.167.908,1.045,1.045,0,0,0,.907-1.167,1.045,1.045,0,0,0-1.167-.908,1.045,1.045,0,0,0-.907,1.167" fill="#1e1f26"/>
    <path id="path94" d="M532.232-546.38a1.046,1.046,0,0,0,1.167.908,1.045,1.045,0,0,0,.908-1.167,1.045,1.045,0,0,0-1.167-.907,1.046,1.046,0,0,0-.908,1.165" fill="#1e1f26"/>
    <path id="path96" d="M536.353-546.371l-.053,4.345s.261,1.568,2.476.843" fill="none" stroke="#d27772" stroke-linecap="round" stroke-linejoin="round" stroke-miterlimit="10" stroke-width="0.833"/>
    <path id="path98" d="M544.844-550.1a1.018,1.018,0,0,1-.193.021l-4.732.048a.957.957,0,0,1-.967-.948.956.956,0,0,1,.947-.965l4.733-.049a.959.959,0,0,1,.967.948.959.959,0,0,1-.755.945" fill="#1e1f26"/>
    <path id="path100" d="M534.083-549.787a1.029,1.029,0,0,1-.192.021l-2.893.029a.956.956,0,0,1-.967-.947.956.956,0,0,1,.945-.967l2.893-.031a.961.961,0,0,1,.968.948.96.96,0,0,1-.755.945" fill="#1e1f26"/>
    <path id="path102" d="M529.995-555.183a31.021,31.021,0,0,0,11.156-.919c6.591-1.633,11.808,3.681,11.808,3.681s1.4,2.457,1.757,2.393,2.36-.839,2.36-.839l-.081-7.453-4.817-3.769-13.4-.545-7.925,1.744-.856,5.707" fill="#1e1f26"/>
  </g>
</svg>
