<svg xmlns="http://www.w3.org/2000/svg" width="88.221" height="245.929" viewBox="0 0 88.221 245.929">
  <g id="Groupe_3" data-name="Groupe 3" transform="translate(-294.556 623.681)">
    <path id="path484" d="M352.248-499.375s7.783-.184,7.793,6.676a16.242,16.242,0,0,1-5.007,11.279l-2.787-17.955" fill="#f3a68d"/>
    <path id="path486" d="M344.766-568.271s5.527,3.808,7.473,29.672,6.276,47.117,5.9,47.2-12.5,1.392-12.5,1.392l-5.925-40.635,5.049-37.627" fill="#f3a68d"/>
    <path id="path488" d="M336.7-573.831s12.163,3.631,16.713,20.788l-10.039.345L336.7-573.831" fill="#d72437"/>
    <path id="path490" d="M367.03-412.043l4.255,17.407,6.155,12.153s-6.9,1.5-9.905-4.2-2.251-8.4-2.251-8.4l-6.5-16.957h8.251" fill="#f3a68d"/>
    <path id="path492" d="M376.734-383.874s5.287,2.872,6.043,6.121H369.782l-2.569-5.063-1.739,5.063h-1.756s-1.648-13.133,1.565-17.333l11.451,11.212" fill="#211d29"/>
    <path id="path494" d="M317.83-412.043l2.215,17.407-6.069,12.153s6.809,1.5,9.771-4.2,2.22-8.4,2.22-8.4l0-16.957H317.83" fill="#f3a68d"/>
    <path id="path496" d="M314.679-383.874s-5.287,2.872-6.043,6.121h13l2.569-5.063,1.737,5.063H327.7s1.647-13.133-1.567-17.333l-11.451,11.212" fill="#211d29"/>
    <path id="path498" d="M309.587-529.308s-9.319,8.036-8.733,29.933S314.89-408.6,314.89-408.6H329.54l-.639-88.764L356.119-408.6h15.163l-14.871-76.854s-4.433-37.2-13.035-43.855H309.587" fill="#3a3759"/>
    <path id="path500" d="M313.083-418.076H329.6" fill="none" stroke="#302e46" stroke-miterlimit="10" stroke-width="1"/>
    <path id="path502" d="M353.28-417.859l16.171-.217" fill="none" stroke="#302e46" stroke-miterlimit="10" stroke-width="1"/>
    <path id="path504" d="M314.534-527.507s-15.443,12.593,4.853,109.538" fill="none" stroke="#302e46" stroke-miterlimit="10" stroke-width="1"/>
    <path id="path506" d="M328.9-497.363v-31.776" fill="none" stroke="#302e46" stroke-miterlimit="10" stroke-width="1"/>
    <path id="path508" d="M334.635-529.139v18.568a5.806,5.806,0,0,1-5.805,5.805h-.044" fill="none" stroke="#302e46" stroke-miterlimit="10" stroke-width="1"/>
    <path id="path510" d="M323.067-574.951s-11.172,2.628-14.812,10.033l1.332,35.609h33.789l1.389-38.963a30.552,30.552,0,0,0-12.217-7.139l-9.481.459" fill="#d72437"/>
    <path id="path512" d="M308.53-565.139s-9.977-3.132-13.933,37.622a9.453,9.453,0,0,0,4.18,8.353c4.777,3.384,10.549-9.6,10.549-9.6v-6.121l-.8-30.253" fill="#eea78d"/>
    <path id="path514" d="M323.067-574.951s-22.879,2.352-25.888,22.592l16.177,1.015,9.711-23.607" fill="#d72437"/>
    <path id="path516" d="M298.537-533.037l27.973-15.144,4.187,4.963-23.188,22.541a7.7,7.7,0,0,1-12.472-2.945h0a7.7,7.7,0,0,1,3.5-9.415" fill="#f3a68d"/>
    <path id="path518" d="M325.1-547.133l1.312-4.816a6.546,6.546,0,0,1,2.632-3.689l3.421-2.329-.533,9.787-6.832,1.048" fill="#f3a68d"/>
    <path id="path520" d="M337.874-548.493l-5.605.256a2.029,2.029,0,0,1-2.119-1.933l-.6-13.2a2.027,2.027,0,0,1,1.933-2.117l5.607-.256a2.027,2.027,0,0,1,2.117,1.933l.6,13.2a2.027,2.027,0,0,1-1.933,2.117" fill="#201e22"/>
    <path id="path522" d="M325.1-547.133l4.948-5.225L338.721-555a.693.693,0,0,1,1.007.349c.624,2.069,1.785,7.745-3.089,10.635-6.031,3.572-9.495,2.651-9.495,2.651l-2.04-5.764" fill="#f3a68d"/>
    <path id="path524" d="M339.181-593.636a4.2,4.2,0,0,0,4.2,4.195,4.193,4.193,0,0,0,4.193-4.195,4.193,4.193,0,0,0-4.193-4.195,4.2,4.2,0,0,0-4.2,4.195" fill="#d77b71"/>
    <path id="path526" d="M345.642-591.617a5.486,5.486,0,0,1,2.216,3.571c.515,2.545-.483,4.9-2.228,5.249s-3.577-1.425-4.093-3.971" fill="none" stroke="#e7bb5d" stroke-linecap="round" stroke-miterlimit="10" stroke-width="0.607"/>
    <path id="path528" d="M345.479-598.431c-1.337,8.939-7.327,16.365-16.364,16.365a16.365,16.365,0,0,1-16.365-16.365,16.365,16.365,0,0,1,16.365-16.364c9.037,0,17.836,6.516,16.364,16.364" fill="#1f1926"/>
    <path id="path530" d="M323.067-575.589l.065-16.777,12.029.055-.065,16.777a6.014,6.014,0,0,1-6.041,5.987h0a6.014,6.014,0,0,1-5.988-6.041" fill="#eea78d"/>
    <path id="path532" d="M322.7-591.469s1.265,14.371,12.38,14.14l.02-7.2-12.4-6.944" fill="#d77b71"/>
    <path id="path534" d="M325.1-575.049s-2.4-.421-7.816,1.377a17.35,17.35,0,0,0,9.387,5.007c2.5.464,4.9-.313,7.244-1.295a13.6,13.6,0,0,0,4.14-3.332,21.227,21.227,0,0,0-5.509-2.117,49.9,49.9,0,0,0-7.445.36" fill="#eea78d"/>
    <path id="path536" d="M332.982-579.8h0c6.444,0,11.716-3.885,11.716-10.328v-11.08c0-4.755-5.191-9.764-8-9.764l-10.335,2.9a5.115,5.115,0,0,0-5.1,5.1v11.036c0,6.443,6.283,12.14,11.715,12.14" fill="#eea78d"/>
    <path id="path538" d="M333.737-595.143a.928.928,0,0,1-.992.86.929.929,0,0,1-.859-.992.928.928,0,0,1,.992-.859.928.928,0,0,1,.859.991" fill="#1e1f26"/>
    <path id="path540" d="M342.228-595.212a.929.929,0,0,1-.992.859.928.928,0,0,1-.859-.991.927.927,0,0,1,.991-.86.929.929,0,0,1,.86.992" fill="#1e1f26"/>
    <path id="path542" d="M338.606-593.844l.249,2.659s-.157,1.4-2.153.863" fill="none" stroke="#d77b71" stroke-linecap="round" stroke-linejoin="round" stroke-miterlimit="10" stroke-width="0.739"/>
    <path id="path544" d="M330.314-597.917a.921.921,0,0,0,.172.011l4.2-.179a.85.85,0,0,0,.812-.885.849.849,0,0,0-.885-.812l-4.2.179a.849.849,0,0,0-.812.884.851.851,0,0,0,.712.8" fill="#1e1f26"/>
    <path id="path546" d="M340.43-598.146a.815.815,0,0,0,.172.011l2.565-.108a.85.85,0,0,0,.812-.884.848.848,0,0,0-.884-.813l-2.565.108a.849.849,0,0,0-.812.884.845.845,0,0,0,.712.8" fill="#1e1f26"/>
    <path id="path548" d="M338.855-587.18a3.516,3.516,0,0,0-4.177,1.105" fill="none" stroke="#d77b71" stroke-linecap="round" stroke-linejoin="round" stroke-miterlimit="10" stroke-width="0.739"/>
    <path id="path550" d="M325.322-608.661s4.279,11.553-2.62,15.025l-6.591-10.527,9.211-4.5" fill="#1f1926"/>
    <path id="path552" d="M316.111-593.636a4.2,4.2,0,0,0,4.2,4.195,4.2,4.2,0,0,0,4.195-4.195,4.2,4.2,0,0,0-4.195-4.195,4.2,4.2,0,0,0-4.2,4.195" fill="#eea78d"/>
    <path id="path554" d="M321.339-618c2.389,4.677,1.279,10.024-2.48,11.944s-8.741-.315-11.131-4.991-1.279-10.024,2.48-11.944,8.743.315,11.131,4.991" fill="#1e1b26"/>
    <path id="path556" d="M320.747-591.469c1.781,0,3.628,2.1,3.628,4.7s-1.444,4.7-3.225,4.7-3.224-2.105-3.224-4.7a6.113,6.113,0,0,1,.744-3" fill="none" stroke="#e7bb5d" stroke-linecap="round" stroke-miterlimit="10" stroke-width="0.607"/>
    <path id="path558" d="M321.373-606.732s16.592,9.352,26.933,1.853a4.541,4.541,0,0,0,1.915-2.981c.212-1.517-.431-3.3-4.741-3.113-7.389.317-12.453,1.775-15.879,0s-8.228,4.241-8.228,4.241" fill="#1e1b26"/>
    <path id="path560" d="M332.982-610.474s6.763-5.461,10.395-2.98-4.521,5.365-4.521,5.365l-5.873-2.385" fill="#1e1b26"/>
  </g>
</svg>
