<svg xmlns="http://www.w3.org/2000/svg" width="76.505" height="241.806" viewBox="0 0 76.505 241.806">
  <g id="Groupe_4" data-name="Groupe 4" transform="translate(-366.875 325.415)">
    <path id="path410" d="M377.991-200.064s-5.36,7.641-1.82,16.3,11.361-1.3,11.361-1.3l-9.541-15" fill="#e6a188"/>
    <path id="path412" d="M376.38-269.018s-8.535,20.564-3.436,72.278h9.8l-6.367-72.279" fill="#343143"/>
    <path id="path414" d="M398.131-321.013s10,2.076,9.375,8.513-1.877,13.209-1.877,13.209l-4.921-10.863-2.576-10.86" fill="#201d27"/>
    <path id="path416" d="M406.186-281.8l-1.964-12.468-12.969,2.092,1.964,12.468a6.567,6.567,0,0,0,7.531,5.439h0a6.568,6.568,0,0,0,5.439-7.531" fill="#eea78d"/>
    <path id="path418" d="M404.191-297.5s1.064,15.72-11.1,16.719l-1.239-7.761,12.34-8.957" fill="#d77b71"/>
    <path id="path420" d="M376.658-298.975a4.188,4.188,0,0,0,4.163,4.212,4.189,4.189,0,0,0,4.212-4.163,4.188,4.188,0,0,0-4.163-4.212,4.188,4.188,0,0,0-4.212,4.163" fill="#d77b71"/>
    <path id="path422" d="M379.718-315.794s-6.383,10.9,2.4,14.773l1.813-.781s3.641-7.684-.328-12.085l-3.885-1.907" fill="#201d27"/>
    <path id="path424" d="M391.655-284.193l.463,0a12.416,12.416,0,0,0,12.489-12.341l.083-14.017a3.212,3.212,0,0,0-3.193-3.232l-16.34-.1a5.737,5.737,0,0,0-5.773,5.705l-.069,11.492a12.415,12.415,0,0,0,12.341,12.488" fill="#eea78d"/>
    <path id="path426" d="M390.992-298.961a1.011,1.011,0,0,0,1.081.937,1.013,1.013,0,0,0,.939-1.083,1.013,1.013,0,0,0-1.083-.939,1.013,1.013,0,0,0-.937,1.084" fill="#1e1f26"/>
    <path id="path428" d="M382.332-299.039a1.012,1.012,0,0,0,1.083.937,1.01,1.01,0,0,0,.937-1.081,1.011,1.011,0,0,0-1.081-.939,1.013,1.013,0,0,0-.939,1.083" fill="#1e1f26"/>
    <path id="path430" d="M386.623-297.5l-.273,2.859s.171,1.531,2.352.943" fill="none" stroke="#d77b71" stroke-linecap="round" stroke-linejoin="round" stroke-miterlimit="10" stroke-width="0.808"/>
    <path id="path432" d="M394.728-301.993a.855.855,0,0,1-.187.012l-4.584-.2a.928.928,0,0,1-.887-.967.926.926,0,0,1,.967-.887l4.583.195a.928.928,0,0,1,.887.968.927.927,0,0,1-.779.875" fill="#1e1f26"/>
    <path id="path434" d="M384.3-302.243a.967.967,0,0,1-.187.012l-2.8-.12a.926.926,0,0,1-.887-.965.926.926,0,0,1,.965-.888l2.8.12a.925.925,0,0,1,.888.964.927.927,0,0,1-.779.877" fill="#1e1f26"/>
    <path id="path436" d="M387.951-290.319h2.239" fill="none" stroke="#d77b71" stroke-linecap="round" stroke-linejoin="round" stroke-miterlimit="10" stroke-width="0.808"/>
    <path id="path438" d="M404.074-298.522s-7.26-3.64-6.04-16.745l7.595-.527v1.907l-1.555,15.365" fill="#201d27"/>
    <path id="path440" d="M401.442-299.315A4.188,4.188,0,0,0,405.6-295.1a4.187,4.187,0,0,0,4.212-4.163,4.188,4.188,0,0,0-4.163-4.212,4.186,4.186,0,0,0-4.212,4.163" fill="#eea78d"/>
    <path id="path442" d="M399.576-308.163l-4.588-2.663s-11.156,4.968-15.687.181c-4.891-5.167-4.683-13.748,5.464-14.668,8.36-.759,14.817,2.76,15.773,7.8a17.318,17.318,0,0,1-.963,9.347" fill="#201d27"/>
    <path id="path444" d="M422.712-210.7l-2.84,114.028H405.439l-4.612-93.74h-3.159l1.344,93.457H384.16L379.3-210.7h43.409" fill="#201d27"/>
    <path id="path446" d="M384.528-96.952l-6.548,5.09-5.892,1.188a6.225,6.225,0,0,0-4.971,5.564l-.112,1.288,32.693-.051-.916-13.064-14.255-.015" fill="#323944"/>
    <path id="path448" d="M399.828-83.66l-32.949.051,0-2.085a.745.745,0,0,1,.743-.746l32.205-.049.005,2.831" fill="#131112"/>
    <path id="path450" d="M418.43-96.669s4.957,7.109,4.587,11.62H404.154s-1.421-3.648,4.14-11.62H418.43" fill="#2a2f3a"/>
    <path id="path452" d="M423.892-83.657l-20.8.032,0-2.085c0-.41.209-.745.471-.745l19.573-.03a.755.755,0,0,1,.756.753l0,2.076" fill="#131112"/>
    <path id="path454" d="M396.788-274.863,406-281.8c4.5.011,11.632.537,17.711,6.391L421.379-210.7H377.97v-58.88s3.876-10.184,14.851-12.321l3.968,7.035" fill="#d1cfcd"/>
    <path id="path456" d="M406.186-281.8l-9.4,6.935-4.256-7.545-4.911,1.627,7.052,11.764,10.955-1.825,3.011-4.564-2.453-6.391" fill="#d1cfcd"/>
    <path id="path458" d="M411.315-281.814,402.406-268.3l-5.648-5.932-6.392,3.873.364-10.723" fill="none" stroke="#bebebc" stroke-miterlimit="10" stroke-width="1.008"/>
    <path id="path460" d="M396.758-274.235s-1.911,40.323,0,63.539" fill="none" stroke="#bebebc" stroke-miterlimit="10" stroke-width="1.008"/>
    <path id="path462" d="M378.294-222.6l.491-41.689" fill="none" stroke="#bebebc" stroke-miterlimit="10" stroke-width="1.008"/>
    <path id="path464" d="M406.186-283.027s-6.227,37.123,0,77.905H431.56s2.165-59.227-7.853-70.285c0,0-4.351-6.391-17.521-7.62" fill="#343143"/>
    <path id="path466" d="M407.158-281.869l7.771,9.727-7.292,5.181,7.429,6.248s-7.395,22.656-8.255,36.645" fill="none" stroke="#211e27" stroke-miterlimit="10" stroke-width="1"/>
    <path id="path468" d="M391.851-282.565s-3.94,38.341-1.661,77.442h-13.5l-.305-63.9s5.087-9.617,15.471-13.547" fill="#343143"/>
    <path id="path470" d="M390.73-281.085l-7.388,9.745,4.552,4.579-5.147,6.571s4.955,18.647,5.2,35.267" fill="none" stroke="#211e27" stroke-miterlimit="10" stroke-width="1"/>
    <path id="path472" d="M376.686-205.122l.837-50.993" fill="none" stroke="#211e27" stroke-miterlimit="10" stroke-width="1"/>
    <path id="path474" d="M385.576-243.062l8.688,11.373a1.9,1.9,0,0,1-1.148,3.016l-7.013,1.357a1.9,1.9,0,0,1-1.865-.7l-8.763-11.357a1.9,1.9,0,0,1,1.143-3.024l7.089-1.372a1.9,1.9,0,0,1,1.869.711" fill="#151215"/>
    <path id="path476" d="M400.391-231.362l15.467.216,3.121,7.265-17.365-.864-1.223-6.617" fill="#e6a188"/>
    <path id="path478" d="M400.391-231.362l-10.171-7.185a1.343,1.343,0,0,0-1.681.107h0a1.342,1.342,0,0,0-.136,1.837l2.224,2.733-7.668.823a1.449,1.449,0,0,0-1.117,2.08L383-228.619a7.613,7.613,0,0,0,5.229,4.085c3.948.848,9.849,1.925,13.381-.211l-1.223-6.617" fill="#e6a188"/>
    <path id="path480" d="M423.642-275.291s6.087,2.657,17.064,33.133c0,0,4.144,11.727,2.115,13.975-3.324,3.68-19.728,9.321-38.011,5.081l-.221-9.992,20.216-3.068-9.031-23.151s-6.592-14.96,7.868-15.979" fill="#343143"/>
    <path id="path482" d="M418.922-254.662l7.216,18.5-21.549,3.068.221,9.992s7.863,4.1,26.584,0" fill="none" stroke="#211e27" stroke-miterlimit="10" stroke-width="1"/>
  </g>
</svg>
