<svg xmlns="http://www.w3.org/2000/svg" width="179.718" height="240.51" viewBox="0 0 179.718 240.51">
  <g id="Groupe_2" data-name="Groupe 2" transform="translate(-63.213 618.262)">
    <path id="path104" d="M242.931-467.57H138.612v-7.3h104.32v7.3" fill="#bbbbb9"/>
    <path id="path106" d="M233.014-377.752H150.148v-89.817h82.866v89.817" fill="#d9d7d4"/>
    <path id="path108" d="M149.214-474.472H181.63v-3.657H149.214a1.829,1.829,0,0,0-1.828,1.829h0a1.828,1.828,0,0,0,1.828,1.828" fill="#131112"/>
    <path id="path110" d="M177.364-474.472h42.953a5.508,5.508,0,0,0,5.308-4.032L234-508.6a4.175,4.175,0,0,0-4.023-5.295H190.529a3.632,3.632,0,0,0-3.515,2.712l-9.651,36.707" fill="#323944"/>
    <path id="path112" d="M203.516-492.5a4.065,4.065,0,0,0,4.064,4.064,4.065,4.065,0,0,0,4.064-4.064,4.064,4.064,0,0,0-4.064-4.064,4.064,4.064,0,0,0-4.064,4.064" fill="#fff"/>
    <path id="path114" d="M77.669-602.623s-2.87-11.1,11.182-12.548c12.156-1.252,16.093,5.444,17.38,8.808s-13,13.549-13,13.549l-15.564-9.809" fill="#2d2e3f"/>
    <path id="path116" d="M86.794-573.929l-1.7-16.729,12-1.213,1.7,16.729a6.029,6.029,0,0,1-5.392,6.6h0a6.028,6.028,0,0,1-6.6-5.391" fill="#eea78d"/>
    <path id="path118" d="M84.756-589.721s2.775,14.192,13.829,12.792l-.737-7.176-13.092-5.616" fill="#d77b71"/>
    <path id="path120" d="M99.78-611.236s8.51-.588,7.086,13.016l-4.552-5.524-2.534-7.492" fill="#2d2e3f"/>
    <path id="path122" d="M100.829-594.8a4.2,4.2,0,0,0,4.623,3.74,4.2,4.2,0,0,0,3.74-4.623,4.205,4.205,0,0,0-4.623-3.74,4.2,4.2,0,0,0-3.74,4.623" fill="#d77b71"/>
    <path id="path124" d="M96.232-579.172h0c6.423-.679,11.269-5.108,10.59-11.529l-1.353-12.807a5.128,5.128,0,0,0-5.62-4.547L86.66-606.66a5.126,5.126,0,0,0-4.546,5.62l1.163,11c.679,6.421,7.54,11.439,12.955,10.867" fill="#eea78d"/>
    <path id="path126" d="M83.81-593.674h0s6.139-4.639,2.85-12.985l-6.563.693s-1.059-1.392-2.287.668,2.361,11.187,2.361,11.187l3.64.437" fill="#2d2e3f"/>
    <path id="path128" d="M77.833-592.371a4.205,4.205,0,0,0,4.624,3.74,4.206,4.206,0,0,0,3.739-4.624,4.205,4.205,0,0,0-4.623-3.74,4.206,4.206,0,0,0-3.74,4.624" fill="#eea78d"/>
    <path id="path130" d="M95.092-596.423a.932.932,0,0,1-.9.961.93.93,0,0,1-.96-.9.93.93,0,0,1,.9-.96.929.929,0,0,1,.961.9" fill="#1e1f26"/>
    <path id="path132" d="M103.81-597.415a.93.93,0,0,1-.9.961.93.93,0,0,1-.96-.9.929.929,0,0,1,.9-.96.929.929,0,0,1,.96.9" fill="#1e1f26"/>
    <path id="path134" d="M100.255-596.232l.655,3.1s-.009,1.413-2.056,1.087" fill="none" stroke="#d77b71" stroke-linecap="round" stroke-linejoin="round" stroke-miterlimit="10" stroke-width="0.741"/>
    <path id="path136" d="M91.389-598.828a.945.945,0,0,0,.172-.008l4.164-.62a.852.852,0,0,0,.716-.967.851.851,0,0,0-.968-.717l-4.164.62a.851.851,0,0,0-.716.967.852.852,0,0,0,.8.725" fill="#1e1f26"/>
    <path id="path138" d="M101.709-600.149a.933.933,0,0,0,.172-.008l2.545-.379a.852.852,0,0,0,.717-.967.851.851,0,0,0-.967-.717l-2.546.379a.852.852,0,0,0-.717.967.851.851,0,0,0,.8.725" fill="#1e1f26"/>
    <path id="path140" d="M86.755-599.46s.074,8.605,2.131,10.985,3.756-.443,10.487-1.892,7.765,1.737,7.765,1.737.185,8.663-8.694,9.6c-6.894.729-14.059-.479-13.353-11.629s-3.256-13.609-3.256-13.609l4.92,4.808" fill="#2d2e3f"/>
    <path id="path142" d="M86.66-606.66a19.41,19.41,0,0,0,9.791.969,24.9,24.9,0,0,1,12.023,1.792s4.008-14.364-12.023-14.364c-19.192,0-14.337,17.223-14.337,17.223l4.546-5.62" fill="#2d2e3f"/>
    <path id="path144" d="M116.2-566.749l13.645,31.727-17.314,6.86Z" fill="#d1cfcd"/>
    <path id="path146" d="M129.847-535.023s1.366-1.173,2.581,1.068a10.305,10.305,0,0,1,1.327,3.655l-20.842,9.1-.381-6.963,17.314-6.86" fill="#dddad8"/>
    <path id="path148" d="M131.831-529.4l20.983-8.329,3.631,6.912-33.058,16.844s-7.132,1.463-8.859-7.871l17.3-7.556" fill="#eea78d"/>
    <path id="path150" d="M152.814-537.729l4.591-10.644a1.345,1.345,0,0,1,1.479-.809h0a1.344,1.344,0,0,1,1.1,1.481l-.42,3.5,10.709-5a1.45,1.45,0,0,1,2.056,1.161l.591,5.6a1.44,1.44,0,0,1-.465,1.224c-2.373,2.14-11.969,10.5-17.3,10.6l-2.333-7.112" fill="#eea78d"/>
    <path id="path152" d="M161.868-543.244a8.505,8.505,0,0,1,.56,7.4" fill="none" stroke="#d17572" stroke-linecap="round" stroke-linejoin="round" stroke-miterlimit="10" stroke-width="0.714"/>
    <path id="path154" d="M86.794-573.929,67.757-561.705l10.487,55.768h38.5l.676-56.643a8.745,8.745,0,0,0-5.778-7.936L98.79-575.143l-3.547,6.111-8.449-4.9" fill="#d1cfcd"/>
    <path id="path156" d="M116.89-522.876v-32.992" fill="none" stroke="#bebebc" stroke-miterlimit="10" stroke-width="1"/>
    <path id="path158" d="M86.794-573.929l8.449,4.9,3.547-6.111,3.162,4.444-7.58,5.709-9.281-2.133,1.7-6.807" fill="#d1cfcd"/>
    <path id="path160" d="M83.252-571.656l8.419,9.951,3.572-7.327" fill="none" stroke="#bebebc" stroke-miterlimit="10" stroke-width="1"/>
    <path id="path162" d="M103.567-573.423l-3.334,10.571-4.991-6.18s5.244,36.389,4.163,61.274" fill="none" stroke="#bebebc" stroke-miterlimit="10" stroke-width="1"/>
    <path id="path164" d="M67.757-561.705s-6,3.664-4.211,16.628a112.773,112.773,0,0,0,5.58,22.787l18.5-7.812-5.038-23.439-14.834-8.164" fill="#d1cfcd"/>
    <path id="path166" d="M67.757-524.5s-3.1,7.165,5.834,9.485L72.474-517.6l16.966-9.012s1.572-5.644-4.348-5.907L67.757-524.5" fill="#dddad8"/>
    <path id="path168" d="M89.788-527.228l21.276-11.059,4.58,6.913-33.12,21.355s-7.379,2.313-10.208-7.364l17.471-9.845" fill="#eea78d"/>
    <path id="path170" d="M111.064-538.287l3.706-11.741a1.425,1.425,0,0,1,1.476-1.012h0a1.425,1.425,0,0,1,1.317,1.447l-.067,3.743,10.778-6.439a1.539,1.539,0,0,1,2.3,1.005l1.227,5.857a1.529,1.529,0,0,1-.359,1.343c-2.278,2.517-11.518,12.38-17.143,13.063l-3.231-7.265" fill="#eea78d"/>
    <path id="path172" d="M85.091-532.521l-3.256-14.935" fill="none" stroke="#bebebc" stroke-miterlimit="10" stroke-width="1"/>
    <path id="path174" d="M116.747-505.937l-1.191,58.821-4.2,55.72-15.8.015,3.956-55.724,1.126-58.832h16.107" fill="#7f8178"/>
    <path id="path176" d="M111.358-391.4,118-386.232l5.98,1.205a6.318,6.318,0,0,1,5.044,5.648l.114,1.305-33.177-.051.929-13.257,14.466-.015" fill="#323944"/>
    <path id="path178" d="M95.831-377.908l33.438.052,0-2.116a.756.756,0,0,0-.755-.757l-32.682-.051,0,2.872" fill="#131112"/>
    <path id="path180" d="M105.265-502.4v11.131a10.874,10.874,0,0,1-4.59,8.875l-.035.024" fill="none" stroke="#706f67" stroke-miterlimit="10" stroke-width="1"/>
    <path id="path182" d="M95.822-396.967h16.036" fill="none" stroke="#706f67" stroke-miterlimit="10" stroke-width="1"/>
    <path id="path184" d="M78.244-505.937l-.829,59.467-3.472,55.089L89.73-391.4l7.206-55.42,7.139-59.122H78.244" fill="#7f8178"/>
    <path id="path186" d="M89.73-391.4l6.658,5.163,5.98,1.205a6.319,6.319,0,0,1,5.044,5.648l.113,1.305-33.177-.051.929-13.257,14.453-.013" fill="#323944"/>
    <path id="path188" d="M74.217-377.908l33.438.052,0-2.116a.756.756,0,0,0-.755-.757l-32.681-.051-.005,2.872" fill="#131112"/>
    <path id="path190" d="M78.406-502.4h38.347" fill="none" stroke="#706f67" stroke-miterlimit="10" stroke-width="1"/>
    <path id="path192" d="M100.64-476.214c.1-.843,0-26.184,0-26.184" fill="none" stroke="#706f67" stroke-miterlimit="10" stroke-width="1"/>
    <path id="path194" d="M74.456-396.967H90.491" fill="none" stroke="#706f67" stroke-miterlimit="10" stroke-width="1"/>
  </g>
</svg>
