<svg xmlns="http://www.w3.org/2000/svg" width="67.07" height="241.051" viewBox="0 0 67.07 241.051">
  <g id="Groupe_7" data-name="Groupe 7" transform="translate(-62.305 325.416)">
    <path id="path196" d="M115.173-274.6s7.1,6.46,8.417,20.668l.829,29.413a5.028,5.028,0,0,1-3.775,5.012h0a5.028,5.028,0,0,1-6.278-4.951l.807-50.143" fill="#d1cfcd"/>
    <path id="path198" d="M91.743-281.15s-12.411-2.628-21.936,6.545l2.309,64.185h43.056V-274.6s-6.394-9.443-23.43-6.545" fill="#d1cfcd"/>
    <path id="path200" d="M96.537-273.443s1.895,40,0,63.024" fill="none" stroke="#bebebc" stroke-miterlimit="10" stroke-width="1"/>
    <path id="path202" d="M114.851-222.225l-.487-41.351" fill="none" stroke="#bebebc" stroke-miterlimit="10" stroke-width="1"/>
    <path id="path204" d="M69.807-274.6s-8.008,4.744-7.477,20.668l1.531,31.5a7.073,7.073,0,0,0,7.063,6.729h0A7.072,7.072,0,0,0,78-222.779v-36.155L69.807-274.6" fill="#d1cfcd"/>
    <path id="path206" d="M99.257-249.094c0-.305,4.693-11.324,17.344-6.632l-5,7.755s-5.611,5.407-10.2,4.08-2.142-5.2-2.142-5.2" fill="#eea78d"/>
    <path id="path208" d="M98.984-250.857,72.116-232.021l.943,15.983,32.538-24.9-6.614-9.921" fill="#d1cfcd"/>
    <path id="path210" d="M78-262.242v26.1l20.988-14.713,6.614,9.921-32.538,24.9" fill="none" stroke="#bebebc" stroke-miterlimit="10" stroke-width="1"/>
    <path id="path212" d="M116.952-261.033l-7.311,14.711a2.18,2.18,0,0,0,1.952,3.149h8.2a2.178,2.178,0,0,0,1.947-1.2l7.4-14.712a2.179,2.179,0,0,0-1.947-3.159H118.9a2.178,2.178,0,0,0-1.951,1.209" fill="#1f1926"/>
    <path id="path214" d="M117.5-239.059s-7.207-6.217-3.108-10.469,8.906-4.113,10.023-1.328-.51,8.624-.51,8.624l-6.406,3.173" fill="#eea78d"/>
    <path id="path216" d="M115.773-239.33l9.963-4.9,1.342,18.657a5.983,5.983,0,0,1-5.344,6.824h0a5.983,5.983,0,0,1-6.56-5.956l.6-14.628" fill="#d1cfcd"/>
    <path id="path218" d="M87.186-280.943l1.948-12.365L102-291.234l-1.948,12.367a6.515,6.515,0,0,1-7.47,5.395h0a6.515,6.515,0,0,1-5.394-7.471" fill="#eea78d"/>
    <path id="path220" d="M89.164-296.517s-1.055,15.592,11.011,16.583l1.228-7.7-12.24-8.884" fill="#d77b71"/>
    <path id="path222" d="M86.69-281.307l9.817,7.243,4.221-7.484,1.533.508-4.713,8.211-7.37.345L87.1-277.017l-.411-4.291" fill="#d1cfcd"/>
    <path id="path224" d="M82.1-280.957l8.836,13.4,5.6-5.885,6.34,3.843.6-11.707" fill="none" stroke="#bebebc" stroke-miterlimit="10" stroke-width="1"/>
    <path id="path226" d="M116.474-297.981a4.154,4.154,0,0,1-4.129,4.179,4.153,4.153,0,0,1-4.178-4.129,4.153,4.153,0,0,1,4.129-4.179,4.155,4.155,0,0,1,4.178,4.129" fill="#d77b71"/>
    <path id="path228" d="M114.278-310.941s5.492,7.085-3.219,10.931l-1.8-.775s-3.613-7.62.326-11.985l4.693,1.829" fill="#1e1f26"/>
    <path id="path230" d="M101.6-283.318l-.459,0a12.316,12.316,0,0,1-12.387-12.243l-.083-13.9a3.189,3.189,0,0,1,3.169-3.208l16.207-.095a5.692,5.692,0,0,1,5.727,5.659l.068,11.4A12.313,12.313,0,0,1,101.6-283.318" fill="#eea78d"/>
    <path id="path232" d="M102.772-298.463a1,1,0,0,1-1.073.929,1,1,0,0,1-.931-1.073,1,1,0,0,1,1.074-.931,1,1,0,0,1,.93,1.075" fill="#1e1f26"/>
    <path id="path234" d="M111.361-298.542a1,1,0,0,1-1.074.931,1,1,0,0,1-.93-1.073,1.006,1.006,0,0,1,1.073-.932,1.007,1.007,0,0,1,.93,1.075" fill="#1e1f26"/>
    <path id="path236" d="M107.1-297.019l.271,2.836s-.17,1.519-2.333.935" fill="none" stroke="#d77b71" stroke-linecap="round" stroke-linejoin="round" stroke-miterlimit="10" stroke-width="0.801"/>
    <path id="path238" d="M101.749-291.046s4.188,2.523,7.3-.085" fill="none" stroke="#d77b71" stroke-linecap="round" stroke-linejoin="round" stroke-miterlimit="10" stroke-width="0.801"/>
    <path id="path240" d="M99.065-301.47a1.074,1.074,0,0,0,.187.012l4.546-.195a.922.922,0,0,0,.879-.96.919.919,0,0,0-.958-.879l-4.545.195a.92.92,0,0,0-.88.957.92.92,0,0,0,.772.869" fill="#1e1f26"/>
    <path id="path242" d="M109.413-301.719a.953.953,0,0,0,.186.011l2.779-.119a.918.918,0,0,0,.88-.957.919.919,0,0,0-.957-.88l-2.779.117a.921.921,0,0,0-.881.959.921.921,0,0,0,.772.869" fill="#1e1f26"/>
    <path id="path244" d="M89.28-297.531s7.2-.548,5.992-13.545l-7.534-3.585v1.892l1.542,15.239" fill="#1e1f26"/>
    <path id="path246" d="M89.14-298.917H86.583s-.031-8.075-1.173-10.184c-1.392-2.572-.991-11.332,5.342-10.007a9.556,9.556,0,0,0,5.757-.453,8.78,8.78,0,0,0,1.451-.8c2.883-1.964,4.482-6.3,11.063-4.715,7.341,1.769,12.552,11.413,6.964,16.48-3.443,3.123-19.243,1.767-21.7-.361l-3.27,4.909-1.88,5.129" fill="#1e1f26"/>
    <path id="path248" d="M91.892-298.318a4.154,4.154,0,0,1-4.129,4.179,4.153,4.153,0,0,1-4.178-4.129,4.153,4.153,0,0,1,4.129-4.177,4.154,4.154,0,0,1,4.179,4.128" fill="#eea78d"/>
    <path id="path250" d="M72.116-210.419l2.816,113.1H89.249L93.824-190.3h3.133L95.624-97.6h14.732l4.817-112.82H72.116" fill="#1e1b26"/>
    <path id="path252" d="M109.989-97.6l6.495,5.048,5.844,1.179a6.174,6.174,0,0,1,4.931,5.519l.111,1.277-32.427-.049.908-12.959,14.138-.015" fill="#323944"/>
    <path id="path254" d="M94.815-84.416l32.681.051,0-2.07a.739.739,0,0,0-.737-.74l-31.942-.049,0,2.808" fill="#131112"/>
    <path id="path256" d="M76.364-97.319s-4.917,7.051-4.549,11.525H90.523s1.41-3.617-4.107-11.525H76.364" fill="#2a2f3a"/>
    <path id="path258" d="M70.947-84.413l20.63.031,0-2.068c0-.408-.208-.739-.466-.739L71.7-87.22a.748.748,0,0,0-.749.746l0,2.06" fill="#131112"/>
  </g>
</svg>
