<svg xmlns="http://www.w3.org/2000/svg" width="130.756" height="243.148" viewBox="0 0 130.756 243.148">
  <g id="Groupe_5" data-name="Groupe 5" transform="translate(-498.691 327.513)">
    <path id="path332" d="M588.6-255.433l-9.092,9.647,3.663,6.023,9.6-10.46-4.175-5.209" fill="#e6a188"/>
    <path id="path334" d="M547.669-272.831s-2.408,5.452,9.119,33.1c0,0,6.321,11.505,9.06,11.861,4.489.583,17.06-6.151,26.608-19.933l-7.229-5.364L571.077-245l-8.3-21.413s-4.859-14.283-15.112-6.415" fill="#fabac0"/>
    <path id="path336" d="M571.077-245s-2.793,1.347-3.108,6.395" fill="none" stroke="#efa4ad" stroke-miterlimit="10" stroke-width="1"/>
    <path id="path338" d="M592.775-250.223s12.279-.085,13.1-8.333L588.6-255.433l4.175,5.209" fill="#e6a188"/>
    <path id="path340" d="M564.649-255.433h19.635v-3.144H564.649a1.572,1.572,0,0,0-1.572,1.571h0a1.573,1.573,0,0,0,1.572,1.573" fill="#c6c5c3"/>
    <path id="path342" d="M580.615-255.433h36.932a4.739,4.739,0,0,0,4.565-3.467l7.2-25.875a3.589,3.589,0,0,0-3.459-4.552H591.933A3.127,3.127,0,0,0,588.911-287l-8.3,31.563" fill="#d3cfcf"/>
    <path id="path344" d="M603.1-270.931a3.494,3.494,0,0,0,3.493,3.495,3.494,3.494,0,0,0,3.493-3.495,3.493,3.493,0,0,0-3.493-3.493,3.493,3.493,0,0,0-3.493,3.493" fill="#fff"/>
    <path id="path346" d="M535.9-282.118l-18.889,8.373a3.331,3.331,0,0,0-1.953,3.457l2.795,54.791h40.113l1.424-54.08a4.818,4.818,0,0,0-1.423-4l-11.648-8.6-10.419.065" fill="#fabac0"/>
    <path id="path348" d="M530.465-279.709l6.3,9.543,6.115-5.332,6.184,3.119v-7.777" fill="none" stroke="#efa4ad" stroke-miterlimit="10" stroke-width="1"/>
    <path id="path350" d="M542.88-275.5s.168,12.685.764,16.68c2.519,16.856-.932,29.125-.932,29.125" fill="none" stroke="#efa4ad" stroke-miterlimit="10" stroke-width="1"/>
    <path id="path352" d="M554.508-270.886s3.259,11.7,1.439,27.781" fill="none" stroke="#efa4ad" stroke-miterlimit="10" stroke-width="1"/>
    <path id="path354" d="M536.765-234.015l-12.612-.284-1.692,6.843,14.189-.561.115-6" fill="#e6a188"/>
    <path id="path356" d="M536.765-234.015l7.9-7.8a1.2,1.2,0,0,1,1.495-.149h0a1.2,1.2,0,0,1,.385,1.6l-1.56,2.727,6.864-.389a1.291,1.291,0,0,1,1.284,1.667l-1.46,4.8a1.276,1.276,0,0,1-.805.844c-2.692.933-9.807,4.463-14.22,2.7l.115-6" fill="#e6a188"/>
    <path id="path358" d="M516.285-273.3s-5.424,2.369-15.211,29.537c0,0-3.693,10.455-1.885,12.457,2.964,3.283,17.588,8.311,33.885,4.531l.2-8.907-18.023-2.735,8.051-20.64s5.876-13.335-7.015-14.244" fill="#fabac0"/>
    <path id="path360" d="M507.064-236.638c3.392-3.54,8.185-1.779,8.185-1.779l8.051-20.64s5.339-9.873-2.905-13.323" fill="none" stroke="#efa4ad" stroke-miterlimit="10" stroke-width="1"/>
    <path id="path362" d="M520.395-224.965s10.168.617,12.877,0v-10.717l-18.023-2.735" fill="none" stroke="#efa4ad" stroke-miterlimit="10" stroke-width="1"/>
    <path id="path364" d="M558.424-313.338s4.224,4.512-1.028,11.587l-4.317-9.972,5.345-1.615" fill="#1e1f26"/>
    <path id="path366" d="M534.339-300.894l13.224,9.14.179,10.527-4.819,5.387-10.773-4.149-.251-15.681,2.44-5.223" fill="#e6a188"/>
    <path id="path368" d="M547.7-283.074s-12.776,1.223-11.795-16.135l4.344,2.5,7.551,8.432-.1,5.2" fill="#d17572"/>
    <path id="path370" d="M548.621-286.086l-.429.049A11.585,11.585,0,0,1,535.34-296.2l-1.517-12.992a3,3,0,0,1,2.631-3.325l15.145-1.771a5.359,5.359,0,0,1,5.941,4.7l1.244,10.651a11.587,11.587,0,0,1-10.163,12.852" fill="#e6a188"/>
    <path id="path372" d="M529.608-315.083c1.18-7.879,7.452-8.371,9.137-8.5s6.3,1.42,8.456-.157c2.036-1.493,4.548-4.763,10.243-3.485,3.909.879,6.721,6.685,2.811,12.553-3.639,5.464-20,5.017-23.424,4.861.627,2.5,1.8,8.7-1.239,11.263a10.927,10.927,0,0,1-3.585,6.449c-18.1-20.2-2.4-22.987-2.4-22.987" fill="#1e1f26"/>
    <path id="path374" d="M537.553-300.838a4.172,4.172,0,0,1-3.659,4.628,4.173,4.173,0,0,1-4.629-3.66,4.171,4.171,0,0,1,3.66-4.628,4.172,4.172,0,0,1,4.628,3.66" fill="#e6a188"/>
    <path id="path376" d="M548.029-302.655a.943.943,0,0,1-.908.98.945.945,0,0,1-.981-.907.946.946,0,0,1,.908-.981.947.947,0,0,1,.981.908" fill="#1e1f26"/>
    <path id="path378" d="M556.053-303.618a.947.947,0,0,1-.908.981.944.944,0,0,1-.981-.908.943.943,0,0,1,.907-.98.945.945,0,0,1,.983.907" fill="#1e1f26"/>
    <path id="path380" d="M552.377-301.621l.684,2.487s0,1.439-2.084,1.117" fill="none" stroke="#d17572" stroke-linecap="round" stroke-linejoin="round" stroke-miterlimit="10" stroke-width="0.754"/>
    <path id="path382" d="M544.251-305.082a.87.87,0,0,0,.176-.009l4.231-.652a.868.868,0,0,0,.724-.988.865.865,0,0,0-.988-.723l-4.231.652a.865.865,0,0,0-.723.988.865.865,0,0,0,.811.732" fill="#1e1f26"/>
    <path id="path384" d="M553.9-306.387a.857.857,0,0,0,.175-.009l2.587-.4a.866.866,0,0,0,.724-.988.867.867,0,0,0-.988-.724l-2.585.4a.866.866,0,0,0-.724.987.867.867,0,0,0,.812.733" fill="#1e1f26"/>
    <path id="path386" d="M547.085-295.807s2.307,1.8,7.079.193" fill="none" stroke="#d17572" stroke-linecap="round" stroke-linejoin="round" stroke-miterlimit="10" stroke-width="0.754"/>
    <path id="path388" d="M557.967-215.5l-1.187,62.953-4.332,54.315-14.811.016,2.717-54.32,1.121-62.964h16.491" fill="#211d29"/>
    <path id="path390" d="M552.448-98.229l6.8,5.288,6.121,1.234a6.471,6.471,0,0,1,5.165,5.781l.116,1.337-33.968-.052.952-13.573,14.811-.016" fill="#131112"/>
    <path id="path392" d="M536.552-84.419l34.233.054,0-2.167a.774.774,0,0,0-.773-.775l-33.459-.052-.005,2.94" fill="#211d29"/>
    <path id="path394" d="M546.211-211.873v11.4a11.135,11.135,0,0,1-4.7,9.085l-.035.025" fill="none" stroke="#181519" stroke-miterlimit="10" stroke-width="1"/>
    <path id="path396" d="M537.907-103.932h15.052" fill="none" stroke="#181519" stroke-miterlimit="10" stroke-width="1"/>
    <path id="path398" d="M518.547-215.5l.548,63.613-3.587,53.67,14.8-.013,6.043-54.008,8.644-63.262H518.547" fill="#211d29"/>
    <path id="path400" d="M530.305-98.226l6.816,5.285,6.123,1.234a6.466,6.466,0,0,1,5.164,5.781l.116,1.337-33.967-.052.951-13.573,14.8-.013" fill="#131112"/>
    <path id="path402" d="M514.423-84.419l34.235.054,0-2.167a.774.774,0,0,0-.773-.775l-33.46-.052-.005,2.94" fill="#211d29"/>
    <path id="path404" d="M518.712-211.873h39.259" fill="none" stroke="#181519" stroke-miterlimit="10" stroke-width="1"/>
    <path id="path406" d="M541.476-185.065c.1-.863,0-26.808,0-26.808" fill="none" stroke="#181519" stroke-miterlimit="10" stroke-width="1"/>
    <path id="path408" d="M516.032-103.932h15.052" fill="none" stroke="#181519" stroke-miterlimit="10" stroke-width="1"/>
  </g>
</svg>
