<svg xmlns="http://www.w3.org/2000/svg" width="207.798" height="503.842" viewBox="0 0 207.798 503.842">
  <g id="Groupe_2" data-name="Groupe 2" transform="translate(-283.891 577.999)">
    <path id="path70" d="M441.872-441.594c-7.576-.881-63.819,8.013-65.365-.585s7.956-22.953-1.656-45.449c-.421-.988-.825-1.933-1.217-2.856H344.271c1.069,12.859-1.021,66.268,24.24,71.465,34.312,7.059,74.694-5.912,74.694-5.912s-4.172-8.919-1.333-16.663" fill="#f47128"/>
    <path id="path72" d="M385.135-556.457s5.591,18.285-.512,29.971S372.938-511.9,369.315-510.68s-18.267,1.176-25.993-16.081,20.563-49.863,41.813-29.7" fill="#fab6a4"/>
    <path id="path74" d="M446.059-114.752c-3.811-6.328-9.424-30.041-9.424-30.041L422.7-138.854a86.326,86.326,0,0,1,4.359,24.1h19" fill="#fab6a4"/>
    <path id="path76" d="M423.726-129.038s14.947-1.306,19.972-4.5c2.857,8.91,2.647,15.306,11.9,18.22s22.847-6.283,32.1.569c3.428,3.257,3.3,8.683,3.3,8.683S434.9-88.99,431.248-92.647c-4.611-4.076-4.169-12.565-3.656-18.39s-3.867-18-3.867-18" fill="#a15127"/>
    <path id="path78" d="M430.232-93.728A163.187,163.187,0,0,0,461.764-99.1c18.049-4.8,28.788-10.394,28.788-10.394a8.78,8.78,0,0,1,.971,6.055c-14.908,5.482-34.871,12.079-50.035,14.393-10.195,1.628-9.423.428-10.195-.687a11.833,11.833,0,0,1-1.061-3.993" fill="#773c25"/>
    <path id="path80" d="M306.309-99.7c-1.559-7.221,4.976-35.179,4.976-35.179l-15.592-2.656s-3.444,18.8-7.364,31.687l17.98,6.148" fill="#fab6a4"/>
    <path id="path82" d="M289.8-120.448s14.564,3.6,20.356,2.2c-.181,9.356-2.449,15.34,5.363,21.09s23.651,1.445,30.189,10.924c2.189,4.189.309,9.28.309,9.28s-58.6-1.984-60.873-6.627c-3.043-5.346.12-13.237,2.491-18.584s2.165-18.284,2.165-18.284" fill="#a15127"/>
    <path id="path84" d="M284.531-84.93a163.258,163.258,0,0,0,31.577,5.117c18.629,1.3,30.6-.524,30.6-.524a8.772,8.772,0,0,1-1.041,6.043c-15.879.367-36.9.151-52-2.567-10.173-1.757-9.056-2.643-9.425-3.945a11.844,11.844,0,0,1,.287-4.124" fill="#773c25"/>
    <path id="path86" d="M384.448-368.256s43.5,109.228,44.74,126.378,10.569,99.584,10.569,99.584-10.413,6.64-21.14,6.64c-14.456-37.345-17.721-88.8-17.255-101.66-37.135-56.692-46.111-74.973-46.111-74.973s-7.517,72.069-10.627,84.793-29.3,100.952-29.3,100.952-21.417-.319-23.749-5.71c3.264-41.91,22.112-84.729,24.444-98.007s-7.463-48.548-7-76.349-2.371-52.044,3.225-63.248,72.194,1.6,72.194,1.6" fill="#322a5d"/>
    <path id="path88" d="M357.718-507.707c18.529,8.891,26.391,21.015,29.656,38.443s-.8,47.877.6,74.848A215.9,215.9,0,0,0,396.1-346.1s-63.927,19.3-92.528,7.263c.456-34.42,3.887-61.2,1.4-86.1s-2.361-51.877.5-63.725c2.273-9.425,42.992-23.493,52.249-19.051" fill="#ee681e"/>
    <path id="path90" d="M343.667-532.269s-7.3,23.14-12.447,28.008c7.192,3.5,10.905,3.668,17.073,13.72s15.649,5.369,15.421-1.028-3.6-6.859-4.284-12.711,3.649-20.051,3.649-20.051l-19.413-7.939" fill="#fab6a4"/>
    <path id="path92" d="M369.37-548.8s10.28,15.593,25.873,14.223,10.281-21.539,3.941-22.567c5.825-3.6-1.363-10.5-9.353-11.308,7.639-2.571-10.172-12.852-22-6.511-1.2-6.684-21.952-1.767-25.811,9.2s-1.452,42.508-1.735,43.26c5.267-4.879,5.5-8.648,7.184-11.389s-.632-10.143,2.024-12.7,5.653-1.7,6.511,2.673a21.92,21.92,0,0,1,.085,7.967l2.143,1.457s4.2-4.969,7.453-5.568,3.684-8.74,3.684-8.74" fill="#b54c1f"/>
    <path id="path94" d="M413.232-429.75a13.649,13.649,0,0,0,4.955-2.743c2.569-2.113,4-6.225,5.312-6.739s10.852,2.512,10.623,4.14-3.94,1.513-5.539.943-2.571-.943-2.571-.943-1.543,1.285-.172,3.684-.468,10.24-.468,10.24l-11.416,3.751-.724-12.333" fill="#fab6a4"/>
    <path id="path96" d="M428.835-442.586l23.924-2.921c.812-.1,2.411,1.175,2.2,1.963l-4.924,14.111a1.149,1.149,0,0,1-.987.843l-22.913,2.5a1.152,1.152,0,0,1-1.252-1.38l2.968-14.2a1.151,1.151,0,0,1,.988-.907" fill="#757071"/>
    <path id="path98" d="M429.991-441.43l23.925-2.92a1.151,1.151,0,0,1,1.251,1.444l-3.979,14.628a1.15,1.15,0,0,1-.987.843l-22.913,2.5a1.151,1.151,0,0,1-1.253-1.38l2.968-14.2a1.154,1.154,0,0,1,.988-.907" fill="#4d4241"/>
    <path id="path100" d="M424.387-433.334a22.873,22.873,0,0,0,14.059-4.248c2.973-1.719,3.328.2,2.761,1.215s-3.895,3.876-10.2,4.989a9.214,9.214,0,0,0,6.019-.472c1.841-.641,3.144-2.832,4.4-3.271s1.865-.371,2.112.3-2.372,3.2-3.789,4.281a17.984,17.984,0,0,1-4.284,2.124c3.541-.539,5.807-.944,7.153-1.753s1.911,1.281-.567,2.428-6.876,2.7-8.435,2.805c1.805.539,5.3-.353,8.036-1.428,1.177-.5,1.6.376.5,1.287s-5.427,2.872-10.04,3.355c-4.353.457-8.66,1.871-12.183,2.335s4.447-13.951,4.447-13.951" fill="#fab6a4"/>
    <path id="path102" d="M454.812-441.594s1.8.64,1.4,3.324-7.556,3.244-9.555,1.7c-1.828-1.543.579-2.635,2.292-1.885a4.3,4.3,0,0,0,5.863-3.141" fill="#fab6a4"/>
    <path id="path104" d="M453.194-430.879s1.352.48,1.052,2.5-5.677,2.437-7.18,1.279c-1.372-1.159.435-1.98,1.723-1.416a3.235,3.235,0,0,0,4.405-2.36" fill="#fab6a4"/>
    <path id="path106" d="M453.4-433.746s1.677.588,1.3,3.057-7.04,2.985-8.9,1.567c-1.7-1.419.429-2.12,2.059-1.511a4.148,4.148,0,0,0,5.54-3.113" fill="#fab6a4"/>
    <path id="path108" d="M453.572-436.939s1.8.639,1.4,3.324-7.555,3.244-9.555,1.7c-1.828-1.541.579-2.635,2.292-1.884a4.307,4.307,0,0,0,5.864-3.141" fill="#fab6a4"/>
    <path id="path110" d="M301.173-463.64s-.7-18.74,5.484-26.844,25.245-8.627,24.332,17.172c-.867,24.449-1.635,48.013,2.135,55.9s73.469-13.191,81.009-14.347c-.687,8.219,2.74,20.429,2.74,20.429s-63.377,27.716-98.333,30c-29.516,1.929-17.367-82.306-17.367-82.306" fill="#f57d36"/>
    <path id="path112" d="M301.175-127.861l-1.005-.216c3.647-16.974,14.045-54.109,19.632-74.058,1.468-5.241,2.576-9.2,3.1-11.128,2.033-7.559,1.184-11.209.435-14.432-.141-.611-.279-1.2-.389-1.788-.3-1.6.491-3.091,1.584-5.155a38.04,38.04,0,0,0,4.805-16.457c1.127-14.188-4.624-83.049-4.683-83.744l1.024-.085c.059.695,5.817,69.64,4.684,83.909a39,39,0,0,1-4.921,16.86c-1.033,1.949-1.716,3.237-1.483,4.481.108.576.241,1.149.38,1.748.739,3.173,1.657,7.121-.444,14.931-.52,1.931-1.628,5.891-3.1,11.137-5.584,19.94-15.979,57.052-19.617,74" fill="#576ba1"/>
    <path id="path114" d="M313.922-130.7c-9.519,0-19.923-5.12-20.383-5.35l.459-.92c.115.057,11.715,5.77,21.3,5.2l.06,1.025c-.476.028-.956.042-1.437.042" fill="#576ba1"/>
    <path id="path116" d="M327.374-310.557l-.679-.773c9.672-8.489,11.987-23.477,12.009-23.628l1.016.152c-.023.153-2.393,15.513-12.347,24.249" fill="#576ba1"/>
    <path id="path118" d="M354.8-311.5l-.057-.751c-.276-3.64,0-9.313,0-9.369l1.028.049c0,.052-.237,4.915-.051,8.471,12.505-6.677,9.58-24.5,9.548-24.685l1.013-.176c.033.193,3.2,19.416-10.8,26.136l-.677.325" fill="#576ba1"/>
    <path id="path120" d="M428.176-139c-5.008-12.972-10.312-63.091-12.861-87.177-.717-6.779-1.284-12.132-1.431-12.623a4.738,4.738,0,0,0-.961-1.711,5.614,5.614,0,0,1-1.344-4.149c0-6.5-4.18-14.145-12.423-22.717-11.328-11.783-36.359-51.472-36.611-51.872l.869-.547c.252.4,25.227,40,36.483,51.705,8.433,8.772,12.709,16.655,12.709,23.431a4.651,4.651,0,0,0,1.127,3.516,5.738,5.738,0,0,1,1.135,2.049c.168.557.572,4.331,1.469,12.809,2.544,24.041,7.84,74.07,12.8,86.916l-.959.369" fill="#576ba1"/>
  </g>
</svg>
