<svg xmlns="http://www.w3.org/2000/svg" width="285.518" height="520.258" viewBox="0 0 285.518 520.258">
  <g id="Groupe_1" data-name="Groupe 1" transform="translate(-467.559 594.416)">
    <path id="path122" d="M600.854-104.712s-18.811,14.926-30.313,20.245c-7.02,3.247,2.279,14,20.293,9.007,5.611-1.555,10.651-6.807,15.843-10.526,4.683-3.353,9.7-5.2,11.557-6.51,3.905-2.768-2.727-12.656-4.843-13.959-1.588,2.971-8.555,4.095-12.537,1.743" fill="#322a5d"/>
    <path id="path124" d="M608.141-90.913c-5.191,3.719-10.231,8.972-15.841,10.527-11.805,3.27-19.867-.219-22.047-3.926-6.444,3.41,2.832,13.771,20.581,8.852,5.611-1.555,10.651-6.807,15.843-10.526,4.683-3.353,9.7-5.2,11.557-6.51,1.307-.927,1.42-2.655.931-4.587-2.16,1.291-6.731,3.1-11.024,6.169" fill="#e7e7e6"/>
    <path id="path126" d="M657.869-104.556s18.612,14.77,30.115,20.09c7.02,3.247-2.28,14-20.292,9.007-5.611-1.555-10.653-6.807-15.844-10.526-4.681-3.353-9.705-5.2-11.557-6.51-3.907-2.768,2.727-12.656,4.844-13.959,1.585,2.971,8.752,4.252,12.735,1.9" fill="#322a5d"/>
    <path id="path128" d="M650.382-90.913c5.192,3.719,10.233,8.972,15.844,10.527,11.8,3.27,19.864-.219,22.045-3.926,6.444,3.41-2.833,13.771-20.58,8.852-5.611-1.555-10.652-6.807-15.844-10.526-4.681-3.353-9.705-5.2-11.557-6.51-1.307-.927-1.42-2.655-.931-4.587,2.16,1.291,6.731,3.1,11.023,6.169" fill="#e7e7e6"/>
    <path id="path130" d="M613.189-114.417s0,3.8.543,9.767c-3.908,5.86-13.023,1.844-13.023,1.844a66.644,66.644,0,0,0,0-12.153c3.364-.976,12.48.543,12.48.543" fill="#fab6a4"/>
    <path id="path132" d="M645.526-114.417s0,3.8-.544,9.767c3.908,5.86,13.023,1.844,13.023,1.844a66.644,66.644,0,0,1,0-12.153c-3.364-.976-12.479.543-12.479.543" fill="#fab6a4"/>
    <path id="path134" d="M590.455-353.492s-8.452,74.661,0,143.218,8.371,97.268,8.371,97.268,11.584,1.254,15.34,0c1.565-34.434,1.645-92.258,1.645-107.6s8.14-80.765,10.331-87.026c5.948,36.627,9.079,78.886,9.705,87.653s3.988,82.416,8.683,107.529c14.715,3.2,16.905-1.808,16.905-1.808s1.333-92.67,1.647-116.57,5.321-87.446,0-113.742c-34.121-4.383-72.627-8.923-72.627-8.923" fill="#322a5d"/>
    <path id="path136" d="M615.5-485.753a97,97,0,0,1-34.8,4.684c.389,9.445,5.885,28.917,5.792,44.947-.207,35.5.649,81.868-6.683,100.63,18.471,15.965,86.4,5.009,92.348-3.443-3.443-18.469-5.633-119.27-4.069-136.174-7.2-9.079-43.637-12.935-52.591-10.644" fill="#95d1ed"/>
    <path id="path138" d="M729.666-474.86a32.259,32.259,0,0,0,.709-7.3c-.141-3.548-2.405-4.684-2.835-9.225a6.868,6.868,0,0,1,3.544-6.955c.711-.284,4.259.851,4.259.851s2.128-15.187,4.825-16.748,1.916,1.632,1.561,3.832-1.845,11.5-2.129,13.555c6.743-10.929,10.859-15.187,12.42-15.044s1.348,1.632-.355,3.973-6.1,9.936-6.1,9.936a2.861,2.861,0,0,1,2.7,3.228c2.839-.248,3.335,2.165,2.839,4.081s-2.343,5.464-6.316,10.22-3.479,8.871-3.479,8.871l-11.637-3.277" fill="#fab6a4"/>
    <path id="path140" d="M736.2-482.237a.177.177,0,0,1-.081-.019.184.184,0,0,1-.083-.245c1.775-3.549-.149-7.756-2.688-10.163l-.96-.911,1.171.616a30.171,30.171,0,0,0,4.843,2.06,3,3,0,0,0,2.915-1.551,1.571,1.571,0,0,0-.669-2.033,20.994,20.994,0,0,0-5.364-2.829.183.183,0,0,1-.116-.232.184.184,0,0,1,.231-.116,21.384,21.384,0,0,1,5.472,2.887,1.9,1.9,0,0,1,.777,2.481,3.365,3.365,0,0,1-3.332,1.748,23.317,23.317,0,0,1-3.969-1.608c2.237,2.564,3.7,6.459,2.019,9.815a.185.185,0,0,1-.164.1" fill="#ee9783"/>
    <path id="path142" d="M743.126-483.236a1.562,1.562,0,0,1-.3-.028c-.525-.1-1.4-.583-1.356-2.7.085-4.153,6.409-8.745,6.679-8.939a.182.182,0,0,1,.256.041.182.182,0,0,1-.043.255c-.063.047-6.445,4.679-6.524,8.651-.028,1.369.348,2.2,1.056,2.333a2.719,2.719,0,0,0,2.535-1.751,8.733,8.733,0,0,1,2.719-3.3.186.186,0,0,1,.256.04.182.182,0,0,1-.04.256,8.529,8.529,0,0,0-2.591,3.131,3.265,3.265,0,0,1-2.651,2.009" fill="#ee9783"/>
    <path id="path144" d="M741.146-494.1a.175.175,0,0,1-.084-.021.181.181,0,0,1-.077-.247c1.092-2.083,4.359-3.713,4.5-3.781a.181.181,0,0,1,.245.083.183.183,0,0,1-.084.245c-.032.016-3.3,1.647-4.336,3.624a.183.183,0,0,1-.161.1" fill="#ee9783"/>
    <path id="path146" d="M739.633-485.392h-.047a1.6,1.6,0,0,1-1.249-.7c-1.359-1.783.127-4.556.189-4.672a.183.183,0,0,1,.248-.073.182.182,0,0,1,.073.248c-.015.027-1.433,2.681-.219,4.276a1.233,1.233,0,0,0,.968.556h.036c.98,0,1.983-1.157,1.993-1.169a.184.184,0,0,1,.257-.02.182.182,0,0,1,.021.257,3.7,3.7,0,0,1-2.272,1.3" fill="#ee9783"/>
    <path id="path148" d="M668.089-475.109s25.184,25.229,45.368,57.588c13.673,19.336,13.021,23.895,13.021,23.895s-3.689,11.936-14.757,8.681-46.2-45.1-46.2-45.1-9.264-10.651,2.572-45.064" fill="#95d1ed"/>
    <path id="path150" d="M702.172-393.844s18.773-53.932,26.1-83.4c9.977,4.776,16.651,3.1,16.651,3.1s-8.247,58.164-14.759,74.225-8.653,16.629-16.44,15.537c-6.829-2.347-11.556-9.461-11.556-9.461" fill="#95d1ed"/>
    <path id="path152" d="M476.939-544.807s-5.723-6.323-8.111-12.125-.824-15.589,0-17.668,3.705-8.228,7.247-7.623,6.716,8.748,6.716,8.748-1.116,11.52-1.116,11.867,1.116,13.251,1.116,13.251l-5.852,3.551" fill="#fab6a4"/>
    <path id="path154" d="M476.076-594.416l-6.5,29.455,13.639,1.148,8.852-26.064-15.993-4.539" fill="#4d4241"/>
    <path id="path156" d="M484.187-551.045a14.119,14.119,0,0,1,.723-5.464c.949-2.168,4.676-8.54,4.271-11.115s-9.217-6.372-10.709-5.965-1.695,2.712.881,4.067,3.679,2.44,3.941,2.983c-5.568,3.864-6.924,5.355-6.924,9.217s2.168,9.624,2.168,9.624l5.649-3.347" fill="#fab6a4"/>
    <path id="path158" d="M479.956-564.089a13.05,13.05,0,0,0-4.013,11.036c-.667-2.279-.585-8.18,4.013-11.036" fill="#ee9783"/>
    <path id="path160" d="M600.9-475.851s-33.2-10.659-69.124-13c-22.189-2.743-25.193,1.1-25.193,1.1a54.248,54.248,0,0,0,11.188,17.833c7.648,7.755,67.479,19.327,67.479,19.327s11.475-10.04,15.651-25.253" fill="#95d1ed"/>
    <path id="path162" d="M531.777-488.855l-46.509-64.728L469.9-544.639s24.279,56.548,43.024,71.606,18.851-15.823,18.851-15.823" fill="#95d1ed"/>
    <path id="path164" d="M643.621-510.168s-2.563,21.243,0,27.667c-2.327,5.968-7.319,16.839-19.148,15.192-11.408-1.588-11.715-9.761-8.328-15.016a54,54,0,0,0,4.205-9.4c2.031-5.384,2.808-19.369,2.808-19.369l20.463.927" fill="#fab6a4"/>
    <path id="path166" d="M636.96-550.653s-16.817,8.121-21.147,20.247-2.708,18.053-1.177,21.457,11.273,13.875,28.769,7.967,22.105-47.812-6.445-49.671" fill="#fab6a4"/>
    <path id="path168" d="M641.925-534.272s-18.835-7.22-28.193-19.308,10.363-8.312,15.305-4.449c-1.285-6.563,10.725-4.433,16.6.76-3.224-7.18,16.476-.451,11.817,11.72,5.588-3.569,16.873,9.288,8.036,24.308-5.759,9.785-22.775,24.559-23.128,25.26,0-7.011,2.551-9.68,3.4-12.7s7.691-6.275,7.76-9.872-2.535-5.179-6.235-2.895a33.5,33.5,0,0,0-6.555,5.493l-1.679-.84s.777-6.305-.952-9.036,3.82-8.437,3.82-8.437" fill="#b54c1f"/>
    <path id="path170" d="M639.08-522.617a19.92,19.92,0,0,1-10.137,11.785c-7.941,3.7-13.912-3.764-15.917-5.892-4.721,3.512-6.781,9.481-6.239,11.868s18.121,6.185,25.609,2.821,2.809-7.979,8.676-14.3c2.284-6.212-1.992-6.285-1.992-6.285" fill="#b54c1f"/>
    <path id="path172" d="M666.394-428.508c-12.036-16.356-4.711-38.516-4.636-38.739l.617.211c-.073.219-7.289,22.064,4.541,38.143l-.523.385" fill="#576ba1"/>
    <path id="path174" d="M584.925-450.6c-.1-18.483,10.192-28.621,10.295-28.721l.453.468c-.1.1-10.2,10.06-10.1,28.249l-.652,0" fill="#576ba1"/>
    <path id="path176" d="M707.272-401.875h-.651c0-6.921,4.2-18.659,4.375-19.155l.612.22c-.043.12-4.336,12.127-4.336,18.935" fill="#576ba1"/>
  </g>
</svg>
