<svg xmlns="http://www.w3.org/2000/svg" width="268.559" height="530.699" viewBox="0 0 268.559 530.699">
  <g id="Groupe_1" data-name="Groupe 1" transform="translate(-61.69 531.401)">
    <path id="path316" d="M158.106-430.519h55.736l-.956,35.359-44.785,10.2-9.995-45.56" fill="#33535f"/>
    <path id="path318" d="M147.836-51.153l-10.4,25.224s22.145,19.048,20.676,23.9L108.475-20.449l14.6-39.969,24.762,9.266" fill="#f2575d"/>
    <path id="path320" d="M158.109-2.033,108.475-20.449l11.552-31.628,24.661,8.556-7.255,17.592h0S158.173-8.09,158.18-2.545a1.735,1.735,0,0,1-.071.512" fill="#cc4341"/>
    <path id="path322" d="M122.882-33.773a2.16,2.16,0,0,0-2.26,1.792,2.079,2.079,0,0,0,1.758,2.256,2.28,2.28,0,0,0,2.383-1.912c.019-1.063-1.035-2.288-2.088-2.143" fill="#dadbd8"/>
    <path id="path324" d="M108.475-20.449l1.629-3.972,46.98,19.143s1.853,1.783,1.025,3.245L108.475-20.449" fill="#17282f"/>
    <path id="path326" d="M138.33-25.883c-.1.239-1.351-.1-2.832.236-1.491.3-2.495,1.12-2.682.942-.206-.13.693-1.445,2.494-1.821,1.8-.392,3.156.44,3.02.644" fill="#17282f"/>
    <path id="path328" d="M142.737-21.8c-.031.255-1.233.279-2.437,1-1.224.684-1.844,1.715-2.081,1.615-.241-.045.117-1.527,1.631-2.395s2.969-.451,2.888-.218" fill="#17282f"/>
    <path id="path330" d="M143.382-14.471c-.24-.029-.128-1.365.988-2.463s2.444-1.2,2.472-.964c.063.249-.937.689-1.839,1.6-.923.892-1.372,1.888-1.621,1.822" fill="#17282f"/>
    <path id="path332" d="M140.064-31.895c-.183.183-1.172-.564-2.576-.98-1.4-.444-2.632-.379-2.681-.633-.076-.228,1.3-.739,2.945-.225,1.651.5,2.5,1.692,2.312,1.839" fill="#17282f"/>
    <path id="path334" d="M122.676-46.857l-.821,28.752S150.8-7.615,151.169-2.286l-55.8.409-.558-44.849,27.87-.131" fill="#f2575d"/>
    <path id="path336" d="M104.582-20.4a2.277,2.277,0,0,0-1.557,2.612,2.192,2.192,0,0,0,2.576,1.565,2.4,2.4,0,0,0,1.633-2.774,2.272,2.272,0,0,0-2.859-1.332" fill="#dadbd8"/>
    <path id="path338" d="M95.333-.7l-.058-4.344,53.67-.055s2.492,1.061,2.224,2.815L95.333-.7" fill="#17282f"/>
    <path id="path340" d="M122.757-18.4c-.007.272-1.368.406-2.7,1.292-1.357.851-2.04,2.036-2.292,1.931-.251-.051.143-1.684,1.778-2.728s3.274-.746,3.217-.494" fill="#17282f"/>
    <path id="path342" d="M128.628-16.019c.064.263-1.113.736-2.03,1.895-.951,1.133-1.175,2.38-1.446,2.371-.257.044-.457-1.549.711-2.97s2.756-1.555,2.765-1.3" fill="#17282f"/>
    <path id="path344" d="M132-9.039c-.247.06-.637-1.3.052-2.795s1.958-2.1,2.077-1.876c.155.223-.667,1.031-1.214,2.269-.575,1.224-.645,2.373-.915,2.4" fill="#17282f"/>
    <path id="path346" d="M122.217-24.969c-.112.25-1.366-.119-2.905,0-1.542.086-2.737.61-2.88.379-.159-.2,1-1.214,2.819-1.324,1.813-.125,3.1.732,2.966.948" fill="#17282f"/>
    <path id="path348" d="M174.006-301.657s22.769,91.909,26.516,121.4c2.608,20.537-2.543,34.047-3.153,38.159a11.458,11.458,0,0,1-1.349,3.933L146.845-42.772,112.863-54.562s25.47-76.918,31.04-89.293l6.264-11.139L100.59-280.555l73.416-21.1" fill="#17282f"/>
    <path id="path350" d="M149.864-281.829c.631,2.52-29.24,150.3-29.24,150.3l3.839,105.873L93.047-24.8s-16.072-57.685-16.7-91.714,3.211-39.841.43-61.1c-2.932-22.4-20.906-68.55-12.759-99.853,6.814-26.176,24.376-38.769,24.376-38.769l61.472,34.408" fill="#17282f"/>
    <path id="path352" d="M124.487-24.767a2.774,2.774,0,0,0,.022-.544c0-.4-.01-.925-.017-1.594-.033-1.451-.081-3.511-.141-6.147-.159-5.395-.387-13.14-.67-22.744-.644-19.321-1.537-46.118-2.541-76.233l-.008.1c.721-3.615,1.487-7.455,2.263-11.34,6.326-32.2,12.053-61.344,16.209-82.494,2.027-10.528,3.671-19.063,4.816-25.017.544-2.921.971-5.205,1.269-6.811.129-.747.231-1.335.308-1.775a3.256,3.256,0,0,0,.077-.611,3.229,3.229,0,0,0-.161.595c-.1.436-.227,1.017-.391,1.759-.335,1.6-.812,3.871-1.423,6.779-1.208,5.943-2.941,14.46-5.079,24.967-4.217,21.136-10.029,50.264-16.449,82.445-.773,3.884-1.539,7.724-2.259,11.338l-.009.051V-132c1.111,30.112,2.1,56.9,2.811,76.222.391,9.6.707,17.341.926,22.733.125,2.635.222,4.693.291,6.143.04.668.071,1.193.1,1.592a2.74,2.74,0,0,0,.059.541" fill="#33535f"/>
    <path id="path354" d="M149.89-157.037c-.192.085,1.308,2.967,4.441,5.325,3.113,2.389,6.291,3.06,6.321,2.853.084-.243-2.845-1.24-5.815-3.52-2.992-2.248-4.737-4.8-4.948-4.659" fill="#33535f"/>
    <path id="path356" d="M87.853-516.732c-3.679-3.143-9.349-3.328-13.626-1.065s-7.2,6.616-8.482,11.281A14.959,14.959,0,0,0,65.4-499.1a8.821,8.821,0,0,0,4.325,5.849c.985.5,2.156.836,2.753,1.767,1.148,1.791-.679,4.189-.1,6.236.477,1.7,2.544,2.541,4.274,2.209a8.883,8.883,0,0,0,4.4-2.783,33.9,33.9,0,0,0,9.523-20.041,9.933,9.933,0,0,0-2.719-10.871" fill="#17282f"/>
    <path id="path358" d="M294.575-50.8l-93.714-3.412a18.924,18.924,0,0,1-18.443-19.549l15.091-355.434a19.206,19.206,0,0,1,20.045-18.149l93.714,3.413a18.924,18.924,0,0,1,18.443,19.549L314.619-68.944A19.2,19.2,0,0,1,294.575-50.8" fill="#fafaf9"/>
    <path id="path360" d="M294.575-50.8s.228-.021.675-.036a16.733,16.733,0,0,0,1.988-.123,18.918,18.918,0,0,0,7.383-2.331,18.957,18.957,0,0,0,8.3-9.091,20,20,0,0,0,1.559-7.707q.168-4.262.359-9.069c1.048-25.649,2.561-62.726,4.431-108.538,1.912-45.829,4.188-100.39,6.715-160.972q.956-22.72,1.957-46.525.5-11.892,1.012-24.031c.116-4.055.689-8.128-.793-11.881a18.179,18.179,0,0,0-7.332-9.264,18.355,18.355,0,0,0-5.573-2.443,28.1,28.1,0,0,0-6.183-.661l-12.784-.463-25.872-.939-52.856-1.921a19.343,19.343,0,0,0-12.131,3.781,18.6,18.6,0,0,0-6.869,10.413,31.639,31.639,0,0,0-.609,6.329q-.138,3.226-.275,6.441-.274,6.432-.545,12.817-1.09,25.54-2.144,50.291c-1.412,32.971-2.772,64.775-4.069,95.07-2.617,60.588-4.975,115.148-6.956,160.976q-.374,8.591-.731,16.767-.178,4.088-.353,8.067a21.816,21.816,0,0,0,.537,7.69,18.591,18.591,0,0,0,9.036,11.3,19.14,19.14,0,0,0,6.793,2.182c2.336.251,4.747.225,7.055.348l47.664,1.828,30.12,1.2c3.427.148,6.044.261,7.831.34,1.764.081,2.667.152,2.667.152s-.905.005-2.671-.04l-7.837-.231-30.128-.995c-13.088-.451-29.093-1-47.672-1.643-2.332-.117-4.664-.077-7.111-.332a19.764,19.764,0,0,1-7.039-2.235,19.267,19.267,0,0,1-9.4-11.692,22.52,22.52,0,0,1-.583-7.9q.166-3.98.333-8.068.336-8.174.692-16.77c1.912-45.829,4.188-100.393,6.715-160.982,1.276-30.3,2.616-62.1,4.005-95.073q1.044-24.728,2.127-50.292.27-6.384.543-12.816.136-3.216.273-6.443a32.6,32.6,0,0,1,.637-6.532,19.707,19.707,0,0,1,7.28-11.04,20.487,20.487,0,0,1,12.857-4.008q26.766.974,52.856,1.927l25.872.945,12.783.468a29.18,29.18,0,0,1,6.417.7,19.451,19.451,0,0,1,5.9,2.591,19.253,19.253,0,0,1,7.757,9.809,18.014,18.014,0,0,1,1.059,6.165c.005,2.084-.148,4.073-.215,6.108q-.518,12.134-1.028,24.029-1.018,23.784-1.993,46.524c-2.619,60.577-4.976,115.136-6.955,160.964-2.021,45.805-3.656,82.88-4.787,108.525q-.218,4.8-.411,9.068a20.331,20.331,0,0,1-1.637,7.82,19.141,19.141,0,0,1-8.493,9.155,18.631,18.631,0,0,1-7.481,2.249,9.189,9.189,0,0,1-1.513.069c-.184,0-.347-.007-.487,0-.448,0-.673-.02-.673-.02" fill="#17282f"/>
    <path id="path362" d="M321.538-357.047l-121.589-4.427,2.591-61.016,121.589,4.427-2.591,61.016" fill="#f2575d"/>
    <path id="path364" d="M317.867-270.621,196.28-275.047l2.591-61.016,121.589,4.427-2.592,61.016" fill="#f2575d"/>
    <path id="path366" d="M314.2-184.194,192.61-188.621l2.591-61.016,121.588,4.427L314.2-184.194" fill="#f2575d"/>
    <path id="path368" d="M310.529-97.766l-121.588-4.428,2.589-61.016,121.589,4.427-2.591,61.017" fill="#f2575d"/>
    <path id="path370" d="M321.538-357.047l-13.495-.491c0-.176,0-.345-.005-.521q-.208-23.412-.428-47.944-.058-6.3-.115-12.665l16.633.605-2.591,61.016" fill="#f25152"/>
    <path id="path372" d="M317.867-270.621l-9.076-.331c-.168-19.489-.345-39.9-.528-61.129l12.2.444-2.592,61.016" fill="#ee4947"/>
    <path id="path374" d="M309.379-202.932q-.176-20.29-.368-42.561l7.777.283L315.115-205.8l-3.3,1.3a17.529,17.529,0,0,0-2.44,1.567" fill="#cc4341"/>
    <path id="path376" d="M310.529-97.766l-.319-.012q-.018-2.158-.035-4.39c.165.257.335.514.508.766l-.155,3.636" fill="#ab3837"/>
    <path id="path378" d="M292.787-49.755l-90.908.947c-9.739.1-17.712-8.155-17.808-18.442l-3.429-367.363c-.1-10.287,7.721-18.708,17.46-18.809l90.909-.947c9.74-.1,17.712,8.155,17.808,18.441l3.429,367.364c.095,10.287-7.721,18.706-17.461,18.808" fill="#fafaf9"/>
    <path id="path380" d="M292.787-49.755c0-.055.871-.015,2.531-.3A16.92,16.92,0,0,0,302.2-52.9a18.411,18.411,0,0,0,7.1-10.014,24.213,24.213,0,0,0,.739-8.071q-.054-4.39-.112-9.344c-.287-26.431-.7-64.637-1.213-111.844-.475-47.225-1.037-103.45-1.663-165.878q-.228-23.412-.467-47.944-.118-12.256-.237-24.763c-.043-2.069.011-4.208-.112-6.233A19.118,19.118,0,0,0,304.9-442.9a18.109,18.109,0,0,0-7.777-8.849,16.368,16.368,0,0,0-5.559-1.865,39.989,39.989,0,0,0-5.983-.159l-12.216.129-24.724.261q-24.912.26-50.512.529a16.714,16.714,0,0,0-11.272,4.64,18.2,18.2,0,0,0-5.545,11.264c-.22,2.117-.095,4.371-.1,6.583l.061,6.639q.06,6.628.121,13.208.242,26.32.476,51.825c.305,33.979.6,66.752.883,97.974.54,62.439,1.025,118.666,1.435,165.893q.072,8.852.143,17.28.034,4.212.068,8.313a22.379,22.379,0,0,0,.995,7.854A18.052,18.052,0,0,0,194.949-50.6c3.287,1.6,6.821,1.517,10.272,1.433,1.073-.026,2.139-.051,3.187-.027l45.553-.377,28.789-.195c3.276-.008,5.779-.016,7.487-.021,1.687,0,2.551.031,2.551.031s-.863.048-2.549.085c-1.708.029-4.209.075-7.487.133l-28.787.405c-12.507.157-27.8.349-45.552.571l-6.777.068a16.937,16.937,0,0,1-6.939-1.485,18.717,18.717,0,0,1-9.94-11.17,23.181,23.181,0,0,1-1.055-8.084q-.042-4.1-.087-8.313-.088-8.424-.18-17.28c-.473-47.225-1.037-103.452-1.663-165.89-.3-31.221-.617-64-.945-97.972q-.242-25.484-.492-51.827-.062-6.58-.124-13.208l-.063-6.639a66.24,66.24,0,0,1,.105-6.727,19.358,19.358,0,0,1,5.889-11.971,17.77,17.77,0,0,1,11.977-4.931l50.512-.523q12.456-.128,24.725-.253l12.215-.125c.488,0,.979-.008,1.469-.016a27.963,27.963,0,0,1,4.669.188,17.341,17.341,0,0,1,5.9,1.984,19.194,19.194,0,0,1,8.248,9.392,20.307,20.307,0,0,1,1.416,6.276c.125,2.155.067,4.2.111,6.3q.112,12.506.224,24.764.218,24.51.428,47.944c.54,62.429,1.025,118.654,1.435,165.881.368,47.208.667,85.416.873,111.848q.034,4.95.063,9.344c.021,1.461.023,2.88-.06,4.264q-.14,1.023-.276,2.012c-.16.645-.289,1.285-.465,1.9a18.578,18.578,0,0,1-7.287,10.1,16.644,16.644,0,0,1-6.985,2.771,11.893,11.893,0,0,1-1.9.172c-.428.017-.644.012-.644.012" fill="#17282f"/>
    <path id="path382" d="M302.41-365.6,186.364-364.4l-.585-62.8L301.825-428.4l.585,62.8" fill="#f2575d"/>
    <path id="path384" d="M303.241-276.653l-116.046,1.208-.587-62.8,116.046-1.209.587,62.8" fill="#f2575d"/>
    <path id="path386" d="M304.07-187.7l-116.046,1.209-.585-62.8L303.485-250.5l.585,62.8" fill="#f2575d"/>
    <path id="path388" d="M304.9-98.752,188.854-97.543l-.587-62.8,116.046-1.208.587,62.8" fill="#f2575d"/>
    <path id="path390" d="M187.194-275.445l-.587-62.8,116.046-1.209.587,62.8-116.046,1.208" fill="#f46f77"/>
    <path id="path392" d="M188.024-186.493l-.585-62.8L303.485-250.5l.5,53.916a32.406,32.406,0,0,0-3.3,8.917l-112.662,1.173" fill="#f57e87"/>
    <path id="path394" d="M188.854-97.543l-.587-62.8,112.74-1.175c1.271,14.132,2.144,30.518,3.7,42.448l.189,20.316L188.854-97.544" fill="#f68b94"/>
    <path id="path396" d="M295.642-67.7A14.75,14.75,0,0,1,278.05-56.492a14.751,14.751,0,0,1-11.208-17.593A14.75,14.75,0,0,1,284.435-85.29,14.748,14.748,0,0,1,295.642-67.7" fill="#33535f"/>
    <path id="path398" d="M295.642-67.7c-.123-.02.216-1.3.109-3.611a14.709,14.709,0,0,0-3.564-8.839,14.374,14.374,0,0,0-12.784-4.84,14.1,14.1,0,0,0-7.505,3.431,14.3,14.3,0,0,0-4.5,7.593,14.291,14.291,0,0,0,.869,8.788,14.107,14.107,0,0,0,5.353,6.283,14.374,14.374,0,0,0,13.632,1.016,14.713,14.713,0,0,0,6.965-6.5c1.073-2.051,1.308-3.351,1.427-3.317a3.026,3.026,0,0,1-.14.939,11.481,11.481,0,0,1-.893,2.574,14.681,14.681,0,0,1-7.023,7.033,14.934,14.934,0,0,1-6.837,1.463,15.186,15.186,0,0,1-7.689-2.327,15.033,15.033,0,0,1-5.807-6.713,15.3,15.3,0,0,1-.961-9.48,15.31,15.31,0,0,1,4.879-8.181,15.035,15.035,0,0,1,8.1-3.629,15.213,15.213,0,0,1,7.951,1.141,14.939,14.939,0,0,1,5.579,4.216,14.677,14.677,0,0,1,3.393,9.341,11.482,11.482,0,0,1-.28,2.712,3.032,3.032,0,0,1-.269.911" fill="#17282f"/>
    <path id="path400" d="M212.39-358.2l-1.329,1.124a.8.8,0,0,1-.5.248.7.7,0,0,1-.528-.444,3.118,3.118,0,0,1-.076-2.461,5.169,5.169,0,0,1,1.472-2.029,1.515,1.515,0,0,1,1.031-.484,1.588,1.588,0,0,1,.969.587,15.583,15.583,0,0,1,1.033,1.185.869.869,0,0,1,.263.685.894.894,0,0,1-.355.451c-.575.468-1.4.671-1.979,1.139" fill="#9a393e"/>
    <path id="path402" d="M202.643-380.564c1.888-.072,10.393-.952,10.393-.952l14.239,3.427a4.961,4.961,0,0,1-4.083,2.535c-3.791-.081-9.105-.485-9.105-.485l-1.684,1s6.457,4.349,6.523,5.211a3.762,3.762,0,0,1-.453,1.793,6.711,6.711,0,0,1,.18,4.719l-.211,6.069-6.124,4.217a4.875,4.875,0,0,1-.493-3.281c.423-1.711,2.769-2.7,2.769-2.7l-1.415-2.535-2.148-.765s-14.06,3.927-17.328,3.692l-11.231,5.587-1.563-16.443s19.845-11.021,21.733-11.093" fill="#c4535a"/>
    <path id="path404" d="M211.127-367.8c-.059.167,1.728.9,3.737,2.144s3.484,2.489,3.605,2.361a9.412,9.412,0,0,0-3.292-2.872,9.423,9.423,0,0,0-4.051-1.633" fill="#9a393e"/>
    <path id="path406" d="M210.025-372.555c-.064.163,1.844,1.033,4.071,2.321s3.944,2.492,4.052,2.356a12.283,12.283,0,0,0-3.752-2.876,12.322,12.322,0,0,0-4.371-1.8" fill="#9a393e"/>
    <path id="path408" d="M205.656-379.439a26.117,26.117,0,0,0,3.34,2.523c1.872,1.363,3.569,2.244,3.655,2.084a21.681,21.681,0,0,0-3.308-2.573c-1.873-1.369-3.608-2.2-3.687-2.033" fill="#9a393e"/>
    <path id="path410" d="M251.143-453.886s-1.659-3.485-2.745-4.363a3.645,3.645,0,0,0-3.627-.676l-.865.511s-3.483-2.477-5.585-1.523c0,0-3.3-2.444-5.429-.821,0,0-2.441-2.38-3.945-1.025a6.652,6.652,0,0,0-1.617,5.568c.3,1.5.436,6.432,1.255,6.681,0,0,2.189.684,2.728-.465s.781-1.707.781-1.707,0,4.447.992,4.863,2.973.693,3.413-1.169c0,0,.672,1.607,1.688,1.38s2.3-.681,2.431-1.861.345-2.344.345-2.344.175,1.792,1.092,1.593,1.751.048,2.511-1.292,2.539-3.925,2.539-3.925l4.04.576" fill="#c4535a"/>
    <path id="path412" d="M241.05-450.916c.059-.019-.076-.5-.124-1.283a6.979,6.979,0,0,1,.465-2.987,6.989,6.989,0,0,1,1.719-2.488c.575-.537,1-.791.973-.844a2.7,2.7,0,0,0-1.148.641,6.226,6.226,0,0,0-1.9,2.551,6.225,6.225,0,0,0-.38,3.153,2.717,2.717,0,0,0,.391,1.256" fill="#9a393e"/>
    <path id="path414" d="M238.078-459.959a6.027,6.027,0,0,0-.825,1.587,17.009,17.009,0,0,0-1.1,4.177,17.034,17.034,0,0,0-.008,4.32,6.009,6.009,0,0,0,.392,1.744,30.808,30.808,0,0,1-.009-6.016,30.836,30.836,0,0,1,1.547-5.812" fill="#9a393e"/>
    <path id="path416" d="M232.793-460.72a13.945,13.945,0,0,0-.955,4.513,13.964,13.964,0,0,0,.2,4.608c.115-.009-.04-2.061.175-4.577s.688-4.515.577-4.544" fill="#9a393e"/>
    <path id="path418" d="M169.736-395.986c-.065-.487-.1-.769-.12-.9.027.2.084.637.12.9" fill="#33535f"/>
    <path id="path420" d="M169.616-396.887l-.008-.065.008.065" fill="#33535f"/>
    <path id="path422" d="M169.764-395.771s-.011-.089-.028-.215l.028.215" fill="#33535f"/>
    <path id="path424" d="M169.913-340.163A179.312,179.312,0,0,0,189.1-351.4l-6.132-20.477-8.656,1.383c-.779-8.907-3.52-17.531-4.545-25.272l-10.5-34.748-22.892-2.088-27.824-2.037-17.714,2.56c-9.74,1.407-21.068,6.751-25.752,15.405-1.671,3.087-2.772,9.993-3.162,13.957-1.458,14.816,4.046,59.982,19.49,76.069l-7.823,23.311c-11.183,34.871,103.836,20.2,102.83,6.7-1.355-6.407-7.557-33.744-7.557-33.744l1.057-9.781" fill="#33535f"/>
    <path id="path426" d="M169.608-396.952h0" fill="#33535f"/>
    <path id="path428" d="M110.923-360.375c.143.2-3.161,2.112-5.765,5.869-2.658,3.721-3.338,7.476-3.578,7.409-.19.023.166-3.961,2.939-7.859,2.73-3.924,6.359-5.6,6.4-5.42" fill="#17282f"/>
    <path id="path430" d="M102.431-316.219a32.4,32.4,0,0,1-8.171-.949c-5.179-1.345-10.093-4.561-12.368-9.4,3.151,2.3,9.567,3.388,17.736,3.388,19.012,0,47.518-5.913,66.426-16.311-5.229,2.949-36.56,20.488-55.845,22.748a67.137,67.137,0,0,1-7.778.528M166.054-339.5c.483-.272.743-.42.751-.42s0,0-.007.007q-.37.208-.744.413" fill="#20353d"/>
    <path id="path432" d="M189.1-351.4c.007.011-.077.073-.245.185l-.756.481c-.671.413-1.653,1.031-2.945,1.787-2.572,1.527-6.335,3.673-11.077,6.152a210.366,210.366,0,0,1-38.724,15.667,92.111,92.111,0,0,1-11.73,2.269c-3.819.527-7.519.885-11.046,1.179s-6.877.512-10.029.645a67.707,67.707,0,0,1-8.771-.2,27.441,27.441,0,0,1-12.116-3.584,14.051,14.051,0,0,1-2.668-2.2L78.4-329.7c-.128-.156-.19-.239-.18-.247a20.159,20.159,0,0,0,3.576,2.9,28,28,0,0,0,12.018,3.325,69.433,69.433,0,0,0,8.7.112c3.128-.157,6.483-.411,10-.708s7.206-.681,11.007-1.216a93.179,93.179,0,0,0,11.637-2.264,222.209,222.209,0,0,0,38.685-15.435c4.763-2.419,8.556-4.5,11.168-5.949l3.008-1.672.791-.423a1.006,1.006,0,0,1,.281-.124" fill="#17282f"/>
    <path id="path434" d="M182.965-371.882a1.123,1.123,0,0,1-.305.084l-.908.18-3.5.627c-3.111.523-7.5,1.263-12.908,2.173l-42.626,6.912c-4.02.639-7.948,1.265-11.737,1.868l-.265.043-.1-.247c-5.374-12.917-10.089-24.252-13.488-32.421l-3.908-9.568c-.429-1.084-.769-1.943-1.022-2.584a5.631,5.631,0,0,1-.316-.912,5.652,5.652,0,0,1,.43.864q.421.944,1.129,2.539c.985,2.28,2.373,5.5,4.1,9.489l13.708,32.329-.368-.205,11.735-1.881,42.658-6.711,12.941-1.956,3.525-.5.919-.112a1.084,1.084,0,0,1,.317-.015" fill="#17282f"/>
    <path id="path436" d="M163.052-414.444a30.6,30.6,0,0,0,1.561,4.256c1.012,2.6,2.341,6.22,3.585,10.288s2.155,7.816,2.765,10.54a30.821,30.821,0,0,0,1.079,4.4,20.669,20.669,0,0,0-.507-4.515,88.09,88.09,0,0,0-2.549-10.668,88.374,88.374,0,0,0-3.836-10.272,20.856,20.856,0,0,0-2.1-4.031" fill="#17282f"/>
    <path id="path438" d="M160.114-439.59a4.5,4.5,0,0,1-1.709,2.432,3.925,3.925,0,0,1-3.3.641,4.109,4.109,0,0,1-2.8-3.3,3.782,3.782,0,0,1,.539-2.516,7.835,7.835,0,0,1,1.985-2.127c1.587-1.247,3.785-2.28,5.048-4.455a9.173,9.173,0,0,0,.86-7.375,10.754,10.754,0,0,0-1.868-3.541,15.777,15.777,0,0,0-3.011-2.768,21.29,21.29,0,0,1-3.011-2.561,5.226,5.226,0,0,1-1.448-3.3,6.43,6.43,0,0,1,.988-3.4,12.834,12.834,0,0,1,2.225-2.727c1.668-1.611,3.476-3.048,4.6-4.911a10.068,10.068,0,0,0,1.447-5.7,13,13,0,0,0-1.287-4.676,24.447,24.447,0,0,1-1.287-3.361,7.6,7.6,0,0,1-.184-3.028c-.011,0-.036.063-.073.192a3.4,3.4,0,0,0-.127.588,6.075,6.075,0,0,0,.133,2.308,22.572,22.572,0,0,0,1.2,3.444,12.86,12.86,0,0,1,1.16,4.552,9.654,9.654,0,0,1-1.445,5.4c-1.073,1.744-2.839,3.131-4.556,4.76a13.31,13.31,0,0,0-2.345,2.844,7.027,7.027,0,0,0-1.092,3.741,5.868,5.868,0,0,0,1.6,3.715,21.594,21.594,0,0,0,3.1,2.649,15.223,15.223,0,0,1,2.9,2.652,10.106,10.106,0,0,1,1.763,3.32,8.575,8.575,0,0,1-.763,6.872c-1.131,2.007-3.207,3.019-4.863,4.336a8.3,8.3,0,0,0-2.089,2.3,4.259,4.259,0,0,0-.559,2.845A4.494,4.494,0,0,0,155-436.16a4.162,4.162,0,0,0,3.553-.791,4.16,4.16,0,0,0,1.4-1.847,2.345,2.345,0,0,0,.16-.792" fill="#17282f"/>
    <path id="path440" d="M92.875-507.129a4.173,4.173,0,0,1,.867,2.987,18.731,18.731,0,0,1-.415,3.717,18.786,18.786,0,0,1-1.041,3.6,4.166,4.166,0,0,1-1.944,2.425c-.9.376-2.107-.049-3.062-1.416a6.866,6.866,0,0,1-1.059-2.607,9.2,9.2,0,0,1,.022-3.408,9.2,9.2,0,0,1,1.285-3.156,6.863,6.863,0,0,1,1.977-2c1.406-.9,2.683-.827,3.371-.136" fill="#f2575d"/>
    <path id="path442" d="M82.015-470.654c-1.274-3.627-.109-7.667,1.619-11.1s4.026-6.608,5.215-10.264c1.286-3.956,1.208-8.292,2.786-12.14a15.219,15.219,0,0,1,9.158-8.548c2.475-.821,5.223-1.027,7.362-2.519,2.208-1.54,3.349-4.16,5.021-6.271,2.717-3.429,5.318-6.369,9.355-8.056,4.6-1.921,11.331-2.629,15.946-.747a13.3,13.3,0,0,1,6.556,6.408,27.963,27.963,0,0,1,2.517,8.972c4.719.905,7.448,5.74,9.543,10.065,1.179,2.432,2.381,4.956,2.472,7.659.1,3.013-2.485,13.347-3.945,15.985-7.535,13.621-18.745,16.487-32.367,24.023-5.26,2.911-8.511,9.6-14.519,9.364-7-.269-13.806-.541-17.865-6.248s-8.636-11.091-9.237-18.067" fill="#17282f"/>
    <path id="path444" d="M154.06-492.2c-.383-9.756-6.553-21.861-16.284-21.065l-30.492,6.941a5.715,5.715,0,0,0-5.248,5.672l1.508,73.165-.21.041s6.368,20.791,26.561,15.013c4-1.145,5.931-5.443,6.833-9.891l.205.031c.021-.529.041-1.024.06-1.529a47.839,47.839,0,0,0,.38-10.032c.209-5.9.267-8.319.268-8.264,0,0,12.5-1.771,15.46-17.948,1.473-8.044,1.381-21.295.957-32.135" fill="#c4535a"/>
    <path id="path446" d="M129.314-479.993a2.083,2.083,0,0,1-2.058,2.053,1.993,1.993,0,0,1-2.1-1.929,2.085,2.085,0,0,1,2.055-2.055,2,2,0,0,1,2.105,1.931" fill="#17282f"/>
    <path id="path448" d="M150.748-479.993a2.084,2.084,0,0,1-2.057,2.053,1.992,1.992,0,0,1-2.1-1.929,2.084,2.084,0,0,1,2.055-2.055,2,2,0,0,1,2.105,1.931" fill="#17282f"/>
    <path id="path450" d="M151.866-485.083c-.263.356-2.063-1.053-4.505-.945-2.441.068-4.153,1.6-4.437,1.265-.14-.148.113-.781.857-1.475a5.593,5.593,0,0,1,3.529-1.44,5.531,5.531,0,0,1,3.609,1.184c.788.639,1.077,1.252.947,1.411" fill="#17282f"/>
    <path id="path452" d="M129.269-484.756c-.319.319-2.074-1.244-4.673-1.395-2.6-.191-4.583,1.128-4.847.769-.13-.16.205-.751,1.075-1.348a6.3,6.3,0,0,1,3.9-1.036,6.157,6.157,0,0,1,3.7,1.532c.762.707,1,1.335.847,1.477" fill="#17282f"/>
    <path id="path454" d="M136.725-468.672a14.762,14.762,0,0,1,3.655-.571c.573-.045,1.119-.147,1.224-.535a2.913,2.913,0,0,0-.343-1.705q-.758-2.1-1.588-4.4c-2.2-6.26-3.783-11.4-3.531-11.488s2.244,4.917,4.447,11.177q.794,2.314,1.517,4.421a3.316,3.316,0,0,1,.244,2.253,1.442,1.442,0,0,1-.961.815,3.861,3.861,0,0,1-.975.111,14.61,14.61,0,0,1-3.689-.081" fill="#17282f"/>
    <path id="path456" d="M137.642-442.118a41.316,41.316,0,0,1-21.609-6.317s5.192,11.64,21.481,10.505l.128-4.188" fill="#9a393e"/>
    <path id="path458" d="M135.648-463.294a4.036,4.036,0,0,0-3.583-1.587,3.689,3.689,0,0,0-2.578,1.305,2.336,2.336,0,0,0-.241,2.667,2.709,2.709,0,0,0,2.92.812,8.49,8.49,0,0,0,2.905-1.641,2.476,2.476,0,0,0,.655-.647.748.748,0,0,0,.017-.835" fill="#9a393e"/>
    <path id="path460" d="M130.092-467.279c.365-.013.311,2.42,2.353,4.2s4.637,1.569,4.647,1.909c.031.155-.589.46-1.684.463a6.053,6.053,0,0,1-3.883-1.456,5.276,5.276,0,0,1-1.817-3.515c-.069-1.019.217-1.615.383-1.6" fill="#17282f"/>
    <path id="path462" d="M129.819-492.356c-.235.605-2.466.263-5.1.517-2.642.2-4.781.921-5.117.365-.149-.265.234-.829,1.105-1.4a8.54,8.54,0,0,1,3.815-1.235,8.519,8.519,0,0,1,3.97.563c.956.412,1.43.9,1.328,1.188" fill="#17282f"/>
    <path id="path464" d="M150.345-491.885c-.461.5-2.213-.072-4.335-.147-2.119-.141-3.927.248-4.328-.293-.175-.263.121-.767.917-1.229a6.652,6.652,0,0,1,3.545-.751,6.578,6.578,0,0,1,3.435,1.105c.736.541.971,1.071.765,1.315" fill="#17282f"/>
    <path id="path466" d="M100.528-504.664c1.718-2.14,4.511-3.049,7.158-3.775a149.222,149.222,0,0,1,35.036-5.259c1.212,2.544-.461,5.672-2.832,7.2s-5.26,1.929-7.985,2.645-5.57,1.96-6.913,4.437c-1.428,2.636-.785,5.992-2.078,8.695-2.225,4.652-9.119,5.531-11.318,10.193-1.663,3.528-.578,2.721-.435,6.617.161,4.417-2.557,5.087-6.049,7.795-2.754,2.135-8.062,4.585-11.53,4.3.6-13.931,4.2-20.631,4.8-34.561.123-2.9.326-6.021,2.144-8.285" fill="#17282f"/>
    <path id="path468" d="M120-526.817a1.328,1.328,0,0,1,.289-.213,9.156,9.156,0,0,1,.878-.532,13.856,13.856,0,0,1,3.537-1.327,15.438,15.438,0,0,1,5.6-.255,14.937,14.937,0,0,1,6.405,2.436,14.94,14.94,0,0,1,4.54,5.137,15.444,15.444,0,0,1,1.735,5.328,13.827,13.827,0,0,1,.005,3.779,8.993,8.993,0,0,1-.188,1.008,1.242,1.242,0,0,1-.1.345,18.173,18.173,0,0,0,.028-5.095,15.622,15.622,0,0,0-1.773-5.205,14.863,14.863,0,0,0-4.453-5,14.889,14.889,0,0,0-6.246-2.4,15.625,15.625,0,0,0-5.5.175A18.184,18.184,0,0,0,120-526.817" fill="#33535f"/>
    <path id="path470" d="M104.393-513.659a2.226,2.226,0,0,1,.47-.015,6.1,6.1,0,0,0,1.324-.125,7.993,7.993,0,0,0,1.978-.707,16.737,16.737,0,0,0,2.355-1.508c.834-.621,1.711-1.356,2.685-2.112a17.741,17.741,0,0,1,3.325-2.132,18.311,18.311,0,0,1,8.816-1.723,17.839,17.839,0,0,1,8.574,2.68,18.308,18.308,0,0,1,5.3,5.1,17.463,17.463,0,0,1,2.232,4.431,11.747,11.747,0,0,1,.367,1.3,2.334,2.334,0,0,1,.088.461c-.043.012-.175-.624-.587-1.715a18.572,18.572,0,0,0-2.309-4.331,18.4,18.4,0,0,0-5.268-4.96,17.7,17.7,0,0,0-8.417-2.6,18.194,18.194,0,0,0-8.655,1.663,17.745,17.745,0,0,0-3.285,2.068c-.976.741-1.865,1.465-2.716,2.08a16.209,16.209,0,0,1-2.418,1.485,7.827,7.827,0,0,1-2.041.663,5.284,5.284,0,0,1-1.352.059,2.281,2.281,0,0,1-.468-.057" fill="#33535f"/>
    <path id="path472" d="M90.715-496.3a29.323,29.323,0,0,0,.853,3.976,18.437,18.437,0,0,0,5.211,8.137,18.429,18.429,0,0,0,8.672,4.261,29.339,29.339,0,0,0,4.046.4.892.892,0,0,1-.282.044c-.186.011-.46.045-.815.043a16.007,16.007,0,0,1-2.995-.235,17.937,17.937,0,0,1-8.868-4.245,17.954,17.954,0,0,1-5.215-8.331,16.158,16.158,0,0,1-.571-2.951c-.042-.352-.039-.628-.049-.813a.881.881,0,0,1,.011-.287" fill="#33535f"/>
    <path id="path474" d="M106.125-472.191a6.029,6.029,0,0,1-1.1-.172,30.183,30.183,0,0,1-2.941-.76,22.291,22.291,0,0,1-8.717-4.86,14.525,14.525,0,0,1-4.5-8.821,10.485,10.485,0,0,1,.11-3.044,6.6,6.6,0,0,1,.2-.805.886.886,0,0,1,.1-.271,14.389,14.389,0,0,0-.15,4.091,14.709,14.709,0,0,0,4.5,8.588,23.214,23.214,0,0,0,8.547,4.88c1.208.408,2.2.683,2.894.865a7.44,7.44,0,0,1,1.068.309" fill="#33535f"/>
    <path id="path476" d="M157.076-516.252a19.648,19.648,0,0,0-5.319.095,19.745,19.745,0,0,0-4.98,1.868,4.663,4.663,0,0,1,1.3-.919,12.211,12.211,0,0,1,3.616-1.3,12.2,12.2,0,0,1,3.84-.117,4.7,4.7,0,0,1,1.545.377" fill="#17282f"/>
    <path id="path478" d="M150.582-524.661a5.543,5.543,0,0,1,.12,1.7,14.679,14.679,0,0,1-.705,4.065,14.632,14.632,0,0,1-1.808,3.711,5.49,5.49,0,0,1-1.095,1.311A24.362,24.362,0,0,0,149.653-519a24.558,24.558,0,0,0,.929-5.657" fill="#17282f"/>
    <path id="path480" d="M106.271-478.632c-.251-.121-10.154-3.464-10.25,6.776s10.207,8.227,10.228,7.932.022-14.708.022-14.708" fill="#c4535a"/>
    <path id="path482" d="M103.156-467.834c-.044-.033-.18.123-.482.259a1.781,1.781,0,0,1-1.334.015c-1.078-.407-1.973-2.133-2.005-3.979a5.9,5.9,0,0,1,.522-2.551,2.069,2.069,0,0,1,1.356-1.357.908.908,0,0,1,1.048.5c.134.288.068.491.121.509.028.027.221-.169.143-.593a1.138,1.138,0,0,0-.4-.645,1.346,1.346,0,0,0-.984-.271,2.508,2.508,0,0,0-1.879,1.571,6.061,6.061,0,0,0-.645,2.849c.046,2.064,1.085,4.005,2.561,4.447a1.909,1.909,0,0,0,1.635-.256c.319-.249.375-.479.34-.5" fill="#9a393e"/>
    <path id="path484" d="M97.663-466.15a3.1,3.1,0,0,1-.471.295c-.308.189-.793.428-1.37.8a9.753,9.753,0,0,0-3.611,4.408,9.5,9.5,0,0,0-.721,3.884,9.484,9.484,0,0,0,1.157,4.361,9.647,9.647,0,0,0,3.408,3.619,9.646,9.646,0,0,0,5.13,1.419,9.391,9.391,0,0,0,2.7-.417,8.967,8.967,0,0,0,2.4-1.112,9.611,9.611,0,0,0,3.34-3.681,9.713,9.713,0,0,0,.267-8.256,9.777,9.777,0,0,0-3.706-4.331,16.9,16.9,0,0,0-1.892-.985,7.2,7.2,0,0,1,1.966.867,9.7,9.7,0,0,1,3.866,4.345,9.855,9.855,0,0,1,.859,3.972,9.824,9.824,0,0,1-1.063,4.54,9.906,9.906,0,0,1-3.445,3.827,9.317,9.317,0,0,1-2.491,1.159,9.748,9.748,0,0,1-2.8.435,9.954,9.954,0,0,1-5.32-1.479,9.954,9.954,0,0,1-3.516-3.763,9.736,9.736,0,0,1-1.162-4.513,9.677,9.677,0,0,1,.785-3.988,9.678,9.678,0,0,1,3.772-4.428c.6-.356,1.087-.572,1.409-.743a3.326,3.326,0,0,1,.506-.231" fill="#fff"/>
    <path id="path486" d="M89.894-497.392a2.565,2.565,0,0,1-.009.5,10.567,10.567,0,0,1-.14,1.429,20.21,20.21,0,0,1-1.506,5.06c-.869,2.06-2.161,4.384-3.513,6.991a42.4,42.4,0,0,0-1.92,4.173,19.634,19.634,0,0,0-1.256,4.735,17.473,17.473,0,0,0,1.387,9.255,18.812,18.812,0,0,0,2.112,3.556c.771,1.051,1.526,2.008,2.217,2.876,1.389,1.735,2.564,3.1,3.38,4.036l.943,1.079a2.692,2.692,0,0,1,.313.389,2.452,2.452,0,0,1-.367-.34c-.232-.232-.568-.58-.994-1.033-.85-.911-2.056-2.251-3.474-3.969-.707-.861-1.472-1.809-2.26-2.861a18.848,18.848,0,0,1-2.173-3.595,17.622,17.622,0,0,1-1.443-9.437,19.784,19.784,0,0,1,1.284-4.817,41.693,41.693,0,0,1,1.955-4.2c1.373-2.607,2.682-4.907,3.574-6.939a21.548,21.548,0,0,0,1.6-4.981,13.738,13.738,0,0,0,.206-1.412,2.722,2.722,0,0,1,.082-.5" fill="#33535f"/>
  </g>
</svg>
