<svg xmlns="http://www.w3.org/2000/svg" width="213.541" height="309.604" viewBox="0 0 213.541 309.604">
  <g id="Groupe_3" data-name="Groupe 3" transform="translate(-299.623 309.604)">
    <path id="path646" d="M431.336-100.159l23.351-23.088-41.644-71.31a40.2,40.2,0,0,0-15.981-11.116L382.4-211.247l-36.456-6.687-25.885,10.192a15.475,15.475,0,0,0-9.7,16.225l6.771,57,3.989,74.215L415.174-76.62l-9.464-27.45.319-42.8,25.308,46.708" fill="#f2575d"/>
    <path id="path648" d="M406.574-105.892c.22,0,.277-14.827.127-33.11s-.449-33.108-.668-33.107-.277,14.824-.128,33.115.449,33.106.669,33.1" fill="#17282f"/>
    <path id="path650" d="M403.128-95.013,346.3-117.892a12.986,12.986,0,0,1-8.1-11.058l-4.16-54.489s.492-23.175-13.983-24.3l-8.235,3.244c-10.643,5.651-13.28,21.147-11.831,33.111,2.059,17,2.916,41.056,5.22,55.808,1.884,12.068,9.132,21.616,20.609,25.794l70,15.155,7.309-20.382" fill="#f2575d"/>
    <path id="path652" d="M334.851-175.128a7.62,7.62,0,0,1,.18,1.248q.134,1.33.364,3.591c.291,3.192.7,7.688,1.2,13.213.481,5.6,1.052,12.243,1.684,19.605q.234,2.768.477,5.667a42.415,42.415,0,0,0,.725,5.831,9.674,9.674,0,0,0,2.824,5.107,19.268,19.268,0,0,0,5.244,3.264c15.672,6.78,30.115,12.38,40.6,16.307L400.6-96.712l3.385,1.249a7.823,7.823,0,0,1,1.164.482,7.52,7.52,0,0,1-1.213-.339L400.5-96.431c-2.973-.985-7.261-2.461-12.535-4.36-10.545-3.8-25.012-9.317-40.729-16.12a19.8,19.8,0,0,1-5.449-3.407,10.411,10.411,0,0,1-3.029-5.485,42.794,42.794,0,0,1-.724-5.934q-.23-2.9-.451-5.672c-.572-7.369-1.088-14.013-1.523-19.623-.4-5.532-.728-10.036-.961-13.235q-.14-2.264-.223-3.6a7.944,7.944,0,0,1-.027-1.259" fill="#17282f"/>
    <path id="path654" d="M302.29-145.5a2.754,2.754,0,0,1,.112.731c.051.568.113,1.263.188,2.1.169,1.941.4,4.555.675,7.732.311,3.262.707,7.141,1.273,11.432a108.837,108.837,0,0,0,2.567,13.8,20.625,20.625,0,0,0,2.773,6.581,37.732,37.732,0,0,0,4.245,5.216,36.349,36.349,0,0,0,9.095,6.823,34.088,34.088,0,0,0,9.981,3.267,2.55,2.55,0,0,1-.739-.016,15.927,15.927,0,0,1-2.1-.271,27.836,27.836,0,0,1-7.384-2.5,35.63,35.63,0,0,1-9.351-6.812,37.5,37.5,0,0,1-4.363-5.291,21.107,21.107,0,0,1-2.889-6.795,102.875,102.875,0,0,1-2.529-13.916c-.529-4.311-.869-8.2-1.113-11.477s-.367-5.925-.433-7.76c-.019-.844-.033-1.541-.045-2.113a2.576,2.576,0,0,1,.04-.737" fill="#17282f"/>
    <path id="path656" d="M326.593-107.377a8.346,8.346,0,0,1,1.035-3.028,19.482,19.482,0,0,1,4.771-6.088,19.49,19.49,0,0,1,6.76-3.76,8.4,8.4,0,0,1,3.153-.549c.024.128-1.169.364-2.976,1.056a22.522,22.522,0,0,0-6.443,3.831,22.6,22.6,0,0,0-4.792,5.762c-.965,1.676-1.385,2.819-1.508,2.775" fill="#17282f"/>
    <path id="path658" d="M385.119-102.437c-2.888-1.092-6.021-2.292-9.353-3.592l-18.149-7.306c-3.276-1.362-6.641-2.788-10.064-4.268a19.269,19.269,0,0,1-5.244-3.264,9.674,9.674,0,0,1-2.824-5.107,42.415,42.415,0,0,1-.725-5.831q-.208-2.46-.407-4.831c-.02-.415-.045-.832-.076-1.248q-.786-10.522-1.573-21.045c8.028,10.433,7.135,25.69,14.979,36.263,4.159,5.605,10.383,9.31,16.737,12.2,5.768,2.621,11.2,5.037,16.7,8.029" fill="#cc4341"/>
    <path id="path660" d="M375.766-106.029c-5.567-2.169-11.688-4.618-18.149-7.306l18.149,7.306m-16.913-5.987q-.922-.318-1.833-.62a55.252,55.252,0,0,1-10.732-4.724c.315.155.632.3.951.448,3.965,1.716,7.851,3.351,11.615,4.9" fill="#cc4341"/>
    <path id="path662" d="M386.8-101.508c-9.069-2.992-18.793-7.344-27.944-10.508-3.764-1.545-7.649-3.18-11.615-4.9-.319-.145-.636-.293-.951-.448A21.135,21.135,0,0,1,342-120.64c.211-.07.321-.121.315-.161,0-.018-.068-.029-.192-.029-.076,0-.173,0-.291.013-3.78-4.08-3.18-9.864-3.476-15.817q.2,2.368.407,4.831a42.429,42.429,0,0,0,.725,5.831,9.674,9.674,0,0,0,2.824,5.107,19.268,19.268,0,0,0,5.244,3.264c3.423,1.48,6.788,2.905,10.064,4.268,6.461,2.688,12.583,5.137,18.149,7.306,3.332,1.3,6.465,2.5,9.353,3.592q.838.454,1.677.93" fill="#0f191d"/>
    <path id="path664" d="M342-120.64l-.084-.086-.084-.091c.117-.009.215-.013.291-.013.124,0,.189.011.192.029.007.04-.1.091-.315.161" fill="#0f191d"/>
    <path id="path666" d="M410.956-137.769l-3.317-6.125,3.317,6.124h0" fill="#a7a9a8"/>
    <path id="path668" d="M410.956-137.77l-3.317-6.124-1-1.848c-.092-8.619-.215-16.012-.339-20.756l4.657,28.728" fill="#cc4341"/>
    <path id="path670" d="M406.638-145.742l-.335-.617L406.04-168.1l.259,1.6c.124,4.744.247,12.137.339,20.756" fill="#0f191d"/>
    <path id="path672" d="M335.022-181.928c-.117.021-.3-1.925-1.356-4.84a24.987,24.987,0,0,0-6.66-9.915,25,25,0,0,0-10.569-5.567c-3.011-.743-4.964-.713-4.956-.832a5.169,5.169,0,0,1,1.363-.051,20.782,20.782,0,0,1,3.691.468,23.911,23.911,0,0,1,10.876,5.532,23.953,23.953,0,0,1,6.659,10.224,20.854,20.854,0,0,1,.859,3.62,5.159,5.159,0,0,1,.095,1.36" fill="#17282f"/>
    <path id="path674" d="M402.736-197.386c.165-.027,1.061,4.72,2,10.6s1.569,10.671,1.405,10.7-1.06-4.719-2-10.6-1.569-10.671-1.405-10.7" fill="#17282f"/>
    <path id="path676" d="M466.08-26.509S509.764-14.42,511.516-13.8c2.632.927,2.191,10.568-1.9,10.419-1.939-.071-33.555,1.176-37.549.927s-16.047-5-16.047-5L466.08-26.509" fill="#f2575d"/>
    <path id="path678" d="M484.279-9.841c.22.029.515-2.28,1.925-4.691,1.375-2.431,3.224-3.847,3.088-4.02-.076-.168-2.245,1.063-3.723,3.656-1.5,2.577-1.475,5.073-1.291,5.055" fill="#17282f"/>
    <path id="path680" d="M479.724-11.907c.215.038.656-2.028,1.82-4.309,1.14-2.294,2.536-3.88,2.379-4.029-.121-.143-1.827,1.285-3.032,3.7-1.221,2.405-1.353,4.627-1.167,4.639" fill="#17282f"/>
    <path id="path682" d="M475.451-13.05c.22-.014.052-2.2,1.023-4.615.928-2.437,2.531-3.927,2.379-4.085-.087-.167-2.047,1.184-3.06,3.819-1.041,2.622-.517,4.944-.341,4.881" fill="#17282f"/>
    <path id="path684" d="M476.227-18.693a7.721,7.721,0,0,0,.469-3.249,15.419,15.419,0,0,0-.443-3.563,15.023,15.023,0,0,0-.651-2.028,2.432,2.432,0,0,0-.7-1.069,1.165,1.165,0,0,0-1.5.072,1.931,1.931,0,0,0-.581,1.236,8.54,8.54,0,0,0-.057,1.154,9.683,9.683,0,0,0,.269,2.14,12.985,12.985,0,0,0,1.345,3.339,8.788,8.788,0,0,0,1.961,2.629c.1-.068-.631-1.086-1.5-2.868a14.33,14.33,0,0,1-1.145-3.248,9.739,9.739,0,0,1-.211-2c.02-.672.011-1.511.4-1.833a.423.423,0,0,1,.576-.048,1.852,1.852,0,0,1,.48.763,16.025,16.025,0,0,1,.661,1.928,17.412,17.412,0,0,1,.577,3.411c.128,1.979-.071,3.215.048,3.232" fill="#17282f"/>
    <path id="path686" d="M476.172-19.137a6.112,6.112,0,0,0-2.817-.456,12.7,12.7,0,0,0-3.1.381,6.775,6.775,0,0,0-1.784.657,1.84,1.84,0,0,0-.987,2A2.182,2.182,0,0,0,469.058-15,4.012,4.012,0,0,0,471.016-15a7.514,7.514,0,0,0,2.839-1.4,7.673,7.673,0,0,0,2.032-2,19.239,19.239,0,0,0-2.329,1.577,7.787,7.787,0,0,1-2.677,1.16,3.473,3.473,0,0,1-1.621-.024,1.478,1.478,0,0,1-1.064-1.038,1.131,1.131,0,0,1,.649-1.22,6.7,6.7,0,0,1,1.585-.617,14.665,14.665,0,0,1,2.944-.515c1.709-.119,2.781.056,2.8-.061" fill="#17282f"/>
    <path id="path688" d="M490.991-9.373c.216-.024,0-1.892.861-3.94.817-2.065,2.276-3.25,2.139-3.42-.072-.179-1.9.857-2.816,3.144-.943,2.275-.36,4.294-.184,4.216" fill="#17282f"/>
    <path id="path690" d="M460.51-7.357a9.179,9.179,0,0,0,1.689.8,37.922,37.922,0,0,0,4.861,1.507,69.392,69.392,0,0,0,16.677,1.58c6.547-.072,12.445-.371,16.724-.542l5.063-.268a9.067,9.067,0,0,0,1.853-.2,9.077,9.077,0,0,0-1.863-.085l-5.068.035c-4.425.088-10.26.2-16.712.327a78.162,78.162,0,0,1-16.56-1.352c-4.176-.86-6.615-1.933-6.665-1.8" fill="#17282f"/>
    <path id="path692" d="M459.219-6.361c.059.1,1.253-.6,3.272-1.482a15.2,15.2,0,0,1,8.267-1.373c3.292.5,5.625,2.715,7.144,4.249A26.037,26.037,0,0,0,480.42-2.4a13.619,13.619,0,0,0-2.139-2.923,17.267,17.267,0,0,0-2.9-2.708,10.38,10.38,0,0,0-4.513-1.914,14.444,14.444,0,0,0-8.6,1.627,11.569,11.569,0,0,0-3.055,1.952" fill="#17282f"/>
    <path id="path694" d="M414.38-36.65S373.043-9.585,371.56-8.465c-2.225,1.682.328,9.692,4.184,8.305,1.824-.657,36.511-10.305,40.24-11.757s13.771-9.636,13.771-9.636L414.38-36.65" fill="#f2575d"/>
    <path id="path696" d="M402.1-15.243c.18-.038-.553-2.422-2.767-4.424-2.193-2.023-4.635-2.537-4.656-2.353-.077.208,2.115.994,4.164,2.893,2.075,1.867,3.059,3.979,3.259,3.884" fill="#17282f"/>
    <path id="path698" d="M405.816-18.593c.175-.067-.625-2.145-2.52-4.066-1.881-1.936-3.941-2.777-4.013-2.605-.1.191,1.707,1.278,3.491,3.116,1.8,1.822,2.849,3.656,3.043,3.555" fill="#17282f"/>
    <path id="path700" d="M409.539-20.981c.188.005-.019-2.364-1.807-4.548-1.767-2.2-4.043-2.894-4.076-2.708-.1.2,1.883,1.131,3.508,3.169,1.657,2.011,2.161,4.14,2.375,4.087" fill="#17282f"/>
    <path id="path702" d="M407.086-26.121c.109-.053-.456-1.171-.935-3.093a17.541,17.541,0,0,1-.485-3.427,15.958,15.958,0,0,1,.045-2.037,1.833,1.833,0,0,1,.224-.872.424.424,0,0,1,.565-.13c.472.188.717.991.94,1.625a9.56,9.56,0,0,1,.405,1.965,14.312,14.312,0,0,1-.105,3.441c-.289,1.964-.677,3.156-.561,3.191a8.819,8.819,0,0,0,1.071-3.1,13.013,13.013,0,0,0,.267-3.592,9.71,9.71,0,0,0-.392-2.118,8.249,8.249,0,0,0-.405-1.082,1.926,1.926,0,0,0-.929-1,1.166,1.166,0,0,0-1.452.385A2.439,2.439,0,0,0,405-34.733a15.355,15.355,0,0,0,0,2.129,15.337,15.337,0,0,0,.66,3.528,7.776,7.776,0,0,0,1.433,2.955" fill="#17282f"/>
    <path id="path704" d="M407-26.561c.053.105,1.021-.385,2.687-.792a14.78,14.78,0,0,1,2.961-.4,6.646,6.646,0,0,1,1.7.107,1.127,1.127,0,0,1,.988.965,1.479,1.479,0,0,1-.7,1.312,3.463,3.463,0,0,1-1.537.514,7.737,7.737,0,0,1-2.905-.292,19.314,19.314,0,0,0-2.695-.793,7.672,7.672,0,0,0,2.541,1.289,7.565,7.565,0,0,0,3.128.467,3.982,3.982,0,0,0,1.868-.591,2.181,2.181,0,0,0,1.027-1.964,1.842,1.842,0,0,0-1.547-1.6,6.843,6.843,0,0,0-1.9-.085,12.734,12.734,0,0,0-3.068.58A6.123,6.123,0,0,0,407-26.561" fill="#17282f"/>
    <path id="path706" d="M381.011-1.671c.047.066.695-.419,1.011-1.6a6.1,6.1,0,0,0-.773-4.487,16.6,16.6,0,0,0-1.385-2.064,7.585,7.585,0,0,0-1.4-1.5,2.444,2.444,0,0,0-1.321-.554c-.345-.015-.523.069-.517.112a3.891,3.891,0,0,1,1.5.835,9.371,9.371,0,0,1,1.192,1.507,23.523,23.523,0,0,1,1.289,2.02,6.384,6.384,0,0,1,.908,4.03c-.149,1.07-.6,1.636-.5,1.706" fill="#17282f"/>
    <path id="path708" d="M395.851-12.759c.191.02.133-2.079-1.456-3.96-1.568-1.9-3.623-2.332-3.639-2.141-.079.2,1.671.889,3.077,2.609,1.44,1.691,1.8,3.534,2.017,3.492" fill="#17282f"/>
    <path id="path710" d="M425.5-20.095a14.864,14.864,0,0,0-1.817,1.248,52.26,52.26,0,0,1-5.1,3.123,67.265,67.265,0,0,1-8.095,3.6c-3.132,1.168-6.641,2.268-10.355,3.345-7.436,2.14-14.169,4.1-19.027,5.56l-5.744,1.763a12.6,12.6,0,0,0-2.079.743,12.568,12.568,0,0,0,2.157-.47l5.808-1.539c4.895-1.334,11.645-3.213,19.089-5.356,3.72-1.079,7.245-2.2,10.388-3.416a61.078,61.078,0,0,0,8.105-3.78,40.982,40.982,0,0,0,5.017-3.348,11.245,11.245,0,0,0,1.647-1.476" fill="#17282f"/>
    <path id="path712" d="M427.036-19.538a11.579,11.579,0,0,0-3.5-.931,14.442,14.442,0,0,0-8.687,1.061,10.359,10.359,0,0,0-3.719,3.193,17.294,17.294,0,0,0-1.937,3.46,13.511,13.511,0,0,0-1.149,3.432,25.308,25.308,0,0,0,1.617-3.213c.981-1.924,2.533-4.739,5.517-6.22a15.229,15.229,0,0,1,8.293-1.2c2.191.231,3.541.533,3.567.419" fill="#17282f"/>
    <path id="path714" d="M500.312-104.336s12.4,4.428,12.452,18.333c.1,26.634-53.816,55.995-53.816,55.995L387.2-77.548l-4.5-1.821s96.856-36.383,117.61-24.967" fill="#17282f"/>
    <path id="path716" d="M423.544-53.537a13.065,13.065,0,0,0,1.868-1.268c1.176-.851,2.855-2.117,4.908-3.7,4.108-3.176,9.7-7.676,15.709-12.836S457.336-81.356,461.1-84.936c1.88-1.789,3.384-3.257,4.405-4.289a13.564,13.564,0,0,0,1.535-1.656,13.358,13.358,0,0,0-1.731,1.448l-4.56,4.117c-3.847,3.481-9.188,8.259-15.192,13.416S434.02-62.191,430-58.914l-4.761,3.885a13.3,13.3,0,0,0-1.693,1.492" fill="#33535f"/>
    <path id="path718" d="M480.057-94.38c.027-.179-3.173-.493-6.915.627-3.751,1.092-6.267,3.093-6.147,3.228.117.191,2.733-1.476,6.353-2.525,3.608-1.085,6.709-1.106,6.708-1.33" fill="#33535f"/>
    <path id="path720" d="M473.876-98.578c-.064-.173-2.365.839-4.253,3.2-1.911,2.344-2.415,4.805-2.232,4.832.209.072.993-2.162,2.8-4.373,1.78-2.232,3.8-3.469,3.685-3.659" fill="#33535f"/>
    <path id="path722" d="M504.257-14.243c.037-.083-.857-.256-1.851.561a6.705,6.705,0,0,0-2.072,4.164,8.156,8.156,0,0,0,.653,4.592c.508,1.091,1.067,1.6,1.128,1.549.1-.067-.293-.672-.649-1.741a9.346,9.346,0,0,1-.409-4.3,7.2,7.2,0,0,1,1.7-3.884c.76-.8,1.517-.828,1.5-.944" fill="#17282f"/>
    <path id="path724" d="M495.181-142.168,474.771-87.181a7.926,7.926,0,0,1-7.533,5.165l-112.36-1.479v-8.539l41.693,1.523,17.7-54.887a4.478,4.478,0,0,1,4.276-3.1l72.479.209a4.48,4.48,0,0,1,4.153,6.124" fill="#dadbd8"/>
    <path id="path726" d="M495.181-142.168l.048-.173a4.517,4.517,0,0,0,.14-.512,4.388,4.388,0,0,0-.044-2.064,4.484,4.484,0,0,0-1.975-2.657,4.357,4.357,0,0,0-2.04-.644c-.773-.036-1.613-.011-2.495-.019l-30.237-.035-21.187-.041q-5.744-.012-11.9-.024l-6.253-.013a4.911,4.911,0,0,0-2.991.657,4.369,4.369,0,0,0-1.86,2.444c-5.345,16.6-11.292,35.06-17.647,54.793l-.041.127-.133-.006-41.693-1.517.188-.181v8.539l-.179-.181,70.657.947,30.713.42q3.6.052,7.08.1l3.441.049a8.2,8.2,0,0,0,3.267-.479,7.775,7.775,0,0,0,4.5-4.334q1.12-3,2.192-5.859c5.7-15.273,10.295-27.605,13.476-36.138,1.591-4.244,2.827-7.54,3.672-9.795.843-2.235,1.3-3.4,1.3-3.4s-.412,1.183-1.235,3.427-2.044,5.564-3.609,9.819c-3.156,8.542-7.719,20.886-13.368,36.175q-1.066,2.868-2.185,5.872a8.043,8.043,0,0,1-4.649,4.493,8.515,8.515,0,0,1-3.367.5l-3.441-.044q-3.476-.041-7.08-.087c-9.608-.123-19.885-.252-30.713-.388l-70.657-.915-.18,0v-8.9l.188.006,41.693,1.527-.175.122c6.372-19.728,12.333-38.185,17.692-54.779a4.676,4.676,0,0,1,1.991-2.607,5.232,5.232,0,0,1,3.152-.7l6.253.024,11.9.043,21.185.084,30.237.139c.885.013,1.715-.008,2.5.033a4.477,4.477,0,0,1,2.083.672,4.545,4.545,0,0,1,1.985,2.721,4.345,4.345,0,0,1,.015,2.087,4.686,4.686,0,0,1-.219.679" fill="#17282f"/>
    <path id="path728" d="M445.359-121.376a5.047,5.047,0,0,1,5.461.583,4.415,4.415,0,0,1,1.069,4.839,4.784,4.784,0,0,1-4.1,2.867,4.312,4.312,0,0,1-4.337-2.864c-.523-1.8.056-4.477,1.909-5.424" fill="#fff"/>
    <path id="path730" d="M471.047-27.014S369.786-91.876,365.316-94.42c-3.8-2.166-13.976-8.428-24.008-5.661S322.283-88.32,317.787-75.174c-2.569,7.509-3.784,20.322-4.352,29.93a44.4,44.4,0,0,0,10.391,31.661c3.42,3.967,7.637,7.418,12.64,8.973,1.056.329,2.151.614,3.276.856C358.909.4,378.606-8.2,389.374-24.593l2.365-3.6S458.054-3.829,459.091-4.175l11.956-22.84" fill="#17282f"/>
    <path id="path732" d="M370.543-90.826a1.241,1.241,0,0,1-.253-.149c-.189-.128-.421-.289-.708-.484-.62-.428-1.533-1.063-2.737-1.835a53.542,53.542,0,0,0-10.753-5.464,28.958,28.958,0,0,0-8.1-1.708,23.31,23.31,0,0,0-9.316,1.521,30.119,30.119,0,0,0-8.951,5.429,41.133,41.133,0,0,0-3.975,3.9,29.129,29.129,0,0,0-3.288,4.677A48,48,0,0,0,318.093-74.5c-.953,3.531-1.717,7.021-2.445,10.318a94.394,94.394,0,0,0-2.331,17.765,64.33,64.33,0,0,0,.921,12.043c.221,1.413.473,2.5.625,3.233l.165.841a1.081,1.081,0,0,1,.036.294,1.1,1.1,0,0,1-.1-.278l-.224-.828c-.191-.73-.48-1.808-.739-3.218a60.5,60.5,0,0,1-1.116-12.092A91.983,91.983,0,0,1,315.1-64.3c.717-3.32,1.461-6.782,2.421-10.367a48.107,48.107,0,0,1,4.415-10.571,29.615,29.615,0,0,1,3.359-4.772,41.427,41.427,0,0,1,4.043-3.959,30.5,30.5,0,0,1,9.14-5.5,23.69,23.69,0,0,1,9.536-1.5,29.035,29.035,0,0,1,8.22,1.808,50.794,50.794,0,0,1,10.739,5.669c1.187.8,2.08,1.471,2.677,1.932l.675.532c.149.123.223.189.216.2" fill="#33535f"/>
    <path id="path734" d="M345.631-45.317s.184.095.556.246l1.66.657c1.5.578,3.653,1.408,6.427,2.476,5.639,2.123,13.772,5.187,23.884,9,10.147,3.784,22.3,8.284,35.932,13.247S442.838-9.3,458.975-3.831l.295.1.144-.275c2.533-4.839,5.205-9.944,7.92-15.125l4.036-7.714.156-.3-.281-.179c-30.44-19.324-57.673-36.612-77.326-49.086L370.69-91.059c-2.721-1.7-4.84-3.021-6.308-3.937-.7-.432-1.251-.766-1.648-1.007-.372-.224-.572-.323-.572-.323s.175.139.535.383l1.609,1.066,6.237,4.051,23.105,14.841,77.2,49.277-.124-.475c-1.283,2.448-2.656,5.071-4.039,7.712L458.771-4.343l.436-.176c-16.129-5.45-31.248-10.864-44.9-15.781-13.625-4.96-25.8-9.39-35.984-13.1l-23.96-8.79-6.472-2.356-1.681-.595c-.38-.131-.581-.181-.581-.181" fill="#33535f"/>
    <path id="path736" d="M350.874-260.49a52.194,52.194,0,0,1-4.5-10.767,17.538,17.538,0,0,1,.6-11.455c.943-2.076,2.425-3.895,3.165-6.051,1.019-2.967.6-6.467,2.439-9.008,2.869-3.975,9.012-3.048,13.451-5.129,3.456-1.62,5.872-5.116,9.507-6.281,3.176-1.019,6.639-.041,9.705,1.271s6.056,2.984,9.364,3.419c2.357.308,4.748-.032,7.125.019s4.9.576,6.576,2.265,2.025,4.808.212,6.348c4.159-.705,8.077,3.445,8.023,7.664s-3.232,7.931-7.068,9.685-8.216,1.868-12.421,1.541c-11.907-.927-23.869-5.453-31.975-14.224" fill="#17282f"/>
    <path id="path738" d="M353.439-275.389l-8.111,58.953a17.7,17.7,0,0,0,15.992,20.047A17.71,17.71,0,0,0,380.4-211.638c.607-4.439,1.121-8.137,1.213-8.591,0,0,15.2.653,18.329-14.051,1.511-7.105,3.432-22,5.015-35.487a28,28,0,0,0-22.336-30.705l-1.423-.285c-15.516-2.168-26.025,9.8-27.764,25.368" fill="#f8a58d"/>
    <path id="path740" d="M381.684-220.435a34.973,34.973,0,0,1-18.127-9.3s2.423,11.517,17.4,13.129l.729-3.827" fill="#f68260"/>
    <path id="path742" d="M398.351-257.233a2.147,2.147,0,0,1-2.455,1.717,2.053,2.053,0,0,1-1.791-2.332,2.149,2.149,0,0,1,2.452-1.72,2.056,2.056,0,0,1,1.793,2.335" fill="#17282f"/>
    <path id="path744" d="M400.348-263.163c-.316.223-1.675-1.277-3.941-1.724-2.257-.479-4.152.355-4.343.028-.1-.147.269-.589,1.1-.971a5.888,5.888,0,0,1,3.545-.363,5.662,5.662,0,0,1,3.069,1.713c.589.675.727,1.217.572,1.316" fill="#17282f"/>
    <path id="path746" d="M377.223-260.879a2.147,2.147,0,0,1-2.453,1.717,2.054,2.054,0,0,1-1.792-2.332,2.149,2.149,0,0,1,2.453-1.719,2.054,2.054,0,0,1,1.792,2.333" fill="#17282f"/>
    <path id="path748" d="M378-267.19c-.316.221-1.677-1.277-3.941-1.724-2.259-.477-4.153.355-4.344.029-.1-.148.267-.591,1.1-.972a5.885,5.885,0,0,1,3.544-.363,5.663,5.663,0,0,1,3.069,1.715c.587.673.725,1.217.573,1.315" fill="#17282f"/>
    <path id="path750" d="M382.863-248.749a15.41,15.41,0,0,1,3.811.072c.591.056,1.161.051,1.337-.325a3.005,3.005,0,0,0-.043-1.792q-.4-2.262-.831-4.747c-1.124-6.745-1.812-12.245-1.54-12.288s1.4,5.391,2.524,12.136q.4,2.49.755,4.759a3.424,3.424,0,0,1-.153,2.331,1.482,1.482,0,0,1-1.121.655,4.088,4.088,0,0,1-1.009-.059,15.008,15.008,0,0,1-3.729-.741" fill="#17282f"/>
    <path id="path752" d="M375.883-248.513c.372.052-.115,2.512,1.641,4.677s4.427,2.419,4.377,2.765c0,.161-.679.361-1.791.171a6.249,6.249,0,0,1-3.683-2.169,5.438,5.438,0,0,1-1.219-3.891c.111-1.047.508-1.6.673-1.553" fill="#17282f"/>
    <path id="path754" d="M380.356-275.951c-.347.572-2.549-.172-5.271-.383-2.719-.267-5.017.084-5.259-.539-.105-.3.384-.8,1.369-1.224a8.787,8.787,0,0,1,4.093-.575,8.773,8.773,0,0,1,3.929,1.277c.9.587,1.292,1.171,1.137,1.443" fill="#17282f"/>
    <path id="path756" d="M400.826-269.886c-.5.435-1.955-.412-3.825-.812-1.859-.464-3.535-.347-3.793-.957-.108-.293.244-.759,1.036-1.108a5.443,5.443,0,0,1,3.287-.22,5.423,5.423,0,0,1,2.853,1.647c.557.661.669,1.235.443,1.451" fill="#17282f"/>
    <path id="path758" d="M352.463-264.233c-.231-.159-9.531-5.02-11.223,5.123s8.84,9.748,8.905,9.46,2.317-14.583,2.317-14.583" fill="#f8a58d"/>
    <path id="path760" d="M347.69-254.009c-.04-.04-.2.093-.52.181a1.789,1.789,0,0,1-1.324-.193c-1.007-.573-1.624-2.424-1.369-4.26a5.933,5.933,0,0,1,.916-2.447,2.07,2.07,0,0,1,1.556-1.135.911.911,0,0,1,.961.657c.089.307-.009.5.041.525.024.029.247-.135.235-.567a1.135,1.135,0,0,0-.293-.7,1.349,1.349,0,0,0-.933-.423,2.522,2.522,0,0,0-2.108,1.265,6.065,6.065,0,0,0-1.084,2.725c-.276,2.055.451,4.141,1.847,4.809a1.924,1.924,0,0,0,1.661,0c.355-.2.447-.417.415-.44" fill="#f68260"/>
    <path id="path762" d="M407.882-283.458c-1.741,3.748-10.689,5.195-17.249,3.216-6.048-1.825-8.241-5.664-12.089-9.011-2.435-2.119-2.435-2.119-6.407-2.528-3.211-.332-5.788,2.865-8.216,4.993,1.352,8.06-2.232,16.04-5.725,23.428a4.091,4.091,0,0,1-1.639,2.092c-1.376.677-3.017-.395-3.839-1.689-1.316-2.075-1.469-4.663-1.421-7.119A42.281,42.281,0,0,1,354.66-286.4a28.787,28.787,0,0,1,10.6-12.7,27.273,27.273,0,0,1,20.171-3.34,33.491,33.491,0,0,1,17.684,10.616,19.615,19.615,0,0,1,4.764,8.365" fill="#17282f"/>
    <path id="path764" d="M387.248-258.941c.087.005.056-.875.461-2.357a9.8,9.8,0,0,1,3.591-5.213,9.544,9.544,0,0,1,8.976-1.292,9.364,9.364,0,0,1,4.365,3.3,9.486,9.486,0,0,1,1.824,5.561,9.481,9.481,0,0,1-1.824,5.564,9.349,9.349,0,0,1-4.365,3.3,9.54,9.54,0,0,1-8.977-1.292,9.787,9.787,0,0,1-3.589-5.213c-.405-1.481-.375-2.36-.461-2.356a1.855,1.855,0,0,0-.052.631,7.626,7.626,0,0,0,.2,1.8,9.771,9.771,0,0,0,3.547,5.6,10.079,10.079,0,0,0,9.587,1.541,10.035,10.035,0,0,0,4.755-3.535,10.2,10.2,0,0,0,2-6.039,10.2,10.2,0,0,0-2-6.037,10.049,10.049,0,0,0-4.755-3.533,10.08,10.08,0,0,0-9.585,1.54,9.781,9.781,0,0,0-3.548,5.6,7.635,7.635,0,0,0-.2,1.805,1.849,1.849,0,0,0,.052.631" fill="#17282f"/>
    <path id="path766" d="M363.191-263.142c.088.005.057-.873.461-2.356a9.791,9.791,0,0,1,3.591-5.213A9.538,9.538,0,0,1,376.219-272a9.348,9.348,0,0,1,4.365,3.3,9.473,9.473,0,0,1,1.824,5.561,9.483,9.483,0,0,1-1.823,5.564,9.352,9.352,0,0,1-4.367,3.3,9.541,9.541,0,0,1-8.976-1.292,9.8,9.8,0,0,1-3.591-5.213c-.4-1.483-.373-2.363-.461-2.357a1.837,1.837,0,0,0-.051.631,7.608,7.608,0,0,0,.2,1.8,9.78,9.78,0,0,0,3.548,5.6,10.08,10.08,0,0,0,9.585,1.54,10.038,10.038,0,0,0,4.756-3.533,10.211,10.211,0,0,0,2-6.04,10.213,10.213,0,0,0-2-6.037,10.017,10.017,0,0,0-4.755-3.532,10.074,10.074,0,0,0-9.585,1.54,9.781,9.781,0,0,0-3.548,5.6,7.611,7.611,0,0,0-.2,1.805,1.826,1.826,0,0,0,.051.629" fill="#17282f"/>
    <path id="path768" d="M383.011-262.8c.1.2,1.391-.4,2.891.061,1.5.444,2.247,1.659,2.445,1.544.095-.045.048-.431-.291-.941a3.581,3.581,0,0,0-1.919-1.388,3.578,3.578,0,0,0-2.365.1c-.564.239-.817.535-.761.624" fill="#17282f"/>
    <path id="path770" d="M349.562-265.739c0,.227,3.237.364,7.223.307s7.216-.284,7.213-.509-3.237-.365-7.224-.309-7.216.285-7.212.512" fill="#17282f"/>
  </g>
</svg>
