<svg xmlns="http://www.w3.org/2000/svg" width="96.195" height="237.976" viewBox="0 0 96.195 237.976">
  <g id="Groupe_6" data-name="Groupe 6" transform="translate(-196.193 322.341)">
    <path id="path260" d="M241.723-90.526s-5.321,2.891-6.081,6.161h13.079l2.587-5.095,1.748,5.095h1.769s1.657-13.219-1.576-17.447L241.723-90.526" fill="#211d29"/>
    <path id="path262" d="M246.519-118.878l.687,17.521-6.192,12.231s6.948,1.512,9.968-4.227,2.267-8.458,2.267-8.458l1.576-17.067h-8.305" fill="#ae5141"/>
    <path id="path264" d="M262.033-90.526s-5.321,2.891-6.081,6.161h13.08l2.585-5.095,1.749,5.095h1.768s1.657-13.219-1.576-17.447L262.033-90.526" fill="#211d29"/>
    <path id="path266" d="M266.829-118.878l.687,17.521-6.192,12.231s6.948,1.512,9.968-4.227,2.267-8.458,2.267-8.458l1.576-17.067h-8.305" fill="#ae5141"/>
    <path id="path268" d="M234.693-200.126c.515-22.761,10.237-32.555,10.237-32.555H273s9.065,6.049,9.065,32.555,0,26.443-4.789,84.574H264.966l-6.608-84a.093.093,0,0,0-.187.008l-.5,83.993-14.281.114a.347.347,0,0,1-.348-.28c-.887-4.592-8.837-62.688-8.345-84.408" fill="#211d29"/>
    <path id="path270" d="M238.455-232.489c.2-.419.8,1.063.9.608l9.229-26.571c1.049-3.8-.855-14.629-4.8-14.563-2.893.051-5.788,5.732-6.2,8.6l-8.3,25.077,9.175,6.851" fill="#915344"/>
    <path id="path272" d="M235.673-238.371l-28.259-13.637-3.273,4.4,24.607,20.117a6.5,6.5,0,0,0,10.36-3.123h0a6.5,6.5,0,0,0-3.435-7.755" fill="#915344"/>
    <path id="path274" d="M248.21-273.237s4.871,6.252,1.7,15.679l-16.395-4.435s-1.805-11.859,9.523-13.255l5.173,2.011" fill="#fabac0"/>
    <path id="path276" d="M196.888-253.386c-1.631,2.651-.291,6.437,2.993,8.46s7.271,1.515,8.9-1.136.292-6.436-2.993-8.457-7.269-1.515-8.9,1.133" fill="#915344"/>
    <path id="path278" d="M257.257-280.491s-7.257.064-18.371,6.384c0,0-2.445,18.171,3.491,25.123l.849,11.92L273.2-237.2s1.661-21.267,7.823-26.639l-2.055-10.587a40.387,40.387,0,0,0-21.708-6.068" fill="#fabac0"/>
    <path id="path280" d="M290.506-236.977c-.067-.461,1.253.435,1.085,0l-7.211-27.188c-1.255-3.736-8.892-11.649-12.121-9.389-2.371,1.66-1.591,7.989-.333,10.6l7.143,25.431,11.437.548" fill="#915344"/>
    <path id="path282" d="M284.91-240.3l-31.053,4.5-.255,5.475,31.651,2.915a6.5,6.5,0,0,0,6.84-8.383h0a6.494,6.494,0,0,0-7.183-4.508" fill="#915344"/>
    <path id="path284" d="M275.8-276.213s7.536,2.46,10.18,12.048l-16.072,5.493s-8.129-8.821.48-16.313l5.412-1.228" fill="#fabac0"/>
    <path id="path286" d="M244.361-231.05c.129,3.109,3.359,5.5,7.213,5.339s6.873-2.811,6.743-5.92-3.359-5.5-7.212-5.337-6.873,2.811-6.744,5.919" fill="#915344"/>
    <path id="path288" d="M263.763-233.987H244.13v-3.144h19.633a1.571,1.571,0,0,1,1.572,1.571h0a1.573,1.573,0,0,1-1.572,1.573" fill="#c6c5c3"/>
    <path id="path290" d="M247.8-233.987H210.866a4.738,4.738,0,0,1-4.564-3.467l-7.2-25.875a3.59,3.59,0,0,1,3.459-4.552h33.921a3.127,3.127,0,0,1,3.023,2.331l8.3,31.563" fill="#d3cfcf"/>
    <path id="path292" d="M225.313-249.486a3.5,3.5,0,0,1-3.495,3.495,3.494,3.494,0,0,1-3.493-3.495,3.493,3.493,0,0,1,3.493-3.493,3.494,3.494,0,0,1,3.495,3.493" fill="#fff"/>
    <path id="path294" d="M267.7-296.458c3.277.3,13.576,1.817,12.9,8.935a8.56,8.56,0,0,1-6.309,7.348c-3.331.9-7.919.277-11.439-7.284-5.12-10.995.757-10.053,3.035-9.363a9.023,9.023,0,0,0,1.811.364" fill="#1f1926"/>
    <path id="path296" d="M239.257-305.05A16.932,16.932,0,0,0,256.846-288.8c9.343-.372,17.308-9,16.937-18.339s-7.645-16.631-18.252-14.773c-9.211,1.612-16.645,7.523-16.275,16.867" fill="#1f1926"/>
    <path id="path298" d="M263.362-279.553l-.756-20.145-12.432.549L250.93-279a6.221,6.221,0,0,0,6.491,5.941h0a6.222,6.222,0,0,0,5.941-6.491" fill="#915344"/>
    <path id="path300" d="M263.089-298.79s-.719,14.907-12.217,15.125l-.316-7.439,12.533-7.687" fill="#7d3e39"/>
    <path id="path302" d="M244.93-277.138s11.017-6.7,25.759-1.192l-15.767,9.889-9.992-8.7" fill="#915344"/>
    <path id="path304" d="M245.965-300.353a4.341,4.341,0,0,1-4.164,4.509,4.343,4.343,0,0,1-4.509-4.165,4.341,4.341,0,0,1,4.165-4.508,4.339,4.339,0,0,1,4.508,4.164" fill="#7d3e39"/>
    <path id="path306" d="M252.941-286.3h0c-6.661.264-12.269-3.537-12.535-10.2l-.455-11.452c-.195-4.916,4.965-10.307,7.865-10.423l10.8,2.571a5.29,5.29,0,0,1,5.48,5.061l.453,11.408c.264,6.66-5.995,12.808-11.611,13.032" fill="#915344"/>
    <path id="path308" d="M251.531-302.133a.959.959,0,0,0,1.06.847.958.958,0,0,0,.847-1.059.959.959,0,0,0-1.06-.848.959.959,0,0,0-.847,1.06" fill="#1e1f26"/>
    <path id="path310" d="M242.751-301.857a.959.959,0,0,0,1.06.847.959.959,0,0,0,.847-1.059.961.961,0,0,0-1.06-.848.958.958,0,0,0-.847,1.06" fill="#1e1f26"/>
    <path id="path312" d="M246.551-300.591l-.149,2.759s.22,1.443,2.261.8" fill="none" stroke="#7d3e39" stroke-linecap="round" stroke-linejoin="round" stroke-miterlimit="10" stroke-width="0.722"/>
    <path id="path314" d="M254.954-305.142a.85.85,0,0,1-.177.017l-4.345-.012a.878.878,0,0,1-.875-.881.878.878,0,0,1,.88-.877l4.345.013a.879.879,0,0,1,.876.881.88.88,0,0,1-.7.859" fill="#1e1f26"/>
    <path id="path316" d="M244.489-304.963a.971.971,0,0,1-.176.017l-2.657-.008a.876.876,0,0,1-.876-.88.878.878,0,0,1,.88-.876l2.656.007a.88.88,0,0,1,.877.881.879.879,0,0,1-.7.859" fill="#1e1f26"/>
    <path id="path318" d="M246.3-317.382s9.737,13.163,18.983,13.173c0,0,4.731-8.621-3.232-13.928s-14.263-.88-14.263-.88l-1.488,1.635" fill="#1f1926"/>
    <path id="path320" d="M252.923-315.4a26.2,26.2,0,0,1-13.025,6.117s1.291-8.357,8.521-9.763l4.5,3.645" fill="#1f1926"/>
    <path id="path322" d="M259.1-308.222s-.295,6.576,3.9,7.193l.561-5.98-4.457-1.213" fill="#1f1926"/>
    <path id="path324" d="M269.813-301.3a4.342,4.342,0,0,1-4.165,4.509,4.341,4.341,0,0,1-4.508-4.165,4.339,4.339,0,0,1,4.164-4.508,4.34,4.34,0,0,1,4.509,4.164" fill="#915344"/>
    <path id="path326" d="M252.545-296.271s-.536,2.1-3.757,2.365" fill="none" stroke="#7d3e39" stroke-linecap="round" stroke-linejoin="round" stroke-miterlimit="10" stroke-width="0.722"/>
    <path id="path328" d="M246.974-311.511s-7.717,4.331-10.633.421a7.055,7.055,0,0,0,5.376-3.443l5.257,3.021" fill="#1f1926"/>
    <path id="path330" d="M241.717-314.533s1.675-9.955,13.815-7.384l-.979,4.505-12.836,2.879" fill="#1f1926"/>
  </g>
</svg>
