<svg xmlns="http://www.w3.org/2000/svg" width="408.708" height="697.808" viewBox="0 0 408.708 697.808">
  <g id="g10" transform="translate(-872.925 871.613)">
    <path id="path44" d="M1222.576-202.088l1.053,10.5-19.093,13.076-11.127-9.217,9.02-11.791,19.093-13.076,1.053,10.5" fill="#3b455a"/>
    <path id="path46" d="M1222.414-523.195l3.2,31.9-28.721,109.561,26.4,176.128-19.564,6.72-51.4-171.978-8.135-50.024.4-105.884,77.824,3.579" fill="#587bc9"/>
    <path id="path48" d="M1071.957-487.793l40.848,295.123,18.7.019,3.551-189.145,34.163-132.728-97.261,26.731" fill="#587bc9"/>
    <path id="path50" d="M1131.4-189.6l-.011,5.213-6.9,10.58-23.435-10.611L1111.178-195l20.221.02v5.387" fill="#3b455a"/>
    <path id="path52" d="M1118.735-703.56c14.113-11.661,48.108-4.915,66-4.9C1188.42-669.2,1195.576-630,1204.344-591.6c7.577,33.183,22.052,65.539,28.476,98.674,5.729,29.552,18.257,50.805,41.832,71.066,3.673,3.159,7.9,7.256,6.8,11.973-.663,2.845-3.136,4.863-5.547,6.513-23.805,16.291-54.388,17.96-83.23,18.419q-32.852.524-65.708-.1c-28.531-.544-60.27-3.931-84.581-20.46-1.535-1.043-3.173-2.389-3.288-4.241-.1-1.589.967-2.98,1.9-4.269,17.016-23.46,15.088-62.293,18.427-89.778,3.769-31.021,7.553-62.128,14.989-92.478a392.815,392.815,0,0,1,18.983-57.706c5.939-14.243,13.032-37.572,24.174-48.529.369-.363.756-.712,1.16-1.044" fill="#d7e8f4"/>
    <path id="path54" d="M1102.789-831.373a74.524,74.524,0,0,0-34.461-30.444c-9.78-4.264-19.969-5.312-29.823-6.324l-28.672-2.949c-13.324-1.372-25.3-.052-36.611,4.032a73.359,73.359,0,0,0-36.135,29.375A74.814,74.814,0,0,0,925.9-804.931L910.315-653.393l22.783,2.344,15.664-152.29a47.4,47.4,0,0,1,4.256-15.843,55.9,55.9,0,0,1,9.992-14.589,49.046,49.046,0,0,1,15.48-10.713,49.982,49.982,0,0,1,18.692-4.433c.309-.02,1.3-.056,3.765.036,1.031.037,2.137.121,3.484.259l40.137,4.129a47.862,47.862,0,0,1,16,4.271,55.9,55.9,0,0,1,14.591,9.993,49.033,49.033,0,0,1,10.713,15.48,50,50,0,0,1,4.433,18.691c.02.312.056,1.3-.036,3.767-.039,1.031-.12,2.125-.255,3.443l-15.668,152.329,22.783,2.343,15.664-152.29a72.763,72.763,0,0,0-10.008-44.9" fill="#305399"/>
    <path id="path56" d="M1003.532-594.364l-4.092,39.785c-.3,2.955-3.995,5-8.241,4.559l-.156-.015c-4.248-.437-7.445-3.187-7.141-6.143l4.092-39.785a30.8,30.8,0,0,1-19.811-31.981,30.791,30.791,0,0,1,33.779-27.477,30.789,30.789,0,0,1,27.476,33.779,30.8,30.8,0,0,1-25.905,27.279m-113.4-118.664L873.142-547.8a40.678,40.678,0,0,0,36.3,44.627l152.106,15.645a40.677,40.677,0,0,0,44.625-36.3l16.995-165.23L890.136-713.028" fill="#305399"/>
    <path id="path58" d="M1065.76-487.669a41.177,41.177,0,0,1-4.211-.216L909.443-503.529a40.932,40.932,0,0,1-6.76-1.287h0c.143,0,3.792.425,10.043.852s15.108.852,25.663.852c55.252,0,157.037-11.677,175.508-96.148l-7.723,75.072a40.679,40.679,0,0,1-40.415,36.519" fill="#2b4b89"/>
    <path id="path64" d="M1191.533-695.057l-87.963,60.511-54.057-33.86-11.608,17.376,63.694,56.084,87.94-43.379,1.993-56.732" fill="#f7f7f7"/>
    <path id="path66" d="M1160.516-752.717c-11.5,1.661-20.671,6.4-23.313,17.715a26.719,26.719,0,0,1-5.256-23.583,26.714,26.714,0,0,1,16.232-17.9,30.406,30.406,0,0,1,12.343,19.4l-.005,4.368" fill="#3b455a"/>
    <path id="path68" d="M1148.066-700.1c-8.456-3.988-13.827-12.941-15.363-22.163s.3-18.7,3.155-27.6c9.512-29.62,46.759-19.672,54.58,6.241,6.816,22.584-17.787,55.117-42.372,43.52" fill="#eac5b0"/>
    <path id="path70" d="M1158.216-493.053c-5.375-4.093-4.744-12.136-6.128-18.749s-9.712-13.2-14.112-8.069c-9.34-3.852-14.243-14.675-14.2-24.777s4.027-19.721,7.947-29.033c8.688-20.633,16.82-41.619,26.1-61.989,8.776-19.257,12.273-40.455,15.821-60.96,1.777-10.277-.651-20.923-4.963-30.419s-10.435-18.035-16.452-26.555c-2.5-3.543-5.079-7.319-5.441-11.643-.4-4.779,2.073-9.467,5.6-12.723,5.424-5.008,11.381-7.1,18.543-6.38,25.14,2.515,42.143,19.683,46.213,45.043,3.443,21.441-2.125,43.149-6.14,64.491-6.037,32.091-4.047,70.3,11.609,99.313,6.381,11.821,13.471,23.769,15.007,37.115s-4.311,28.671-16.915,33.316c-4.924,1.816-10.516,1.911-14.956,4.712a8.735,8.735,0,0,0-2.363,13.04c-6.657,8.848-11.884,1.149-18.577-1.531-8.161-3.268-19.715,1.039-26.592-4.2" fill="#3b455a"/>
    <path id="path72" d="M1046.909-664.508l-4.151-10.665-19.315-3.883-2.9,7.724,13.511,11.6,8.023,2.46,4.836-7.24" fill="#eac5b0"/>
  </g>
</svg>
