<svg xmlns="http://www.w3.org/2000/svg" width="157.637" height="500.987" viewBox="0 0 157.637 500.987">
  <g id="Groupe_3" data-name="Groupe 3" transform="translate(-86.182 575.144)">
    <path id="path14" d="M99.083-95.489s-1.449,2.168-1.232,7.163.487,8,4.289,8.007a165.23,165.23,0,0,0,26.221-2.606c13.355-2.2,24.538-6.352,23.126-12.867s-20.966-5.775-29.212-2.848-23.192,3.151-23.192,3.151" fill="#201e39"/>
    <path id="path16" d="M115.547-103.114s.233,5.572,10.7,4.228c7.369-.856,3.99,5.728-2.2,6.921s-21.665.685-23.726-.727-.8-3.977-.113-10.719,15.341.3,15.341.3" fill="#f39c90"/>
    <path id="path18" d="M99.024-360.6s-15.946,18.323,5.765,75.588c11.236,23.153,8.445,43.093,3.97,57.9-11.027,36.483-3.909,48.644-8.627,126.613,7.552,4.405,15.418,0,15.418,0s16.041-98.684,18.4-121.809,2.831-53.807,2.831-75.517l1.888-4.72v-63.716L99.024-360.6" fill="#f39c90"/>
    <path id="path20" d="M129.643-89.328s-1.449,2.168-1.232,7.163.487,8.005,4.289,8.008a165.338,165.338,0,0,0,26.221-2.607c13.356-2.2,24.539-6.352,23.127-12.867s-20.965-5.775-29.213-2.845-23.191,3.148-23.191,3.148" fill="#322a5d"/>
    <path id="path22" d="M120.314-362.775s-21.711,24.7,0,81.968c9.754,25.172,12.973,35.716,11.012,47.828-6.608,40.825-.89,69.816-.366,138.545,7.551,4.406,15.418,0,15.418,0s12.061-115.2,14.421-138.328-1.879-45.607-1.879-67.319a10.065,10.065,0,0,0-2.389-6.188l-4.759-61-31.459,4.493" fill="#fab6a4"/>
    <path id="path24" d="M146.582-96.373s-.243,4.992,10.221,3.648c7.369-.855,3.991,5.728-2.2,6.921s-21.959,1.792-24.022.381-.5-5.085.183-11.826,15.816.876,15.816.876" fill="#fab6a4"/>
    <path id="path26" d="M217.039-488.755s-.236-9.125,1.652-12.429,8.181-15.575,8.181-15.575,10.071-3.459,11.644-2.515-.181,8.8-2.148,13.752-4.305,9.844-5.564,13.227-3.013,8.495-3.2,8.811-10.568-5.271-10.568-5.271" fill="#fab6a4"/>
    <path id="path28" d="M242.375-533.553l1.444,1.221-14.744,36.5-15.419-5.815,28.719-31.9" fill="#757071"/>
    <path id="path30" d="M226.2-537.009l16.176,3.456-14.745,36.5-15.417-5.815L226.2-537.009" fill="#4d4241"/>
    <path id="path32" d="M219.557-487.143a74.439,74.439,0,0,1,2.949-12.625c2.007-5.664,3.54-7.315,5.664-8.849s2.477.079,1.377,2.753-1.337,8.535-1.337,8.535a39.978,39.978,0,0,1-3.353,10.776l-5.3-.589" fill="#fab6a4"/>
    <path id="path34" d="M221.135-491.095h-.008a.164.164,0,0,1-.155-.171,54.012,54.012,0,0,1,.943-7.243.159.159,0,0,1,.192-.127.165.165,0,0,1,.127.192,53.643,53.643,0,0,0-.936,7.193.163.163,0,0,1-.163.155" fill="#ee9783"/>
    <path id="path36" d="M189.78-500.82s8.765-12.936,11.975-14.491,21.648-4.164,22.768-3.653-.055,2.695-2.155,3.457-12.2,2.647-12.2,2.647c2.321.093,3.892,1.975,1.793,3.984,2.191,1.435,2.311,3.261.761,4.029,1.4.813,1.237,4.928-1.369,6.92-5.02,3.837-9.08,2.088-13.891,4.773-3.261,1.821-6.043,6.168-6.043,6.168L185.6-497.409l4.181-3.411" fill="#fab6a4"/>
    <path id="path38" d="M148.172-466.747s35.289-31.763,39.347-34.113c6.908,7.4,7.723,13.267,7.723,13.267L166.25-457.463l-18.079-9.284" fill="#3e5690"/>
    <path id="path40" d="M201.237-499.275a.188.188,0,0,1-.173-.116.189.189,0,0,1,.1-.245c2.252-.913,2.588-3.361,2.86-5.328a13.951,13.951,0,0,1,.247-1.447l.077-.315c.221-.9.429-1.756,1.129-1.973.767-.233,1.921.384,3.745,2.015.829.741,2.317.064,3.029-.688.307-.324.551-.752.32-.983-1.748-1.749-6.095-5.616-8.933-4a46.078,46.078,0,0,0-7.084,5.517.187.187,0,0,1-.264-.005.188.188,0,0,1,.005-.265,46.3,46.3,0,0,1,7.157-5.572c2.951-1.683,7.139,1.812,9.373,4.047.363.364.243.94-.3,1.517-.837.883-2.536,1.62-3.553.711-1.667-1.492-2.772-2.125-3.383-1.937-.5.155-.681.907-.877,1.7l-.079.32a13.723,13.723,0,0,0-.239,1.4c-.269,1.955-.637,4.629-3.089,5.625a.184.184,0,0,1-.071.013" fill="#ee9783"/>
    <path id="path42" d="M207-502.148a3.225,3.225,0,0,1-2.493-1.06.186.186,0,0,1,.013-.264.187.187,0,0,1,.264.012c2.491,2.741,7.768-1.489,7.821-1.532a.184.184,0,0,1,.263.027.187.187,0,0,1-.028.264c-.169.137-3.184,2.553-5.84,2.553" fill="#ee9783"/>
    <path id="path44" d="M208.058-498.884h-.109c-1.335-.017-2.207-.356-2.588-1.008a2.227,2.227,0,0,1,.084-1.987.188.188,0,0,1,.253-.075.187.187,0,0,1,.076.255,1.876,1.876,0,0,0-.089,1.617c.312.531,1.075.808,2.269.823h.1a6.585,6.585,0,0,0,5.277-2.395.189.189,0,0,1,.261-.047.187.187,0,0,1,.047.26,6.833,6.833,0,0,1-5.583,2.556" fill="#ee9783"/>
    <path id="path46" d="M205.777-505.3a5.625,5.625,0,0,1-1.5-.217.189.189,0,0,1-.132-.231.187.187,0,0,1,.231-.131c2.991.82,4.133-1.107,4.145-1.127a.188.188,0,0,1,.256-.071.189.189,0,0,1,.069.256,3.552,3.552,0,0,1-3.065,1.52" fill="#ee9783"/>
    <path id="path48" d="M120.453-529.415s-4.118,23.525-6.431,28.333c9.423,3.463,20.232-.6,20.232-.6s-1.847-13.328,2.869-16.621c-5.949-6.309-16.67-11.112-16.67-11.112" fill="#fab6a4"/>
    <path id="path50" d="M96.706-401.438s.555,19.891.448,25.9c2.9,6.193,59.211,1.9,59.211,1.9l-1.44-28.479-58.219.679" fill="#fab6a4"/>
    <path id="path52" d="M106.518-505.2s33.611,2.981,44.1,7.313,46.524,48.852,46.524,48.852L217.2-491.036s10.384,1.652,13.216,9.911c-8.26,24.308-21,57.581-28.555,62.773s-33.393-16.283-33.393-16.283S154.122-410.61,157.78-398.81c-35.516,8.967-63.184.467-63.184.467S91.73-434.32,87.01-457.29s11.957-45.153,19.508-47.907" fill="#576ba1"/>
    <path id="path54" d="M155.248-559.575s7.819,16.407,3.72,28.248-8.94,15.353-12.175,17.005-11.9,1.332-21.582-13.809,15.847-41.055,30.036-31.444" fill="#fab6a4"/>
    <path id="path56" d="M165.018-553.537c-3.62-25.713-33.032-21.323-33.032-21.323a43.95,43.95,0,0,0-15.393,3.883l-.013,0c-20.852,10.907-30.3,51.2-19.875,66.075s39.414,11.66,60.152-1.8c-5.972-2.511-13.22-5.475-13.9-16.449a31.152,31.152,0,0,1,5.212-18.909c5.465-2.219,14.4-1.7,13.884,1.7,0,0,3.495-3.215,2.963-13.172" fill="#ee681e"/>
    <path id="path58" d="M168.465-434.472a.161.161,0,0,1-.112-.045c-.215-.2-21.567-20.616-26.88-29.868-5.347-9.309,1.6-22.117,1.671-22.247a.16.16,0,0,1,.221-.063.163.163,0,0,1,.064.221c-.069.125-6.928,12.776-1.673,21.925,5.291,9.212,26.607,29.591,26.823,29.8a.163.163,0,0,1,.005.229.166.166,0,0,1-.119.051" fill="#95d1ed"/>
    <path id="path60" d="M155.914-382.552s4.309,48.543,5.753,96.476c-28.573,13.887-59.725,4.692-59.725,4.692S99.051-311.2,91.169-328.092,84.7-370.438,97.031-382.91c21.335,2.721,58.883.357,58.883.357" fill="#201e39"/>
    <path id="path62" d="M155.914-382.552s4.309,48.543,5.753,96.476c-28.573,13.887-45.643,8.8-45.643,8.8s-8.84-35.616-19.318-51.029c-13.138-19.328-12.005-42.128.325-54.6,21.335,2.721,58.883.357,58.883.357" fill="#322a5d"/>
    <path id="path64" d="M122.839-370.507a103.773,103.773,0,0,1-31.019-4.736l.326-.923a102.786,102.786,0,0,0,35.966,4.533c19.778-1.125,28.092-2.475,28.174-2.487l.159.963c-.081.015-8.448,1.372-28.277,2.5-1.808.1-3.589.149-5.328.149" fill="#576ba1"/>
    <path id="path66" d="M147.141-284.2c-1.5-25.307-11.433-86.752-11.533-87.369l.964-.156c.1.617,10.041,62.112,11.544,87.468l-.975.057" fill="#576ba1"/>
    <path id="path68" d="M140.468-345.13l-.681-.7c10.06-9.765,11.891-27.388,11.908-27.565l.972.095c-.017.181-1.885,18.16-12.2,28.172" fill="#576ba1"/>
  </g>
</svg>
