<svg xmlns="http://www.w3.org/2000/svg" width="314.244" height="508.148" viewBox="0 0 314.244 508.148">
  <g id="Groupe_2" data-name="Groupe 2" transform="translate(-603.202 511.615)">
    <path id="path488" d="M752.591-296.925l-1.547-.467c-7.236,2.991-12.017,10.127-14.512,17.548s-3.109,15.319-4.568,23.012-3.949,15.529-9.389,21.16a86.791,86.791,0,0,0,11.243,8.2,8.957,8.957,0,0,0,4.191,1.632c2.411.092,4.483-1.635,6.129-3.4,8.136-8.695,9.139-24.356,10-36.232s1.784-20.025-1.543-31.46" fill="#f2575d"/>
    <path id="path490" d="M734.87-226.853s-3.5-2.179-4.643-2.947,16.552-62.64,16.552-62.64l4.183.843c-4.221,15.9-10.56,40.469-16.091,64.74v0" fill="#ee4947"/>
    <path id="path492" d="M758.379-307.619a5.325,5.325,0,0,0-4.767-4.72,7.612,7.612,0,0,0-6.419,2.844,13.7,13.7,0,0,0-2.787,6.659c-.56,3.367-.1,7.355,2.691,9.317a6.784,6.784,0,0,0,7.385-.1,9.984,9.984,0,0,0,4.107-6.432,19.376,19.376,0,0,0-.255-7.779l.044.207" fill="#f2575d"/>
    <path id="path494" d="M752.5-297.379a5.172,5.172,0,0,1-.871-2.148,13.211,13.211,0,0,1-.1-5.6,13.21,13.21,0,0,1,2.209-5.148c.855-1.163,1.565-1.712,1.619-1.657A15.246,15.246,0,0,1,754.153-310a15.737,15.737,0,0,0-1.937,5.012,15.7,15.7,0,0,0-.1,5.369,15.059,15.059,0,0,1,.389,2.244" fill="#17282f"/>
    <path id="path496" d="M749.91-291.661c.021.083-.337.283-.987.308a3.6,3.6,0,0,1-2.364-.819,3.61,3.61,0,0,1-1.255-2.165c-.1-.643.031-1.033.117-1.027.191-.025.248,1.559,1.58,2.656s2.9.855,2.908,1.047" fill="#17282f"/>
    <path id="path498" d="M842.766-376.932l13.267,28.659-29.535-17,16.268-11.663" fill="#f8a58d"/>
    <path id="path500" d="M603.2-468.016l39.969,52.607,17.237-4.573,8.675,4.924,15.008-27.595-9.029-4.739-6.676-16.931L603.2-468.016" fill="#fafaf9"/>
    <path id="path502" d="M603.2-468.016l65.2,3.491.131.005.047.121c2.125,5.376,4.367,11.049,6.689,16.925l-.1-.111,9.029,4.735.2.1-.107.2c-2.456,4.52-5.035,9.263-7.659,14.088q-3.742,6.88-7.349,13.508l-.108.2-.2-.113-8.672-4.928.164.021-17.24,4.56-.135.036-.083-.109-39.8-52.73c1.111,1.453,16.635,21.753,40.135,52.481l-.217-.073,17.235-4.584.088-.024.077.044,8.676,4.921-.308.089,7.344-13.509,7.663-14.085.091.3-9.027-4.743-.071-.037-.029-.073-6.664-16.936.177.128-65.169-3.9" fill="#17282f"/>
    <path id="path504" d="M651.172-452.7a9.416,9.416,0,0,1,3.865,12.888,9.758,9.758,0,0,1-13.053,4.008,9.415,9.415,0,0,1-3.864-12.887,9.757,9.757,0,0,1,13.052-4.009" fill="#17282f"/>
    <path id="path506" d="M603.2-468.016c.057-.111,9.845,4.7,21.859,10.748s21.713,11.037,21.655,11.148-9.844-4.7-21.863-10.749-21.709-11.036-21.651-11.147" fill="#17282f"/>
    <path id="path508" d="M915.583-306.921a15.554,15.554,0,0,1-20.729,6.428l-217.4-111L692.1-438.426,909.347-327.5a15.008,15.008,0,0,1,6.236,20.581" fill="#f2575d"/>
    <path id="path510" d="M694.738-439.908l-17.224,31.671L666.5-414.02l17.223-31.671,11.017,5.783" fill="#f2575d"/>
    <path id="path512" d="M680.15-409.631l-1.465-.759.2-.372,1.507.769-.244.361" fill="#a7a9a8"/>
    <path id="path514" d="M680.394-409.992l-1.507-.769,14.445-26.559,4.107,2.127-17.045,25.2" fill="#cc4341"/>
    <path id="path516" d="M689.708-430.658l.005-.009h0l-.007.009" fill="#f89ca4"/>
    <path id="path518" d="M671.218-422.7l1.519-2.793.609-1.123,16.367-4.052-.005.009-2.565,4.016L671.218-422.7" fill="#f89ca4"/>
    <path id="path520" d="M828.43-334.062l-.008-.351.168.087-.16.264" fill="#c3c5c2"/>
    <path id="path522" d="M828.59-334.326l-.168-.087-.005-.175c.105-9.747.159-21.681-.02-32.436a32.376,32.376,0,0,1,.193,32.7" fill="#ee4947"/>
    <path id="path524" d="M787.4-28.425c.125.26,1.431-.164,3.048-.088,1.623.043,2.892.561,3.036.311.161-.211-1.089-1.243-3-1.305-1.908-.078-3.231.861-3.085,1.082" fill="#17282f"/>
    <path id="path526" d="M783.818-50.549c.237.161,1.16-.853,2.6-1.592,1.428-.768,2.787-.951,2.789-1.237.035-.264-1.564-.539-3.253.356s-2.375,2.354-2.139,2.473" fill="#17282f"/>
    <path id="path528" d="M786.266-51.389l1.719,30.16S757.9-9.353,757.679-3.749l58.6-1.232-.751-47.1-29.263.695" fill="#f2575d"/>
    <path id="path530" d="M806.051-24.15a2.4,2.4,0,0,1,1.712,2.7,2.3,2.3,0,0,1-2.657,1.72,2.524,2.524,0,0,1-1.8-2.865,2.388,2.388,0,0,1,2.963-1.483" fill="#dadbd8"/>
    <path id="path532" d="M816.362-3.467V-9.744L759.933-6.769s-2.587,1.189-2.253,3.02l58.683.283" fill="#17282f"/>
    <path id="path534" d="M787.029-21.508c.015.287,1.448.385,2.875,1.276,1.451.853,2.2,2.077,2.464,1.958.263-.061-.2-1.763-1.947-2.81-1.737-1.064-3.46-.684-3.392-.424" fill="#17282f"/>
    <path id="path536" d="M780.935-18.836c-.059.279,1.189.738,2.187,1.928,1.033,1.16,1.305,2.464,1.591,2.445.269.04.432-1.64-.836-3.1s-2.94-1.551-2.941-1.277" fill="#17282f"/>
    <path id="path538" d="M777.6-11.408c.26.056.628-1.382-.14-2.933s-2.119-2.148-2.236-1.907c-.156.239.731,1.061,1.341,2.345.641,1.268.749,2.473,1.035,2.495" fill="#17282f"/>
    <path id="path540" d="M826.455-318.379s13.385,23.009,15.225,43.595c1.664,18.635-10.113,39.971-10.113,39.971L811.218-158.2l6,131.009-32.541,1.668L765.9-175.7l5.68-139.8,54.87-2.873" fill="#17282f"/>
    <path id="path542" d="M771.426-69.917,787.9-44.6s-20.2,25.249-17.616,30.225l50.244-30.179L796.478-85.057l-25.052,15.14" fill="#f2575d"/>
    <path id="path544" d="M802.129-56.1a2.391,2.391,0,0,1,2.825,1.488A2.3,2.3,0,0,1,803.5-51.8a2.526,2.526,0,0,1-2.984-1.592,2.387,2.387,0,0,1,1.835-2.76" fill="#dadbd8"/>
    <path id="path546" d="M820.527-44.549l-2.583-3.989L770.737-18.111s-1.652,2.316-.453,3.74l50.244-30.179" fill="#17282f"/>
    <path id="path548" d="M786.933-44.362c.155.241,1.449-.385,3.129-.321,1.683.02,2.943.709,3.111.476.2-.183-1.049-1.431-3.085-1.472-2.036-.06-3.344,1.126-3.155,1.318" fill="#17282f"/>
    <path id="path550" d="M782.971-39.017c.087.27,1.4.051,2.857.587,1.471.5,2.356,1.491,2.593,1.333.253-.1-.439-1.639-2.263-2.272-1.819-.649-3.324.115-3.188.352" fill="#17282f"/>
    <path id="path552" d="M783.767-30.914c.253-.08-.141-1.512-1.579-2.475s-2.905-.813-2.887-.546c-.017.285,1.161.559,2.328,1.37,1.187.782,1.879,1.775,2.137,1.651" fill="#17282f"/>
    <path id="path554" d="M755.719-309.191S716.12-166.754,724.628-150.8,776.814-46.079,776.814-46.079L813.5-66.284l-41.917-97.928,31.864-70.1s15.268-13.293,21.168-31.9-4.281-49.3-4.281-49.3H756.609l-.889,6.315" fill="#17282f"/>
    <path id="path556" d="M826.455-285.926s.109.371.252,1.1.339,1.821.532,3.255a80.142,80.142,0,0,1,.781,12.535,50.316,50.316,0,0,1-.991,8.955,28.086,28.086,0,0,1-1.484,4.924,32.558,32.558,0,0,1-2.564,4.9A40.953,40.953,0,0,1,803.553-234l.191-.172c-9.072,20-20,44.1-31.8,70.124l0-.317c.576,1.348,1.2,2.8,1.824,4.263l39.988,93.711.1.232-.22.119c-11.345,6.188-20.528,11.2-26.911,14.679-3.16,1.705-5.623,3.033-7.331,3.953L777.479-46.4c-.433.224-.665.32-.665.32s.205-.142.627-.389c.451-.26,1.075-.619,1.879-1.079l7.259-4.083c6.353-3.531,15.5-8.616,26.791-14.9l-.12.351c-10.275-23.927-24.491-57.034-40.2-93.62-.625-1.46-1.248-2.915-1.825-4.261l-.067-.159.071-.159,31.929-70.065.055-.119.136-.055a40.54,40.54,0,0,0,19.193-15.917,32.3,32.3,0,0,0,2.556-4.811,27.762,27.762,0,0,0,1.495-4.835,50.617,50.617,0,0,0,1.06-8.869,85.627,85.627,0,0,0-.6-12.5c-.163-1.433-.331-2.527-.437-3.263s-.155-1.119-.155-1.119" fill="#33535f"/>
    <path id="path558" d="M771.585-283.567a4.766,4.766,0,0,1,.739-.083l2.231-.167,8.533-.571,30.483-1.885.367-.023v.369c.012,8.971.027,19.051.043,29.741v.18l-.137.117-4.584,3.923L793.63-238.615l-.189.163-.224-.112L772.9-248.714l-.175-.087-.005-.191c-.373-10.427-.681-19.087-.9-25.209-.091-2.955-.16-5.295-.211-6.96-.016-.752-.029-1.351-.04-1.811a3.191,3.191,0,0,1,.012-.6,5.483,5.483,0,0,1,.064.663c.028.475.068,1.092.116,1.867.091,1.683.22,4.045.381,7.028.3,6.069.719,14.655,1.227,24.991l-.181-.279,20.361,10.056-.413.052,15.611-13.369,4.585-3.921-.136.3c.016-10.691.029-20.771.043-29.741l.368.347c-12.421.627-22.869,1.152-30.28,1.527-3.66.165-6.565.3-8.623.392l-2.3.087a6.6,6.6,0,0,1-.819.007" fill="#33535f"/>
    <path id="path560" d="M813.465-280.355a6.679,6.679,0,0,1-1.625.341c-1.051.171-2.577.38-4.467.609-3.78.461-9.017.972-14.816,1.335s-11.063.5-14.871.507c-1.9.007-3.445-.013-4.509-.052a6.775,6.775,0,0,1-1.653-.139,6.826,6.826,0,0,1,1.649-.167l4.5-.2c3.8-.151,9.047-.377,14.835-.736s11.02-.784,14.809-1.1q2.64-.214,4.489-.361a6.877,6.877,0,0,1,1.659-.039" fill="#33535f"/>
    <path id="path562" d="M756.69-381.7s-5.611,11.843-4.151,25.479c.6,5.583,3.887,19.811,3.887,19.811l-.447,27.221s72.21-5.409,72.153-5.556.783-34.281.135-58.284-11.207-48.7-11.207-48.7-9.607-5.549-16.816-4.944-37.42,3.988-37.42,3.988L756.69-381.7" fill="#33535f"/>
    <path id="path564" d="M761.65-421.772s-12.057,1.744-23.247,19.307c-11.556,18.139-16.851,25.644-16.851,25.644l32.928,21.512s18.149-27.361,20.419-33.232,4.8-33.78-13.249-33.231" fill="#33535f"/>
    <path id="path566" d="M809.925-423.614s10.421,4.121,14.728,10.753c2.8,4.315,20.04,34.587,20.04,34.587l-19.811,13.8L809.925-406.5v-17.116" fill="#33535f"/>
    <path id="path568" d="M753.39-350.818l-1.455-.656-.495-5.823,1.06.693c.012.125.025.253.039.38.148,1.385.463,3.3.851,5.405" fill="#c3c5c2"/>
    <path id="path570" d="M755.747-349.754l-2.357-1.064c-.388-2.1-.7-4.02-.851-5.405-.013-.127-.027-.255-.039-.38l1.98,1.293s13.6-20.508,18.729-29.824l1.252-1.94c-.713,13.456-18.715,37.32-18.715,37.32" fill="#263f48"/>
    <path id="path572" d="M754.481-355.31,752.5-356.6l-1.06-.693-.076-.9,3.323,1.757,18.523-28.7c-5.125,9.316-18.729,29.824-18.729,29.824" fill="#263f48"/>
    <path id="path574" d="M825.535-402.466a2.656,2.656,0,0,1,.149.673c.08.524.179,1.167.3,1.947.241,1.693.557,4.148.889,7.188.679,6.077,1.408,14.5,1.884,23.817s.644,17.771.689,23.884c.013,3.056.008,5.531-.024,7.24-.02.788-.036,1.439-.049,1.968a2.529,2.529,0,0,1-.065.687,2.646,2.646,0,0,1-.075-.685c-.021-.529-.048-1.179-.08-1.967-.049-1.813-.116-4.259-.2-7.235-.169-6.108-.4-14.545-.891-23.856-.475-9.308-1.127-17.721-1.68-23.805-.275-2.963-.5-5.4-.668-7.2-.068-.787-.123-1.435-.168-1.961a2.558,2.558,0,0,1-.011-.691" fill="#17282f"/>
    <path id="path576" d="M820.279-457.088c-1.512-7.687-4.68-14.933-7.1-22.387-2.813-8.676-5-18.295-12-24.143-4.621-3.861-10.685-5.457-16.587-6.653-5.345-1.085-10.884-1.933-16.224-.823-2.669.555-5.216,1.585-7.865,2.225-3.072.745-6.307.973-9.18,2.295-5.935,2.728-8.964,9.505-9.853,15.975s-.156,13.085-1.083,19.552a90.663,90.663,0,0,1-2.027,9.179c-2.737,5.909-5.735,11.813-5.307,18.136.309,4.575,2.412,8.82,3.421,13.292s.6,9.845-3.016,12.667a6.861,6.861,0,0,0,8.415.445,6.787,6.787,0,0,0,2.631-4.808,4.726,4.726,0,0,0,1.813,1.5c1.819.828,3.915.656,5.9.465,5.748-.551,11.717-1.223,16.721-4l28.147-2.4c7.264,2.937,16.027-1.139,20.2-7.768s4.493-15.06,2.983-22.748" fill="#17282f"/>
    <path id="path578" d="M763.2-505.091c-2.725.544-5.6.14-8.273.895-3.875,1.092-6.752,4.5-8.232,8.247s-1.777,7.832-2.06,11.848q-.378,5.4-.757,10.8a33.538,33.538,0,0,1-.963,6.876c-.708,2.488-2.641,9.107-2.768,12.34-.412,10.528,3.352,19.077,8.044,24.395,2.483,2.812,14.045,2.881,17.723,3.625,1.62-1.416,5.669-1.4,7.291-2.82.276-.241-11.763-9.447-11.62-9.785a2.5,2.5,0,0,0-.161-1.745,86.064,86.064,0,0,1,3.631-64.085" fill="#17282f"/>
    <path id="path580" d="M795.774-422.7l4.209-66.151a5.542,5.542,0,0,0-4.944-5.629l-29.379-7.495c-9.413-1.016-15.7,10.561-16.315,20.009-.684,10.495-1.107,23.335.12,31.171C751.933-435.04,764-433.01,764-433.01l.993,10.572s7.64-1.349,13.287-1.956c12.523-1.344,17.495,1.695,17.495,1.695" fill="#f8a58d"/>
    <path id="path582" d="M752.99-470.2a2.017,2.017,0,0,0,1.943,2.041,1.933,1.933,0,0,0,2.087-1.816,2.023,2.023,0,0,0-1.941-2.044,1.934,1.934,0,0,0-2.088,1.819" fill="#17282f"/>
    <path id="path584" d="M753.02-474.826c.251.264,1.783-.865,3.956-.855,2.172-.021,3.764,1.1,4,.836.116-.119-.14-.593-.832-1.1a5.541,5.541,0,0,0-3.2-.995,5.322,5.322,0,0,0-3.149,1.009c-.669.511-.9.987-.775,1.105" fill="#17282f"/>
    <path id="path586" d="M772.951-469.939a2.02,2.02,0,0,0,1.943,2.043,1.934,1.934,0,0,0,2.087-1.817,2.021,2.021,0,0,0-1.941-2.044,1.935,1.935,0,0,0-2.088,1.819" fill="#17282f"/>
    <path id="path588" d="M774.383-474.826c.249.264,1.785-.865,3.956-.855,2.171-.02,3.764,1.1,4,.836.116-.119-.135-.593-.832-1.1a5.535,5.535,0,0,0-3.2-.995,5.33,5.33,0,0,0-3.148,1.009c-.668.511-.9.987-.775,1.105" fill="#17282f"/>
    <path id="path590" d="M766.459-458.724a14.368,14.368,0,0,0-3.528-.645c-.555-.059-1.08-.169-1.173-.549a2.828,2.828,0,0,1,.375-1.644q.788-2.014,1.649-4.223c2.293-6.011,3.955-10.956,3.712-11.045s-2.3,4.709-4.592,10.721q-.826,2.224-1.58,4.248a3.2,3.2,0,0,0-.293,2.177,1.393,1.393,0,0,0,.911.813,3.774,3.774,0,0,0,.943.133,14.248,14.248,0,0,0,3.577.013" fill="#17282f"/>
    <path id="path592" d="M764-433.01A42.46,42.46,0,0,0,786-438.588s-5.781,11.981-21.541,10.472L764-433.01" fill="#f68260"/>
    <path id="path594" d="M773.789-454.135a4.132,4.132,0,0,0-2.848-1.536A4.52,4.52,0,0,0,766.883-454l-.108.081a.836.836,0,0,0-.005.935,2.766,2.766,0,0,0,.715.744,9.512,9.512,0,0,0,3.2,1.921,3.033,3.033,0,0,0,3.292-.824,2.617,2.617,0,0,0-.192-2.993" fill="#f68260"/>
    <path id="path596" d="M772.853-457.208c-.353-.02-.363,2.339-2.387,4.008s-4.533,1.407-4.552,1.736c-.033.147.559.459,1.62.491a5.885,5.885,0,0,0,3.8-1.316,5.12,5.12,0,0,0,1.848-3.36c.093-.985-.169-1.571-.331-1.559" fill="#17282f"/>
    <path id="path598" d="M773.054-482.592c.213.591,2.384.316,4.933.629,2.556.261,4.611,1.012,4.949.483.152-.253-.207-.809-1.036-1.384a8.255,8.255,0,0,0-3.667-1.292,8.248,8.248,0,0,0-3.863.445c-.936.375-1.409.837-1.317,1.119" fill="#17282f"/>
    <path id="path600" d="M752.989-481.74c.381.493,1.879-.015,3.68-.035,1.8-.083,3.324.339,3.676-.177.155-.249-.084-.745-.749-1.213a5.1,5.1,0,0,0-2.989-.816,5.1,5.1,0,0,0-2.939.987c-.637.505-.847,1.013-.679,1.255" fill="#17282f"/>
    <path id="path602" d="M739.692-419.263a4.573,4.573,0,0,1-.316-.928c-.181-.616-.424-1.533-.671-2.729a50.056,50.056,0,0,1-1.053-10.283,54.573,54.573,0,0,1,2.205-15.167c1.5-5.571,3.763-11.517,4.789-18.039.973-6.525.715-12.9,1.523-18.649.72-5.739,2.565-10.848,5.355-14.307A16.761,16.761,0,0,1,760-505.187a9.491,9.491,0,0,1,3.771-.391,19.322,19.322,0,0,0-3.685.683,16.9,16.9,0,0,0-8.121,5.872c-2.649,3.4-4.4,8.391-5.076,14.06-.761,5.672-.477,12.039-1.464,18.675-1.047,6.635-3.343,12.591-4.867,18.113a55.678,55.678,0,0,0-2.347,14.976,55.019,55.019,0,0,0,.8,10.221c.2,1.2.393,2.123.525,2.748a4.591,4.591,0,0,1,.163.967" fill="#33535f"/>
    <path id="path604" d="M761.237-503.027a3.758,3.758,0,0,1,1.611-2.2c4.74-3.7,11.157-4.821,17.1-3.909s11.463,3.695,16.405,7.119c4.3,2.981,8.363,6.623,10.543,11.381,1.541,3.36,2.057,7.084,2.557,10.747,1.24,9.076,3.675,18.173,3.587,27.333-.036,3.568.612,9.572,0,13.972-.652,4.7-5.211,10.429-9.836,11.479l-10.429,1.04s5.645-19.475,5.209-26.491c-.383-6.149-.328-12.893-1.023-19.016a3.342,3.342,0,0,0-.363-1.376,3.35,3.35,0,0,0-1.432-1.1q-3.256-1.666-6.515-3.329a63.486,63.486,0,0,1-6.132-3.425,56.8,56.8,0,0,1-6.155-4.241c-2.816-2.409-5.4-4.333-8.216-6.744a32.821,32.821,0,0,1-5.124-6.115,8.389,8.389,0,0,1-1.4-6.611" fill="#17282f"/>
    <path id="path606" d="M796.223-467.282a4.6,4.6,0,0,1,6.723-3.908c1.595.921,2.815,2.775,2.667,6.333-.389,9.487-9.833,7.137-9.839,6.864,0-.169.253-5.365.449-9.289" fill="#f8a58d"/>
    <path id="path608" d="M798.821-461.467c.043-.028.16.123.433.261a1.651,1.651,0,0,0,1.235.077c1.016-.327,1.927-1.884,2.043-3.591a5.465,5.465,0,0,0-.364-2.385,1.911,1.911,0,0,0-1.192-1.32.842.842,0,0,0-.993.412c-.139.261-.087.452-.137.467-.027.023-.2-.168-.1-.556a1.059,1.059,0,0,1,.4-.579,1.246,1.246,0,0,1,.924-.2,2.323,2.323,0,0,1,1.665,1.543,5.619,5.619,0,0,1,.465,2.667c-.14,1.909-1.192,3.657-2.58,4a1.773,1.773,0,0,1-1.5-.312c-.285-.248-.327-.461-.292-.477" fill="#f68260"/>
    <path id="path610" d="M811.959-482.216a33.381,33.381,0,0,0-6.573-4.031,51.047,51.047,0,0,0-7.955-2.653c-3.061-.821-6.485-1.553-10.015-2.649a51.422,51.422,0,0,1-16.653-8.755,44.413,44.413,0,0,1-4.259-3.816,9.453,9.453,0,0,1-1.379-1.579,12.188,12.188,0,0,1,1.589,1.359c.995.9,2.471,2.161,4.385,3.6A54.86,54.86,0,0,0,787.65-492.3c3.483,1.083,6.9,1.837,9.969,2.7a46.715,46.715,0,0,1,8,2.847,22.648,22.648,0,0,1,4.849,3.056,12.749,12.749,0,0,1,1.141,1.063c.248.253.369.4.351.415" fill="#33535f"/>
    <path id="path612" d="M807.915-494.48c3.629,11.725,9.552,22.455,13.192,30.921,1.684,3.92,4.116,8.548,4.893,12.744.853,4.612-1.123,9.205-2.217,13.767s-.937,10.179,2.857,12.936a30.34,30.34,0,0,1-17.911,6.463,5.6,5.6,0,0,1-3.5-.761c-.979-.72-1.395-2.311-.525-3.161a15.56,15.56,0,0,1-19.729,2.04c-.427-5.061-.753-10.555,2.035-14.8,2.277-3.468,6.393-5.653,7.893-9.521.895-2.308-.287-5.208.105-7.652s2.012-5.7,2.74-6.033a12.038,12.038,0,0,0,12.811-8.859l.2-.757-2.852-27.325" fill="#17282f"/>
    <path id="path614" d="M805.606-426.563a5.382,5.382,0,0,1,.495-.956c.379-.684.873-1.579,1.492-2.693a68.961,68.961,0,0,0,4.595-10.307,42,42,0,0,0,2.38-16.4,29.2,29.2,0,0,0-7.663-18.377c-5.029-5.236-11.424-8.307-17.119-10.944-5.757-2.588-11.011-4.907-15.083-7.483A35.408,35.408,0,0,1,766-501.011a20.706,20.706,0,0,1-1.829-2.495,5.554,5.554,0,0,1-.532-.937c.075-.049.824,1.24,2.591,3.232a37.177,37.177,0,0,0,8.764,7.017c4.069,2.491,9.3,4.736,15.093,7.3,5.727,2.613,12.216,5.685,17.388,11.063a29.7,29.7,0,0,1,7.815,18.869,41.738,41.738,0,0,1-2.577,16.628,62.273,62.273,0,0,1-4.852,10.273c-.676,1.157-1.235,2.037-1.624,2.625a5.715,5.715,0,0,1-.628.875" fill="#33535f"/>
    <path id="path616" d="M776.311-390.448c-.121-.056.8-1.692,1.5-4.58a22.084,22.084,0,0,0-.3-11.4,22.075,22.075,0,0,0-6.1-9.644c-2.185-2.015-3.863-2.859-3.793-2.973a4.208,4.208,0,0,1,1.193.545,18.2,18.2,0,0,1,2.927,2.061,21.131,21.131,0,0,1,6.433,9.809,21.139,21.139,0,0,1,.107,11.728,18.248,18.248,0,0,1-1.285,3.34,4.24,4.24,0,0,1-.689,1.117" fill="#17282f"/>
    <path id="path618" d="M751.122-297.51l30.995.677a2.629,2.629,0,0,1,2.573,2.736c-.633,15.359-3.457,91.6,2.868,92.793,3.16.593,6.405-1.785,9.957-4.165,4.357-2.919,9.179-5.837,14.876-3.268,10.34,4.665,22.6,9.923,28.376,4.085s10.4-73.448-12.637-110.434l-73.283,4.208-3.725,13.368" fill="#f2575d"/>
    <path id="path620" d="M789.3-305.925a6.468,6.468,0,0,1-1.521.036l-4.135-.088c-3.488-.056-8.309-.015-13.616.351s-10.088,1-13.535,1.537l-4.083.657a6.386,6.386,0,0,1-1.513.176,6.4,6.4,0,0,1,1.46-.44c.948-.244,2.332-.547,4.052-.877a116.5,116.5,0,0,1,13.571-1.747,116.753,116.753,0,0,1,13.68-.148c1.748.091,3.161.2,4.135.308a6.351,6.351,0,0,1,1.505.235" fill="#17282f"/>
    <path id="path622" d="M804.9-297.327a13.1,13.1,0,0,1-2.145-.332c-1.369-.267-3.356-.631-5.812-1.055-4.913-.851-11.733-1.832-19.316-2.431s-14.476-.677-19.46-.6c-2.495.036-4.512.088-5.907.137a12.971,12.971,0,0,1-2.171,0,12.881,12.881,0,0,1,2.155-.265c1.392-.133,3.412-.26,5.909-.36a170.612,170.612,0,0,1,19.528.4,170.224,170.224,0,0,1,19.349,2.64c2.452.485,4.427.925,5.781,1.272a12.832,12.832,0,0,1,2.088.6" fill="#17282f"/>
    <path id="path624" d="M817.1-270.123a10.914,10.914,0,0,1-.017,1.985c-.06,1.4-.135,3.215-.228,5.393-.172,4.555-.283,10.851-.064,17.8s.741,13.225,1.205,17.759c.232,2.168.424,3.973.572,5.368a11.076,11.076,0,0,1,.147,1.981,10.694,10.694,0,0,1-.413-1.943c-.225-1.259-.5-3.087-.793-5.351-.591-4.528-1.183-10.82-1.411-17.793s-.032-13.285.267-17.841c.148-2.28.305-4.121.449-5.391a10.875,10.875,0,0,1,.287-1.965" fill="#17282f"/>
    <path id="path626" d="M827.123-223.326c-.191.015-1.467-13.653-2.851-30.525s-2.351-30.569-2.16-30.584,1.468,13.649,2.852,30.528,2.351,30.565,2.159,30.581" fill="#17282f"/>
    <path id="path628" d="M725.19-374.51l-2.675,3.556-.963-18.1L703.3-395.188s-4.291,45.5-3.637,52.555c.713,7.709.869,8.093,2.827,11.609,2.5,4.5,11.211,7.639,16.187,6.321,5.072-1.343,10.312-8.1,14.292-12.147,7.235-7.359,18.393-21.343,18.393-21.343L725.19-374.51" fill="#f8a58d"/>
    <path id="path630" d="M725.19-374.51a22.183,22.183,0,0,1-1.995,3.04c-1.276,1.841-3.009,4.4-4.805,7.3s-3.315,5.6-4.391,7.561a22.306,22.306,0,0,1-1.831,3.141,16.523,16.523,0,0,1,1.392-3.367,85.18,85.18,0,0,1,4.237-7.7,85.078,85.078,0,0,1,5-7.228,16.394,16.394,0,0,1,2.391-2.749" fill="#f68260"/>
    <path id="path632" d="M703.19-392.87l-7.109-4.007c-2.86-2.269-5.48-4.5-6.171-8.085,0,0,20.741,9.267,22.4,10.117s9.473,4,9.241,7.241L703.19-392.87" fill="#f8a58d"/>
    <path id="path634" d="M752.011-303.607c.037-.368.088-.744.156-1.127l1-.119-.287,1.027c-.187.045-.361.088-.524.131l-.347.088" fill="#ee4947"/>
    <path id="path636" d="M751.989-303.6l-.176-1.091.355-.043c-.068.383-.119.759-.156,1.127l-.023.007" fill="#111d23"/>
    <path id="path638" d="M801.258-302.835a12.009,12.009,0,0,1-1.237-.084l-20.436-2.1c-2.821-.291-5.653-.581-8.487-.672,3.684-.228,7.1-.3,9.951-.3.928,0,1.8.008,2.6.02l4.135.088c.324.007.6.011.825.011a2.027,2.027,0,0,0,.7-.047,6.352,6.352,0,0,0-1.505-.235c-.973-.109-2.387-.217-4.135-.308-1.568-.081-3.405-.135-5.437-.135-2.5,0-5.3.08-8.243.283a116.5,116.5,0,0,0-13.571,1.747c-1.425.275-2.62.529-3.528.747l.287-1.027c4.765-.56,20.655-2.4,24.32-2.491q3.972-.094,7.945-.1c5.024,0,10.045.129,15.06.447,1.545.1,3.569.707,3.508,2.255a2.07,2.07,0,0,1-1.531,1.74,4.01,4.01,0,0,1-1.213.165" fill="#ee4947"/>
    <path id="path640" d="M752.083-303.013l-.057-.356.385-.063.379-.06-.093.331-.613.148" fill="#ee4947"/>
    <path id="path642" d="M752.7-303.161l.093-.331,3.7-.6.5-.077c-1.436.317-2.867.66-4.295,1.005" fill="#ee4947"/>
    <path id="path644" d="M752.026-303.369l-.037-.232.023-.007.347-.088c.163-.043.337-.085.524-.131.908-.217,2.1-.472,3.528-.747a116.5,116.5,0,0,1,13.571-1.747c2.944-.2,5.74-.283,8.243-.283,2.032,0,3.869.053,5.437.135,1.748.091,3.161.2,4.135.308a6.353,6.353,0,0,1,1.505.235,2.028,2.028,0,0,1-.7.047c-.225,0-.5,0-.825-.011l-4.135-.088c-.8-.012-1.668-.02-2.6-.02-2.852,0-6.267.073-9.951.3q-.876-.028-1.752-.029c-.768,0-1.536.017-2.3.057a61.416,61.416,0,0,0-10.051,1.5l-.5.077-3.7.6-.379.06-.385.063" fill="#111d23"/>
  </g>
</svg>
